<svg width="167" height="50" viewBox="0 0 167 50" fill="none" xmlns="http://www.w3.org/2000/svg">
<path d="M14.2352 11.1465L6.86426 15.2817L22.0669 41.2417L29.0923 37.1065L25.9827 31.673L21.1455 34.3497L22.9786 26.4238L19.6916 20.6805L16.8842 19.8764L16.2731 14.7074L14.2352 11.1465Z" fill="#FCBF1E"/>
<path d="M14.8558 28.1315C19.0149 35.3162 25.0398 39.6127 28.3129 37.7279C31.1922 36.0699 30.9828 30.1809 28.0594 23.8968C26.4503 24.8158 26.0981 27.5726 26.0981 28.6064C26.0981 29.6402 24.7161 32.7416 24.1402 32.9714C23.5644 33.2011 21.8368 32.7416 22.4126 31.7078C22.9885 30.674 24.8312 25.2752 24.7161 24.4712C24.0592 23.3225 25.1768 23.0928 25.3729 22.7482C25.0692 22.013 26.037 21.3098 26.5588 21.0501C26.1773 20.4042 25.7808 19.7824 25.3729 19.1873C25.2692 19.2256 24.8773 19.394 24.1402 19.7616C17.1148 22.4036 17.2299 17.3494 17.2299 15.7413C18.612 19.9684 22.2024 18.4215 23.8249 17.1197C20.095 12.5648 15.8237 10.2289 13.2516 11.71C9.97855 13.5947 10.6968 20.9469 14.8558 28.1315Z" fill="#FCBF1E"/>
<ellipse rx="6.83874" ry="15.0314" transform="matrix(0.866627 -0.498957 0.501044 0.865422 14.794 27.9126)" fill="#FCBF1E"/>
<path fill-rule="evenodd" clip-rule="evenodd" d="M38.7149 6.33925C36.1267 6.2342 33.7632 7.54725 32.1314 9.50594C30.5648 11.3862 28.7454 13.2172 26.966 14.7124C25.1811 16.2122 23.4583 17.3558 22.085 17.884C21.5875 18.0754 21.1511 18.0677 20.7645 17.9401C20.371 17.8103 20.0084 17.5488 19.6828 17.2019C19.0272 16.5035 18.5745 15.5146 18.3632 14.8143C18.3156 14.6568 18.1632 14.5547 17.999 14.5706C17.8349 14.5864 17.7049 14.7157 17.6885 14.8793C17.5996 15.7667 17.6715 17.1133 18.1933 18.2742C18.7243 19.4556 19.7329 20.4572 21.4788 20.5449C23.1652 20.6296 25.1962 19.87 27.0115 18.9309C28.7604 18.0262 30.3635 16.9259 31.3597 16.1465C31.4946 16.1745 31.6258 16.1927 31.746 16.2035V17.6813C31.3641 17.9568 30.8404 18.2748 30.2524 18.6226C30.1282 18.6961 30.0014 18.7707 29.873 18.8463C29.3265 19.168 28.7508 19.5068 28.2232 19.8448C27.5756 20.2595 26.9728 20.6898 26.5725 21.1059C26.3729 21.3134 26.2032 21.538 26.1124 21.7751C26.0494 21.9395 26.0232 22.1151 26.0538 22.2902C26.0012 22.3367 25.947 22.3828 25.8909 22.4306C25.8589 22.4578 25.8262 22.4855 25.7929 22.5141C25.6527 22.6348 25.4957 22.7755 25.3791 22.9362C25.2574 23.1039 25.1635 23.3155 25.1844 23.5708C25.2041 23.8125 25.3227 24.0398 25.5081 24.2593C25.5088 24.2626 25.5097 24.2668 25.5106 24.2722C25.516 24.305 25.5186 24.3596 25.5118 24.4413C25.4982 24.605 25.4517 24.8286 25.373 25.1072C25.2164 25.6619 24.9502 26.3744 24.6446 27.1456C24.5003 27.5097 24.3468 27.8876 24.1929 28.2663C23.7052 29.4668 23.2143 30.6752 23.004 31.4762C22.9556 31.6603 23.066 31.8486 23.2506 31.8968C23.4352 31.9451 23.6241 31.8349 23.6724 31.6508C23.8704 30.8971 24.3343 29.7548 24.8168 28.5667C24.9745 28.1783 25.1342 27.7851 25.2872 27.3989C25.5931 26.6271 25.871 25.8858 26.0381 25.294C26.1213 24.9995 26.1815 24.7267 26.2005 24.4981C26.21 24.3837 26.2102 24.2681 26.1924 24.1603C26.175 24.0544 26.1359 23.9308 26.0462 23.8266C25.906 23.6638 25.8772 23.5645 25.8731 23.5148C25.8696 23.4727 25.88 23.4214 25.9389 23.3402C26.003 23.2519 26.103 23.1575 26.2442 23.0361C26.2708 23.0133 26.2988 22.9894 26.3279 22.9647C26.443 22.867 26.5749 22.7549 26.6952 22.6352C26.8039 22.527 26.8279 22.3603 26.7543 22.226C26.7296 22.1809 26.7185 22.1239 26.7579 22.021C26.8016 21.907 26.9006 21.7604 27.0711 21.5831C27.4111 21.2296 27.9545 20.8359 28.5966 20.4247C29.1121 20.0945 29.6736 19.764 30.2193 19.4427C30.349 19.3664 30.4778 19.2906 30.6049 19.2154C31.2589 18.8286 31.8752 18.4546 32.302 18.1276C32.3871 18.0624 32.437 17.9614 32.437 17.8543V15.8705C32.437 15.7769 32.3988 15.6874 32.3313 15.6224C32.2638 15.5575 32.1727 15.5227 32.0789 15.5261C31.9201 15.5319 31.6434 15.5142 31.366 15.44C31.0911 15.3664 30.8607 15.2492 30.7248 15.0896C30.6013 14.9445 30.3833 14.9267 30.2378 15.0499C30.0923 15.173 30.0745 15.3905 30.198 15.5356C30.3124 15.67 30.4491 15.7776 30.5944 15.8637C29.6212 16.5941 28.2122 17.5334 26.6933 18.3191C24.897 19.2483 23.0057 19.9315 21.5135 19.8565C20.0808 19.7846 19.2726 18.9906 18.8239 17.9923C18.6354 17.5731 18.5126 17.1203 18.4388 16.6763C18.6486 17.0279 18.8952 17.3713 19.1783 17.6729C19.5565 18.0759 20.0128 18.418 20.5474 18.5944C21.089 18.7732 21.69 18.7747 22.3336 18.5271C23.8129 17.958 25.6049 16.7573 27.4112 15.2394C29.223 13.717 31.0712 11.8569 32.6628 9.9464C34.1892 8.11431 36.3593 6.93342 38.6868 7.02788C41.0047 7.12196 43.563 8.48517 45.8635 11.913C45.9065 11.977 45.9697 12.0249 46.0432 12.0488L46.0442 12.0492C46.2003 12.1001 46.599 12.2303 47.0792 12.3217C47.5534 12.412 48.1428 12.4719 48.6694 12.3573C48.7151 12.3473 48.7584 12.3282 48.7966 12.301L49.995 11.447C50.1322 11.4729 50.2746 11.4868 50.4219 11.4877C50.4204 11.4992 50.4186 11.5108 50.4167 11.5225C50.4084 11.5719 50.3972 11.6189 50.3836 11.6759L50.381 11.6869C50.3676 11.7435 50.3502 11.8171 50.3412 11.8923C50.3208 12.0614 50.3404 12.2629 50.4986 12.4519C50.6352 12.615 50.8485 12.7345 51.1182 12.8401C51.2959 12.9097 51.4964 12.8225 51.5661 12.6453C51.6359 12.4682 51.5485 12.2682 51.3708 12.1986C51.1312 12.1048 51.0516 12.0372 51.029 12.0102L51.0283 12.0101C51.0265 12.0103 51.0229 12.0108 51.0273 11.9743C51.031 11.9435 51.039 11.9064 51.0534 11.8458C51.0545 11.8412 51.0557 11.8364 51.0568 11.8316C51.0696 11.7781 51.0859 11.7097 51.0982 11.6365C51.1264 11.469 51.1363 11.2644 51.0669 11.0265C51.0192 10.8629 50.8587 10.7586 50.6893 10.7812C50.4361 10.815 50.2106 10.7974 50.009 10.7439C49.5012 10.6092 49.0962 10.2316 48.7895 9.75527C48.6001 9.46117 48.4572 9.14287 48.3573 8.85246C48.7275 8.92452 49.1684 9.03753 49.6005 9.19855C50.2711 9.44843 50.8605 9.79205 51.1659 10.224C51.2209 10.3018 51.3058 10.3535 51.4003 10.3667C51.5921 10.3935 51.8438 10.4066 52.0996 10.42L52.1195 10.421C52.39 10.4351 52.6764 10.4503 52.9517 10.4802C53.2289 10.5104 53.4779 10.5539 53.6747 10.6191C53.8794 10.6868 53.9768 10.7614 54.015 10.8176C54.0556 10.8771 54.1138 10.9225 54.1815 10.9474C54.4276 11.0377 54.7454 11.0848 55.0338 11.1203C55.1277 11.1319 55.219 11.1423 55.3073 11.1523C55.5083 11.1752 55.6937 11.1963 55.8582 11.2252C55.9178 11.2357 55.9699 11.2465 56.0147 11.2575C56.013 11.259 56.0112 11.2606 56.0094 11.2622C55.9342 11.3276 55.891 11.4223 55.891 11.5218C55.891 11.6816 55.8471 11.9714 55.7277 12.1956C55.6698 12.3042 55.6036 12.3797 55.534 12.4243C55.4706 12.465 55.3865 12.4921 55.2599 12.4766C55.2319 12.4732 55.2036 12.4732 55.1757 12.4766C54.6609 12.5396 54.3401 12.7982 54.0992 13.0079C54.0864 13.019 54.0739 13.0299 54.0618 13.0405C53.83 13.2425 53.7098 13.3474 53.5319 13.3764C53.0907 13.4484 52.1942 13.4066 51.7821 13.373C51.6521 13.3624 51.5271 13.4257 51.4591 13.5368C51.2627 13.8573 50.9215 14.3559 50.5431 14.8002C50.354 15.0223 50.1605 15.2249 49.9755 15.3837C49.786 15.5464 49.6269 15.6443 49.507 15.6834C49.4202 15.7117 49.3481 15.7733 49.3066 15.8545C49.2488 15.9677 49.2014 16.08 49.159 16.1839C49.1483 16.2102 49.138 16.2355 49.128 16.2603C49.0969 16.3372 49.0681 16.4083 49.036 16.4807C48.954 16.6651 48.862 16.8287 48.7149 16.9827C48.4203 17.291 47.8447 17.622 46.4963 17.8665C46.4857 17.8684 46.4752 17.8709 46.4648 17.8738C46.2445 17.9354 46.0503 18.0771 45.8902 18.2286C45.7261 18.384 45.5732 18.5732 45.4376 18.7655C45.1665 19.15 44.9421 19.5794 44.8163 19.8609C44.7965 19.9051 44.7863 19.9529 44.7863 20.0012C44.7863 20.1543 44.7597 20.4057 44.6819 20.6376C44.6009 20.8793 44.4889 21.0294 44.3683 21.0885C44.192 21.1748 44.0215 21.2869 43.8711 21.3876C43.8528 21.3998 43.8349 21.4119 43.8173 21.4237C43.6823 21.5144 43.564 21.5939 43.4488 21.6576C43.3179 21.7301 43.2231 21.7633 43.1533 21.7704C43.0984 21.776 43.0549 21.7667 43.0021 21.7253C42.8647 21.6178 42.74 21.4537 42.6536 21.2929C42.7451 21.3509 42.8165 21.4092 42.8522 21.4442C42.9681 21.5577 43.1476 21.5753 43.2835 21.4866L43.8948 21.0876C44.0241 21.0032 44.0815 20.8433 44.0353 20.6962C43.9709 20.4914 43.8836 20.1634 43.8326 19.8531C43.807 19.6976 43.792 19.5556 43.7913 19.4402C43.7909 19.3827 43.7942 19.3375 43.7995 19.3037C43.8044 19.2725 43.8099 19.2593 43.8099 19.2593L43.8097 19.2598C43.9051 19.0729 44.0144 18.7658 44.1079 18.4794C44.204 18.1853 44.292 17.8861 44.3441 17.6992C44.3785 17.5756 44.3412 17.4431 44.2473 17.3554C44.1533 17.2677 44.0183 17.2394 43.8969 17.2818C43.6882 17.3548 43.3068 17.448 42.874 17.4751C42.4391 17.5023 41.9833 17.4607 41.6051 17.2923C41.5955 17.2881 41.5858 17.2843 41.576 17.2809C41.3872 17.2166 41.0746 17.0865 40.7712 16.9119C40.5217 16.7684 40.3062 16.6105 40.1639 16.4539C40.2907 16.0019 40.3934 15.5055 40.4682 14.9603C40.4941 14.7717 40.3618 14.5979 40.1727 14.5721C39.9837 14.5463 39.8094 14.6783 39.7836 14.8669C39.7036 15.4502 39.5907 15.9679 39.4522 16.4272C38.7786 18.6602 37.4882 19.5479 36.2899 19.9121C35.6796 20.0976 35.0812 20.1503 34.5778 20.1612C34.3459 20.1662 34.1371 20.1624 33.954 20.159C33.9382 20.1587 33.9225 20.1584 33.9071 20.1582C33.7247 20.1549 33.5435 20.1518 33.4125 20.1681C33.2466 20.1888 33.0398 20.2648 32.8275 20.3601C32.6058 20.4596 32.3459 20.5951 32.063 20.758C31.4969 21.0841 30.8245 21.5281 30.1603 22.0345C29.4966 22.5404 28.8342 23.1139 28.2922 23.6999C27.7558 24.2797 27.312 24.8985 27.1223 25.4963C27.1167 25.5141 27.1125 25.5324 27.1098 25.5508C26.6212 28.9105 26.1641 30.5722 25.7842 31.4211C25.5965 31.8405 25.4358 32.0424 25.3157 32.1523C25.2237 32.2365 25.1554 32.272 25.0632 32.32C25.0287 32.338 24.9907 32.3577 24.9469 32.3824C24.7808 32.4761 24.7223 32.6863 24.8163 32.852C24.9102 33.0176 25.121 33.076 25.2871 32.9823C25.3023 32.9738 25.3217 32.9638 25.3447 32.952C25.4464 32.8997 25.6164 32.8124 25.7828 32.6602C25.9931 32.4678 26.2023 32.1778 26.4153 31.702C26.8354 30.7631 27.3012 29.028 27.7895 25.6787C27.9386 25.231 28.2968 24.7112 28.8001 24.1672C29.3073 23.6189 29.9373 23.072 30.58 22.582C31.2221 22.0925 31.8699 21.6651 32.4086 21.3549C32.6782 21.1996 32.9168 21.0758 33.1111 20.9886C33.3149 20.8971 33.4416 20.8591 33.4981 20.852C33.5689 20.8432 33.6925 20.8436 33.8946 20.8473C33.9102 20.8475 33.9262 20.8478 33.9424 20.8481C34.1245 20.8515 34.3464 20.8556 34.5928 20.8502C35.1302 20.8386 35.7978 20.7822 36.4914 20.5714C37.7917 20.1761 39.1433 19.2487 39.9283 17.1738C40.0881 17.3022 40.2613 17.4143 40.4259 17.509C40.7648 17.7039 41.111 17.8496 41.3379 17.9281C41.8525 18.1532 42.4263 18.1936 42.9173 18.1629C43.1265 18.1498 43.3261 18.1235 43.5071 18.0904C43.4889 18.1485 43.47 18.2073 43.4509 18.2659C43.356 18.5564 43.2615 18.8146 43.1939 18.947C43.1143 19.103 43.0993 19.2909 43.1003 19.4443C43.1013 19.6093 43.1219 19.7902 43.1507 19.9648C43.19 20.2037 43.2473 20.4475 43.3025 20.6505L43.1158 20.7724C42.9492 20.6551 42.72 20.5274 42.4635 20.4646C42.3637 20.4402 42.2287 20.4321 42.0981 20.5017C41.9617 20.5742 41.8954 20.6961 41.8677 20.7982C41.8191 20.9776 41.8641 21.1754 41.9139 21.3215C42.021 21.6362 42.2598 22.0202 42.5752 22.2673C42.7771 22.4254 43.001 22.4786 43.2231 22.4561C43.4304 22.4351 43.6221 22.3499 43.7841 22.2603C43.9274 22.1809 44.0725 22.0834 44.2039 21.995C44.2217 21.9831 44.2392 21.9713 44.2564 21.9597C44.4084 21.8579 44.5436 21.7704 44.6728 21.7071C45.0413 21.5267 45.2349 21.1614 45.3373 20.8562C45.4308 20.5773 45.4685 20.289 45.4759 20.079C45.592 19.8293 45.782 19.4752 46.0028 19.1619C46.1228 18.9918 46.2462 18.8418 46.3658 18.7286C46.482 18.6187 46.5747 18.5625 46.6393 18.5411C48.0292 18.2869 48.7731 17.9209 49.2152 17.4582C49.4373 17.2256 49.5682 16.984 49.6677 16.76C49.7051 16.6759 49.7398 16.59 49.7718 16.5109C49.7811 16.4879 49.7902 16.4654 49.799 16.4438C49.8223 16.3867 49.8449 16.3327 49.8682 16.2808C50.0635 16.1912 50.2526 16.0552 50.4263 15.9061C50.6476 15.7161 50.8667 15.4849 51.0698 15.2464C51.4108 14.846 51.7206 14.4089 51.9361 14.075C52.4051 14.1048 53.1852 14.1314 53.6435 14.0565C54.0272 13.9939 54.2962 13.7552 54.4935 13.5802C54.5143 13.5617 54.5343 13.544 54.5535 13.5272C54.7622 13.3456 54.9443 13.2089 55.2238 13.1657C55.4848 13.1879 55.7153 13.1274 55.9076 13.0041C56.1054 12.8773 56.243 12.6971 56.3379 12.519C56.4884 12.2365 56.5551 11.9155 56.5752 11.6764C56.6565 11.5925 56.7255 11.5011 56.7681 11.4011C56.8402 11.2318 56.833 11.0391 56.7106 10.8784C56.6124 10.7495 56.4686 10.6818 56.3609 10.6424C56.244 10.5996 56.1103 10.5697 55.9782 10.5465C55.7919 10.5137 55.5724 10.4887 55.3616 10.4647C55.2783 10.4552 55.1964 10.4459 55.1184 10.4363C54.8722 10.406 54.6622 10.3729 54.5057 10.3282C54.3401 10.1473 54.1108 10.0372 53.8923 9.96491C53.6275 9.87728 53.3226 9.8273 53.0267 9.7951C52.7289 9.7627 52.4232 9.7467 52.1556 9.73275C51.9518 9.72212 51.7761 9.71287 51.6337 9.69972C51.195 9.16408 50.4998 8.79788 49.8424 8.55293C49.123 8.28488 48.387 8.1395 47.9215 8.08691C47.8116 8.0745 47.7024 8.11528 47.6277 8.19663C47.5531 8.27797 47.5219 8.39004 47.544 8.49811C47.636 8.9487 47.8485 9.56945 48.208 10.1277C48.4587 10.5169 48.7924 10.893 49.2219 11.1509L48.4554 11.6971C48.0778 11.7642 47.6265 11.7242 47.2087 11.6447C46.8587 11.578 46.5545 11.4882 46.3705 11.43C44.0004 7.94584 41.2882 6.4437 38.7149 6.33925Z" fill="#120136"/>
<path fill-rule="evenodd" clip-rule="evenodd" d="M14.2642 11.5108C12.8732 12.3117 12.1532 14.1685 12.2128 16.748C12.2526 18.4719 12.6422 20.474 13.3762 22.594C13.9592 24.2779 14.7579 26.0317 15.7662 27.7735C16.2532 28.6148 16.7671 29.4153 17.3003 30.1699C18.505 31.8748 19.8068 33.343 21.1169 34.5158C21.5039 34.8623 21.8913 35.1827 22.2769 35.4757C23.2627 36.2248 24.2329 36.7919 25.1497 37.1575C26.7186 37.783 28.09 37.8048 29.1364 37.2023C30.41 36.4688 31.1218 34.8522 31.1864 32.5948C31.2506 30.3502 30.6678 27.5554 29.4527 24.6137C29.38 24.4377 29.4641 24.2363 29.6405 24.1638C29.817 24.0913 30.0189 24.1752 30.0916 24.3512C31.3321 27.3543 31.9448 30.247 31.8771 32.6145C31.8098 34.9691 31.0622 36.8891 29.4819 37.7991C28.2243 38.5232 26.6722 38.4708 25.0506 37.8585L22.2721 39.4585C22.1068 39.5537 21.8955 39.4972 21.8001 39.3324C21.7047 39.1675 21.7613 38.9568 21.9266 38.8616L24.2591 37.5185C23.5308 37.1689 22.7871 36.7126 22.0425 36.1621L18.5409 38.1784C18.3757 38.2736 18.1644 38.2171 18.0689 38.0523C17.9735 37.8875 18.0302 37.6767 18.1954 37.5816L21.4522 35.7062C21.1862 35.492 20.9204 35.266 20.6553 35.0287C19.3693 33.8774 18.0988 32.4577 16.9187 30.8234L13.3393 32.8846C13.174 32.9797 12.9627 32.9232 12.8673 32.7584C12.7719 32.5936 12.8285 32.3828 12.9938 32.2877L16.5196 30.2574C16.0514 29.5775 15.5991 28.8633 15.1678 28.1181C14.2163 26.4744 13.4459 24.8175 12.8625 23.2121L9.37692 25.2192C9.21167 25.3144 9.00035 25.2579 8.90494 25.0931C8.80953 24.9283 8.86615 24.7175 9.03141 24.6224L12.6313 22.5495C12.0135 20.7016 11.6476 18.9302 11.5469 17.3384L8.10073 19.3228C7.93548 19.418 7.72416 19.3615 7.62875 19.1967C7.53334 19.0319 7.58996 18.8211 7.75522 18.726L11.5188 16.5588C11.4989 13.9884 12.2384 11.8814 13.9186 10.9139C15.3147 10.1101 17.0723 10.2628 18.8894 11.0775C20.7116 11.8945 22.6509 13.3992 24.477 15.4098C24.6051 15.5509 24.5943 15.7688 24.4529 15.8966C24.3115 16.0243 24.093 16.0136 23.9649 15.8725C22.1807 13.9082 20.3158 12.4726 18.606 11.7061C16.8911 10.9372 15.3891 10.863 14.2642 11.5108Z" fill="#120136"/>
<path fill-rule="evenodd" clip-rule="evenodd" d="M15.4574 14.9777C15.2505 15.6499 15.1842 16.51 15.2678 17.5169C15.3803 18.8721 15.7617 20.4653 16.4014 22.1699C16.9094 23.5235 17.5787 24.9428 18.4009 26.363C18.7979 27.049 19.2127 27.7041 19.6393 28.3239C20.6033 29.7245 21.6264 30.9429 22.6407 31.9287C22.9403 32.2199 23.2389 32.4905 23.5346 32.7394C24.291 33.3759 25.0252 33.8669 25.7082 34.1964C26.8855 34.7643 27.8449 34.8249 28.5244 34.4336C29.2798 33.9987 29.7222 32.9836 29.7456 31.4427C29.7687 29.9197 29.3767 27.9812 28.585 25.8665C28.5182 25.6882 28.609 25.4897 28.7878 25.4231C28.9666 25.3566 29.1656 25.4471 29.2324 25.6254C30.0427 27.79 30.4614 29.8168 30.4366 31.4532C30.412 33.0716 29.9477 34.4099 28.8699 35.0305C27.8989 35.5896 26.6697 35.4259 25.4073 34.8168C24.66 34.4563 23.8776 33.9298 23.089 33.2661C22.7798 33.0059 22.469 32.7242 22.1585 32.4223C21.1079 31.4012 20.0561 30.1472 19.0696 28.714C18.6327 28.0792 18.2084 27.4089 17.8024 26.7076C16.9621 25.2561 16.2763 23.8024 15.7542 22.4115C15.0981 20.6632 14.6981 19.0069 14.5791 17.5738C14.4911 16.5126 14.5558 15.5582 14.7969 14.7754C15.0387 13.99 15.465 13.3577 16.1093 12.9868C17.0226 12.4609 18.1651 12.5751 19.3446 13.0954C20.5302 13.6185 21.8163 14.5766 23.0846 15.8563C23.2188 15.9916 23.2175 16.2098 23.0818 16.3436C22.9461 16.4774 22.7273 16.4762 22.5932 16.3408C21.3609 15.0975 20.1446 14.202 19.065 13.7257C17.9792 13.2467 17.0937 13.2157 16.4548 13.5836C16.0024 13.8441 15.6637 14.3079 15.4574 14.9777Z" fill="#120136"/>
<path fill-rule="evenodd" clip-rule="evenodd" d="M6.91393 20.6486C7.15783 23.6155 8.34198 27.2545 10.4234 30.85C12.1753 33.8764 14.2729 36.3712 16.3591 38.0961C18.3793 39.7665 20.3482 40.6823 21.9597 40.7163H22.1442C22.7537 40.7032 23.3068 40.5591 23.7936 40.2788L29.1364 37.2023C29.3016 37.1071 29.513 37.1636 29.6084 37.3284C29.7038 37.4932 29.6472 37.704 29.4819 37.7991L24.4158 40.7163H27.2154C27.4062 40.7163 27.5609 40.8706 27.5609 41.0609C27.5609 41.2512 27.4062 41.4055 27.2154 41.4055H22.1514C22.0854 41.4068 22.0189 41.4068 21.9521 41.4055H3.60528C3.41446 41.4055 3.25977 41.2512 3.25977 41.0609C3.25977 40.8706 3.41446 40.7163 3.60528 40.7163L19.1778 40.7163C18.1093 40.2385 17.0068 39.5268 15.918 38.6266C13.7599 36.8422 11.6116 34.2811 9.82494 31.1947C7.70409 27.5309 6.47917 23.7943 6.22521 20.7049C5.97364 17.6447 6.67137 15.0871 8.57582 13.9905L13.9186 10.9139C14.0839 10.8188 14.2952 10.8752 14.3906 11.0401C14.486 11.2049 14.4294 11.4156 14.2642 11.5108L8.92134 14.5873C7.38324 15.473 6.66763 17.6525 6.91393 20.6486ZM8.09696 42.172C8.09696 41.9817 8.25165 41.8274 8.44248 41.8274H31.3616C31.5524 41.8274 31.7071 41.9817 31.7071 42.172C31.7071 42.3623 31.5524 42.5166 31.3616 42.5166L8.44248 42.5166C8.25165 42.5166 8.09696 42.3623 8.09696 42.172Z" fill="#120136"/>
<path d="M40.0368 38.1952C38.9769 38.1952 38.1228 37.8781 37.4744 37.2438C36.8385 36.5972 36.5205 35.7453 36.5205 34.6882V28.327C36.5205 27.2575 36.8385 26.4118 37.4744 25.79C38.1228 25.1557 38.9769 24.8386 40.0368 24.8386C41.1092 24.8386 41.9696 25.1557 42.618 25.79C43.2664 26.4118 43.5906 27.2575 43.5906 28.327V28.5509C43.5906 28.613 43.5656 28.669 43.5157 28.7188C43.4783 28.7685 43.4285 28.7934 43.3661 28.7934L41.6267 28.868C41.477 28.868 41.4022 28.7934 41.4022 28.6441V28.1778C41.4022 27.7425 41.2775 27.3881 41.0281 27.1145C40.7788 26.8409 40.4483 26.7041 40.0368 26.7041C39.6378 26.7041 39.3136 26.8409 39.0642 27.1145C38.8148 27.3881 38.6902 27.7425 38.6902 28.1778V34.8561C38.6902 35.2913 38.8148 35.6458 39.0642 35.9194C39.3136 36.193 39.6378 36.3298 40.0368 36.3298C40.4483 36.3298 40.7788 36.193 41.0281 35.9194C41.2775 35.6458 41.4022 35.2913 41.4022 34.8561V34.3897C41.4022 34.3275 41.4209 34.2778 41.4583 34.2405C41.5082 34.1907 41.5643 34.1659 41.6267 34.1659L43.3661 34.2405C43.4285 34.2405 43.4783 34.2653 43.5157 34.3151C43.5656 34.3524 43.5906 34.4021 43.5906 34.4643V34.6882C43.5906 35.7453 43.2664 36.5972 42.618 37.2438C41.9696 37.8781 41.1092 38.1952 40.0368 38.1952Z" fill="#120136"/>
<path d="M48.5694 38.1952C47.5345 38.1952 46.7178 37.9216 46.1192 37.3744C45.5332 36.8272 45.2402 36.0873 45.2402 35.1545V31.405C45.2402 30.4847 45.5394 29.751 46.1379 29.2038C46.7365 28.6441 47.547 28.3643 48.5694 28.3643C49.6044 28.3643 50.4211 28.6441 51.0196 29.2038C51.6182 29.751 51.9174 30.4847 51.9174 31.405V35.1545C51.9174 36.0873 51.6182 36.8272 51.0196 37.3744C50.4336 37.9216 49.6169 38.1952 48.5694 38.1952ZM48.5694 36.3111C48.9186 36.3111 49.1991 36.193 49.4111 35.9567C49.6356 35.708 49.7478 35.3846 49.7478 34.9867V31.5542C49.7478 31.1687 49.6356 30.8516 49.4111 30.6029C49.1991 30.3541 48.9186 30.2298 48.5694 30.2298C48.2203 30.2298 47.9397 30.3541 47.7278 30.6029C47.5158 30.8391 47.4098 31.1563 47.4098 31.5542V34.9867C47.4098 35.3846 47.5158 35.708 47.7278 35.9567C47.9397 36.193 48.2203 36.3111 48.5694 36.3111Z" fill="#120136"/>
<path d="M58.1578 28.7374C58.1578 28.6752 58.1765 28.6255 58.2139 28.5882C58.2638 28.5384 58.3199 28.5136 58.3822 28.5136H60.103C60.1653 28.5136 60.2152 28.5384 60.2526 28.5882C60.3025 28.6255 60.3274 28.6752 60.3274 28.7374V37.8221C60.3274 37.8843 60.3025 37.9403 60.2526 37.99C60.2152 38.0273 60.1653 38.046 60.103 38.046H58.3822C58.3199 38.046 58.2638 38.0273 58.2139 37.99C58.1765 37.9403 58.1578 37.8843 58.1578 37.8221V37.4117C58.1578 37.3744 58.1453 37.3495 58.1204 37.3371C58.0954 37.3247 58.0705 37.3371 58.0456 37.3744C57.684 37.9092 57.1041 38.1766 56.3061 38.1766C55.5455 38.1766 54.9283 37.9527 54.4544 37.505C53.9931 37.0449 53.7624 36.3422 53.7624 35.397V28.7374C53.7624 28.6752 53.7811 28.6255 53.8185 28.5882C53.8684 28.5384 53.9245 28.5136 53.9868 28.5136H55.7076C55.7699 28.5136 55.8198 28.5384 55.8572 28.5882C55.9071 28.6255 55.932 28.6752 55.932 28.7374V34.9307C55.932 35.8634 56.2936 36.3298 57.0169 36.3298C57.3785 36.3298 57.659 36.1992 57.8585 35.938C58.058 35.6644 58.1578 35.2976 58.1578 34.8374V28.7374Z" fill="#120136"/>
<path d="M66.5086 28.3643C67.3191 28.3643 67.9301 28.6379 68.3416 29.1851C68.7656 29.7199 68.9775 30.4847 68.9775 31.4796V37.8221C68.9775 37.8843 68.9526 37.9403 68.9027 37.99C68.8653 38.0273 68.8154 38.046 68.7531 38.046H67.0323C66.97 38.046 66.9139 38.0273 66.864 37.99C66.8266 37.9403 66.8079 37.8843 66.8079 37.8221V31.6475C66.8079 31.1998 66.7144 30.8516 66.5273 30.6029C66.3403 30.3541 66.0722 30.2298 65.7231 30.2298C65.3615 30.2298 65.0809 30.3603 64.8814 30.6215C64.6819 30.8827 64.5821 31.2433 64.5821 31.7035V37.8221C64.5821 37.8843 64.5572 37.9403 64.5073 37.99C64.4699 38.0273 64.42 38.046 64.3577 38.046H62.6369C62.5746 38.046 62.5185 38.0273 62.4686 37.99C62.4312 37.9403 62.4125 37.8843 62.4125 37.8221V28.7374C62.4125 28.6752 62.4312 28.6255 62.4686 28.5882C62.5185 28.5384 62.5746 28.5136 62.6369 28.5136H64.3577C64.42 28.5136 64.4699 28.5384 64.5073 28.5882C64.5572 28.6255 64.5821 28.6752 64.5821 28.7374V29.1105C64.5821 29.1478 64.5946 29.1727 64.6195 29.1851C64.6569 29.1851 64.6943 29.1602 64.7318 29.1105C65.1557 28.613 65.748 28.3643 66.5086 28.3643Z" fill="#120136"/>
<path d="M75.0086 29.8194C75.0086 29.8815 74.9837 29.9375 74.9338 29.9873C74.8964 30.0246 74.8465 30.0432 74.7842 30.0432H73.6246C73.5622 30.0432 73.531 30.0743 73.531 30.1365V35.024C73.531 35.4592 73.6121 35.7639 73.7742 35.938C73.9363 36.0997 74.1794 36.1743 74.5036 36.1619H74.6346C74.6969 36.1619 74.7468 36.1868 74.7842 36.2365C74.8341 36.2738 74.859 36.3236 74.859 36.3857V37.8221C74.859 37.8843 74.8341 37.9403 74.7842 37.99C74.7468 38.0273 74.6969 38.046 74.6346 38.046H73.9986C73.1507 38.046 72.5086 37.8905 72.0721 37.5796C71.6482 37.2687 71.4362 36.6842 71.4362 35.8261V30.1365C71.4362 30.0743 71.405 30.0432 71.3427 30.0432H70.6881C70.6257 30.0432 70.5696 30.0246 70.5197 29.9873C70.4823 29.9375 70.4636 29.8815 70.4636 29.8194V28.7374C70.4636 28.6752 70.4823 28.6255 70.5197 28.5882C70.5696 28.5384 70.6257 28.5136 70.6881 28.5136H71.3427C71.405 28.5136 71.4362 28.4825 71.4362 28.4203V26.3683C71.4362 26.3061 71.4549 26.2564 71.4923 26.2191C71.5422 26.1693 71.5983 26.1444 71.6607 26.1444H73.3066C73.3689 26.1444 73.4188 26.1693 73.4562 26.2191C73.5061 26.2564 73.531 26.3061 73.531 26.3683V28.4203C73.531 28.4825 73.5622 28.5136 73.6246 28.5136H74.7842C74.8465 28.5136 74.8964 28.5384 74.9338 28.5882C74.9837 28.6255 75.0086 28.6752 75.0086 28.7374V29.8194Z" fill="#120136"/>
<path d="M87.4546 26.6295C87.4546 26.6916 87.4297 26.7476 87.3798 26.7973C87.3424 26.8346 87.2925 26.8533 87.2301 26.8533H83.1901C83.1278 26.8533 83.0966 26.8844 83.0966 26.9466V30.4723C83.0966 30.5345 83.1278 30.5655 83.1901 30.5655H85.5842C85.6466 30.5655 85.6964 30.5904 85.7338 30.6402C85.7837 30.6775 85.8086 30.7272 85.8086 30.7894V32.2258C85.8086 32.288 85.7837 32.3439 85.7338 32.3937C85.6964 32.431 85.6466 32.4496 85.5842 32.4496H83.1901C83.1278 32.4496 83.0966 32.4807 83.0966 32.5429V36.0873C83.0966 36.1494 83.1278 36.1805 83.1901 36.1805H87.2301C87.2925 36.1805 87.3424 36.2054 87.3798 36.2552C87.4297 36.2925 87.4546 36.3422 87.4546 36.4044V37.8221C87.4546 37.8843 87.4297 37.9403 87.3798 37.99C87.3424 38.0273 87.2925 38.046 87.2301 38.046H81.1514C81.089 38.046 81.0329 38.0273 80.9831 37.99C80.9457 37.9403 80.9269 37.8843 80.9269 37.8221V25.2117C80.9269 25.1495 80.9457 25.0998 80.9831 25.0625C81.0329 25.0127 81.089 24.9879 81.1514 24.9879H87.2301C87.2925 24.9879 87.3424 25.0127 87.3798 25.0625C87.4297 25.0998 87.4546 25.1495 87.4546 25.2117V26.6295Z" fill="#120136"/>
<path d="M91.3182 38.046C91.1811 38.046 91.0938 37.9838 91.0564 37.8594L88.7745 28.7374V28.6628C88.7745 28.5509 88.8431 28.4949 88.9803 28.4949H90.8881C91.0377 28.4949 91.1187 28.5633 91.1312 28.7001L92.2534 34.5016C92.2659 34.5389 92.2846 34.5576 92.3096 34.5576C92.3345 34.5576 92.3532 34.5389 92.3657 34.5016L93.4692 28.7001C93.4817 28.5633 93.5627 28.4949 93.7123 28.4949L95.6201 28.5322C95.7947 28.5322 95.8633 28.613 95.8259 28.7747L93.5627 37.8594C93.5253 37.9838 93.438 38.046 93.3009 38.046H91.3182Z" fill="#120136"/>
<path d="M103.651 33.8487C103.651 33.9109 103.626 33.9669 103.576 34.0166C103.538 34.0539 103.488 34.0726 103.426 34.0726H99.2925C99.2302 34.0726 99.199 34.1037 99.199 34.1659V35.0053C99.199 35.3908 99.305 35.708 99.517 35.9567C99.7289 36.2054 100.003 36.3298 100.34 36.3298C100.627 36.3298 100.87 36.2427 101.069 36.0686C101.281 35.8821 101.419 35.6458 101.481 35.3597C101.518 35.2354 101.599 35.1732 101.724 35.1732L103.389 35.2478C103.451 35.2478 103.501 35.2727 103.538 35.3224C103.588 35.3597 103.607 35.4157 103.594 35.4903C103.507 36.3609 103.189 37.0324 102.641 37.505C102.092 37.9651 101.325 38.1952 100.34 38.1952C99.3175 38.1952 98.507 37.9278 97.9084 37.3931C97.3224 36.8459 97.0294 36.1059 97.0294 35.1732V31.3863C97.0294 30.4785 97.3224 29.751 97.9084 29.2038C98.507 28.6441 99.3175 28.3643 100.34 28.3643C101.362 28.3643 102.167 28.6441 102.753 29.2038C103.351 29.751 103.651 30.4785 103.651 31.3863V33.8487ZM100.34 30.2298C100.003 30.2298 99.7289 30.3541 99.517 30.6029C99.305 30.8516 99.199 31.1687 99.199 31.5542V32.3937C99.199 32.4559 99.2302 32.487 99.2925 32.487H101.406C101.468 32.487 101.5 32.4559 101.5 32.3937V31.5542C101.5 31.1563 101.394 30.8391 101.182 30.6029C100.97 30.3541 100.689 30.2298 100.34 30.2298Z" fill="#120136"/>
<path d="M109.426 28.4016C109.763 28.4016 110.024 28.4638 110.211 28.5882C110.311 28.6504 110.349 28.7436 110.324 28.868L110.024 30.6029C110.012 30.7521 109.925 30.7956 109.763 30.7334C109.588 30.6837 109.426 30.6588 109.276 30.6588C109.127 30.6588 108.989 30.6775 108.865 30.7148C108.516 30.7645 108.229 30.9635 108.004 31.3117C107.792 31.6475 107.686 32.0517 107.686 32.5243V37.8035C107.686 37.8657 107.662 37.9216 107.612 37.9714C107.574 38.0087 107.524 38.0273 107.462 38.0273H105.741C105.679 38.0273 105.623 38.0087 105.573 37.9714C105.536 37.9216 105.517 37.8657 105.517 37.8035V28.7374C105.517 28.6752 105.536 28.6255 105.573 28.5882C105.623 28.5384 105.679 28.5136 105.741 28.5136H107.462C107.524 28.5136 107.574 28.5384 107.612 28.5882C107.662 28.6255 107.686 28.6752 107.686 28.7374V29.5955C107.686 29.6453 107.699 29.6763 107.724 29.6888C107.749 29.6888 107.768 29.6639 107.78 29.6142C108.117 28.8058 108.665 28.4016 109.426 28.4016Z" fill="#120136"/>
<path d="M111.788 41.7582C111.763 41.7582 111.738 41.7333 111.713 41.6836C111.688 41.6463 111.676 41.5965 111.676 41.5344V40.1912C111.676 40.1291 111.694 40.0731 111.732 40.0234C111.769 39.986 111.813 39.9674 111.863 39.9674C112.274 39.955 112.599 39.899 112.835 39.7995C113.072 39.7124 113.259 39.5321 113.397 39.2585C113.546 38.9974 113.652 38.6118 113.715 38.1019L113.696 37.99L111.339 28.7374V28.6628C111.339 28.5509 111.408 28.4949 111.545 28.4949H113.378C113.527 28.4949 113.609 28.5633 113.621 28.7001L114.762 34.8747C114.774 34.912 114.793 34.9307 114.818 34.9307C114.843 34.9307 114.862 34.912 114.874 34.8747L115.978 28.7001C115.99 28.5633 116.071 28.4949 116.221 28.4949L118.072 28.5322C118.247 28.5322 118.316 28.613 118.278 28.7747L115.772 38.5683C115.535 39.4513 115.286 40.1104 115.024 40.5457C114.762 40.9809 114.394 41.2919 113.92 41.4784C113.446 41.6649 112.767 41.7582 111.882 41.7582H111.788Z" fill="#120136"/>
<path d="M127.808 24.9692C128.469 24.9692 129.049 25.1309 129.548 25.4542C130.059 25.7776 130.452 26.2315 130.726 26.816C131.013 27.4005 131.156 28.0658 131.156 28.812C131.156 29.9313 130.857 30.8329 130.258 31.5169C129.672 32.2009 128.893 32.5429 127.92 32.5429H126.331C126.268 32.5429 126.237 32.574 126.237 32.6362V37.8221C126.237 37.8843 126.212 37.9403 126.162 37.99C126.125 38.0273 126.075 38.046 126.013 38.046H124.292C124.229 38.046 124.173 38.0273 124.123 37.99C124.086 37.9403 124.067 37.8843 124.067 37.8221V25.1931C124.067 25.1309 124.086 25.0811 124.123 25.0438C124.173 24.9941 124.229 24.9692 124.292 24.9692H127.808ZM127.453 30.8454C127.914 30.8454 128.282 30.6713 128.556 30.323C128.843 29.9624 128.986 29.4774 128.986 28.868C128.986 28.2462 128.843 27.7549 128.556 27.3943C128.282 27.0212 127.914 26.8347 127.453 26.8347H126.331C126.268 26.8347 126.237 26.8657 126.237 26.9279V30.7521C126.237 30.8143 126.268 30.8454 126.331 30.8454H127.453Z" fill="#120136"/>
<path d="M139.33 33.8487C139.33 33.9109 139.305 33.9669 139.255 34.0166C139.218 34.0539 139.168 34.0726 139.106 34.0726H134.972C134.91 34.0726 134.879 34.1037 134.879 34.1659V35.0053C134.879 35.3908 134.985 35.708 135.197 35.9567C135.409 36.2054 135.683 36.3298 136.02 36.3298C136.307 36.3298 136.55 36.2427 136.749 36.0686C136.961 35.8821 137.098 35.6458 137.161 35.3597C137.198 35.2354 137.279 35.1732 137.404 35.1732L139.068 35.2478C139.131 35.2478 139.181 35.2727 139.218 35.3224C139.268 35.3597 139.287 35.4157 139.274 35.4903C139.187 36.3609 138.869 37.0324 138.32 37.505C137.772 37.9651 137.005 38.1952 136.02 38.1952C134.997 38.1952 134.187 37.9278 133.588 37.3931C133.002 36.8459 132.709 36.1059 132.709 35.1732V31.3863C132.709 30.4785 133.002 29.751 133.588 29.2038C134.187 28.6441 134.997 28.3643 136.02 28.3643C137.042 28.3643 137.846 28.6441 138.433 29.2038C139.031 29.751 139.33 30.4785 139.33 31.3863V33.8487ZM136.02 30.2298C135.683 30.2298 135.409 30.3541 135.197 30.6029C134.985 30.8516 134.879 31.1687 134.879 31.5542V32.3937C134.879 32.4559 134.91 32.487 134.972 32.487H137.086C137.148 32.487 137.179 32.4559 137.179 32.3937V31.5542C137.179 31.1563 137.073 30.8391 136.861 30.6029C136.649 30.3541 136.369 30.2298 136.02 30.2298Z" fill="#120136"/>
<path d="M145.293 28.3643C146.103 28.3643 146.714 28.6379 147.126 29.1851C147.55 29.7199 147.762 30.4847 147.762 31.4796V37.8221C147.762 37.8843 147.737 37.9403 147.687 37.99C147.649 38.0273 147.6 38.046 147.537 38.046H145.816C145.754 38.046 145.698 38.0273 145.648 37.99C145.611 37.9403 145.592 37.8843 145.592 37.8221V31.6475C145.592 31.1998 145.498 30.8516 145.311 30.6029C145.124 30.3541 144.856 30.2298 144.507 30.2298C144.146 30.2298 143.865 30.3603 143.665 30.6215C143.466 30.8827 143.366 31.2433 143.366 31.7035V37.8221C143.366 37.8843 143.341 37.9403 143.291 37.99C143.254 38.0273 143.204 38.046 143.142 38.046H141.421C141.359 38.046 141.303 38.0273 141.253 37.99C141.215 37.9403 141.197 37.8843 141.197 37.8221V28.7374C141.197 28.6752 141.215 28.6255 141.253 28.5882C141.303 28.5384 141.359 28.5136 141.421 28.5136H143.142C143.204 28.5136 143.254 28.5384 143.291 28.5882C143.341 28.6255 143.366 28.6752 143.366 28.7374V29.1105C143.366 29.1478 143.379 29.1727 143.404 29.1851C143.441 29.1851 143.478 29.1602 143.516 29.1105C143.94 28.613 144.532 28.3643 145.293 28.3643Z" fill="#120136"/>
<path d="M153.886 28.3643C154.697 28.3643 155.308 28.6379 155.719 29.1851C156.143 29.7199 156.355 30.4847 156.355 31.4796V37.8221C156.355 37.8843 156.33 37.9403 156.28 37.99C156.243 38.0273 156.193 38.046 156.131 38.046H154.41C154.348 38.046 154.292 38.0273 154.242 37.99C154.204 37.9403 154.186 37.8843 154.186 37.8221V31.6475C154.186 31.1998 154.092 30.8516 153.905 30.6029C153.718 30.3541 153.45 30.2298 153.101 30.2298C152.739 30.2298 152.459 30.3603 152.259 30.6215C152.06 30.8827 151.96 31.2433 151.96 31.7035V37.8221C151.96 37.8843 151.935 37.9403 151.885 37.99C151.848 38.0273 151.798 38.046 151.735 38.046H150.015C149.952 38.046 149.896 38.0273 149.846 37.99C149.809 37.9403 149.79 37.8843 149.79 37.8221V28.7374C149.79 28.6752 149.809 28.6255 149.846 28.5882C149.896 28.5384 149.952 28.5136 150.015 28.5136H151.735C151.798 28.5136 151.848 28.5384 151.885 28.5882C151.935 28.6255 151.96 28.6752 151.96 28.7374V29.1105C151.96 29.1478 151.972 29.1727 151.997 29.1851C152.035 29.1851 152.072 29.1602 152.109 29.1105C152.533 28.613 153.126 28.3643 153.886 28.3643Z" fill="#120136"/>
<path d="M158.162 41.7582C158.137 41.7582 158.112 41.7333 158.087 41.6836C158.062 41.6463 158.05 41.5965 158.05 41.5344V40.1912C158.05 40.1291 158.068 40.0731 158.106 40.0234C158.143 39.986 158.187 39.9674 158.237 39.9674C158.648 39.955 158.972 39.899 159.209 39.7995C159.446 39.7124 159.633 39.5321 159.77 39.2585C159.92 38.9974 160.026 38.6118 160.088 38.1019L160.07 37.99L157.713 28.7374V28.6628C157.713 28.5509 157.782 28.4949 157.919 28.4949H159.752C159.901 28.4949 159.982 28.5633 159.995 28.7001L161.136 34.8747C161.148 34.912 161.167 34.9307 161.192 34.9307C161.217 34.9307 161.236 34.912 161.248 34.8747L162.352 28.7001C162.364 28.5633 162.445 28.4949 162.595 28.4949L164.446 28.5322C164.621 28.5322 164.689 28.613 164.652 28.7747L162.146 38.5683C161.909 39.4513 161.659 40.1104 161.398 40.5457C161.136 40.9809 160.768 41.2919 160.294 41.4784C159.82 41.6649 159.141 41.7582 158.255 41.7582H158.162Z" fill="#120136"/>
</svg>
