<svg width="151" height="260" viewBox="0 0 151 260" fill="none" xmlns="http://www.w3.org/2000/svg">
<g filter="url(#filter0_ii)">
<rect x="0.5" width="150" height="260" rx="4" fill="white"/>
</g>
<g clip-path="url(#clip0)">
<path opacity="0.14" d="M75.4705 171.215C42.7641 171.215 18.5 176.315 18.5 176.315C18.5 176.315 35.6207 181.059 75.4705 181.059C114.14 181.059 132.441 176.315 132.441 176.315C132.441 176.315 108.177 171.215 75.4705 171.215Z" fill="#260F00"/>
<path d="M27.2964 119.385C27.2964 119.385 29.7759 120.809 29.7759 121.698C29.7759 122.113 27.5325 120.275 27.5325 120.275L27.2964 119.385Z" fill="#D78C74"/>
<path d="M27.4738 119.86C27.4738 119.86 29.363 119.208 29.7763 119.801C29.9534 120.097 27.651 120.394 27.651 120.394L27.4738 119.86Z" fill="#D78C74"/>
<path d="M84.9754 88.0742C79.0717 101.002 73.2271 116.005 70.8656 116.361C70.7475 116.836 70.5704 117.31 70.4523 117.784C70.7475 118.259 71.2788 119.208 71.3969 119.208C73.6994 119.208 77.7139 117.666 83.4404 104.916C86.6284 97.7404 88.6357 93.0556 88.9899 90.7428L84.9754 88.0742Z" fill="#E5A185"/>
<path d="M77.0053 116.005C78.8354 113.93 81.0198 110.49 83.4994 104.975C86.6873 97.7996 88.6946 93.1148 89.0488 90.802L85.0343 87.8369C82.968 88.7857 76.1198 108.237 73.345 112.981C74.4077 113.87 75.8836 115.056 77.0053 116.005Z" fill="#4C2518"/>
<path d="M109.594 90.0312C109.594 90.0312 117.032 86.9475 119.217 95.6056C121.46 104.264 119.63 123.003 117.091 125.375C114.553 127.747 97.8452 123.952 97.8452 123.952L109.594 90.0312Z" fill="#6C2E3F"/>
<path d="M114.198 91.0392C113.785 90.6834 113.726 90.0904 113.962 89.616C114.316 89.0823 114.493 88.4892 114.375 88.1334C114.257 87.7776 113.549 87.3625 111.955 87.2439C108.117 86.9474 106.169 88.4892 105.343 89.4974C104.989 89.9125 104.457 90.0311 103.985 89.7939C103.336 89.4974 103.099 88.6078 103.631 88.0148C104.811 86.6509 107.35 84.5753 112.191 84.9904C114.552 85.1683 116.028 85.9393 116.56 87.3032C117.032 88.5485 116.501 89.9125 115.969 90.8613C115.556 91.395 114.73 91.5136 114.198 91.0392Z" fill="#7A364B"/>
<path d="M111.129 88.5486C111.129 88.5486 118.567 103.255 117.623 109.363L110.302 109.601C110.302 109.601 107.587 100.29 108.472 97.7404C109.299 95.1311 111.129 88.5486 111.129 88.5486Z" fill="#401F16"/>
<path d="M106.819 168.487L106.465 172.935C106.465 172.935 111.601 173.172 111.66 173.113C111.719 172.994 111.955 168.487 111.955 168.487H106.819Z" fill="#2D231E"/>
<path d="M89.58 168.487L89.2258 172.935C89.2258 172.935 94.362 173.172 94.421 173.113C94.4801 172.994 94.7162 168.487 94.7162 168.487H89.58Z" fill="#2D231E"/>
<path d="M53.6269 62.0407C53.4497 62.1 47.8413 56.2884 42.587 62.2779C35.9749 69.8092 36.7423 80.5428 37.0375 86.7695C37.3917 86.3544 52.21 89.0823 57.1691 81.8475C62.1872 74.4941 58.4088 60.5581 53.6269 62.0407Z" fill="#2B150F"/>
<path d="M92.355 84.4569C92.355 84.4569 95.0116 83.2708 98.3767 83.3894C101.742 83.508 103.69 84.4569 104.044 85.1092C104.339 85.8208 103.867 89.6754 103.867 89.6754L91.7056 91.0987L92.355 84.4569Z" fill="#5D3E34"/>
<path d="M94.7756 164.574C95.6612 147.257 93.1226 148.977 93.2997 146.664C93.4178 144.352 94.4805 133.796 94.8937 131.483C95.1299 130.297 95.8383 130.06 96.1335 131.009C96.5467 132.313 97.9046 141.624 100.384 148.621C100.738 149.689 101.034 150.756 101.447 151.824C102.45 154.374 104.162 160.126 105.461 164.574H111.542C111.483 162.617 111.365 160.541 111.247 159.296C110.479 152.654 107.941 147.732 107.291 145.716C106.878 144.589 107.173 136.287 107.055 131.305C106.996 127.095 106.819 122.825 106.111 118.674C105.52 115.353 111.188 88.5486 111.188 88.5486C110.184 87.837 109.122 87.244 107.882 86.8882C105.993 86.3545 93.5949 85.4056 87.396 86.8882C86.5695 87.0661 86.3924 87.3033 85.6249 87.7184C85.6249 87.7184 85.5659 114.523 85.743 117.547C85.9201 120.038 85.9792 122.529 85.743 125.019C85.5659 127.095 84.9165 129.052 84.7394 131.127C83.8538 142.513 86.9237 153.543 88.7539 164.633H94.7756V164.574Z" fill="#E79D84"/>
<path d="M94.7756 164.218C95.6021 147.317 93.1226 148.977 93.2406 146.724C93.3587 144.411 94.4214 133.855 94.8346 131.542C95.0708 130.356 95.7792 130.119 96.0744 131.068C96.4876 132.373 97.8455 141.683 100.325 148.681C100.679 149.748 100.974 150.816 101.388 151.883C102.332 154.374 104.044 159.889 105.284 164.277H111.424C111.365 162.439 111.247 160.541 111.129 159.355C110.361 152.713 107.823 147.791 107.173 145.775C106.76 144.648 107.055 136.346 106.937 131.365C106.878 127.154 106.701 122.884 105.993 118.733C105.402 115.412 111.07 88.6079 111.07 88.6079C110.066 87.8963 109.003 87.3033 107.764 86.9475C107.055 86.7696 104.812 86.4731 101.978 86.2952C101.27 87.837 100.089 89.023 98.1997 89.3196C96.7828 89.4975 95.0708 89.201 93.89 88.3114C93.1816 87.7777 92.7683 87.0661 92.4141 86.2952C90.5249 86.4138 88.6948 86.651 87.2779 86.9475C86.4514 87.1254 85.6839 87.4812 84.9164 87.837C84.9164 87.837 85.4478 114.582 85.6249 117.607C85.802 120.097 85.861 122.588 85.6249 125.079C85.4478 127.154 84.7984 129.111 84.6213 131.187C83.7947 142.454 86.6875 153.306 88.5767 164.277H94.7756V164.218Z" fill="#EFEBE3"/>
<path d="M89.049 167.123H94.5985C95.8973 147.139 93.1226 149.155 93.2407 146.724C93.3587 144.411 94.4214 133.855 94.8347 131.542C95.0708 130.356 95.7792 130.119 96.0744 131.068C96.4877 132.373 97.8455 141.683 100.325 148.681C100.679 149.748 100.974 150.815 101.388 151.883C102.568 154.967 104.871 162.676 106.111 167.123H111.542C111.483 164.573 111.365 161.193 111.188 159.296C110.42 152.654 107.882 147.732 107.232 145.716C106.819 144.589 107.114 136.287 106.996 131.305C106.937 127.095 106.76 122.825 106.052 118.674C105.461 115.353 111.129 88.5486 111.129 88.5486C110.125 87.837 109.063 87.244 107.823 86.8882C107.114 86.7103 104.871 86.4137 102.037 86.2358C101.329 87.7777 100.148 88.9637 98.2588 89.2602C96.8419 89.4381 95.1298 89.1416 93.9491 88.2521C93.2407 87.7184 92.8274 87.0068 92.4732 86.2358C91.1153 86.2951 89.8165 86.473 88.6358 86.651C88.5768 86.651 88.5768 86.7103 88.5177 86.7103C87.5731 87.3626 86.8057 88.2521 85.9791 89.0823C85.9201 89.7939 85.743 90.5649 85.684 91.2765C85.5659 92.4625 85.5659 93.7079 85.5068 94.8939C85.5068 95.2497 85.3297 95.5462 85.1526 95.7834C85.3297 103.908 85.5659 115.59 85.684 117.488C85.8611 119.979 85.9201 122.469 85.684 124.96C85.5068 127.035 84.8574 128.992 84.6803 131.068C83.7948 142.691 86.9828 153.899 88.8129 165.226C88.931 165.7 88.99 166.353 89.049 167.123Z" fill="#EFEBE3"/>
<path d="M107.232 145.715C106.819 144.589 107.114 136.286 106.996 131.305C106.937 127.688 106.76 124.07 106.288 120.453C104.399 120.809 102.568 121.402 100.738 121.52C97.137 121.758 93.4767 121.461 89.8755 121.046C88.5176 120.868 87.1598 120.69 85.8019 120.453C85.861 121.935 85.8019 123.477 85.6839 124.96C85.5067 127.035 84.8573 128.992 84.6802 131.068C83.7947 142.691 88.5176 163.565 88.6357 168.547L95.3659 169.199C95.7201 147.91 93.1225 149.214 93.2406 146.664C93.3586 144.351 94.5984 133.499 95.0117 131.246C95.2478 130.06 95.484 130.356 95.7791 131.305C96.1924 132.61 97.8454 141.624 100.325 148.621C100.679 149.689 100.974 150.756 101.388 151.824C103.041 156.034 105.993 168.428 106.229 169.851L112.723 169.555C112.605 169.258 112.25 162.794 111.896 159.651C111.188 153.069 107.882 147.732 107.232 145.715Z" fill="#2B2B2B"/>
<path d="M94.4214 93.6486C94.3034 93.4707 94.2443 93.3521 94.1262 93.1742C94.0672 93.0556 94.0082 92.937 94.0082 92.7591C93.2407 91.5137 92.4142 90.387 91.2334 89.2603C90.584 88.6079 90.8792 87.7777 91.4696 87.3626C91.3515 87.0068 91.2925 86.651 91.2334 86.2952C89.8166 86.4138 88.4587 86.5917 87.337 86.8882C86.5105 87.0661 85.743 87.4219 84.9755 87.7777C84.9755 87.7777 85.2117 110.134 84.5033 116.895C84.3261 118.793 83.8539 120.453 83.7358 123.418C85.0346 125.079 91.5286 124.96 92.7684 124.663C92.8274 115.887 93.4768 106.458 94.5985 97.7404C94.7166 96.7323 94.8347 95.9614 95.0118 94.9532C95.0118 94.8939 94.5985 93.9451 94.4214 93.6486Z" fill="#8E6651"/>
<path d="M107.468 115.294C108.472 108.296 111.129 88.5487 111.129 88.5487C110.125 87.8371 109.062 87.244 107.822 86.8882C107.291 86.7103 105.874 86.5324 103.985 86.4138C104.044 86.8882 103.985 87.3626 103.808 87.7778C103.69 88.015 103.572 88.3115 103.454 88.5487C103.395 88.608 103.218 89.0824 103.336 88.8452C103.277 89.0231 103.159 89.201 103.041 89.3196C102.981 89.4382 102.922 89.4975 102.863 89.6161C102.745 89.794 102.627 89.9126 102.509 89.9719C102.037 90.5649 101.565 91.0987 101.033 91.6324C100.148 92.5219 98.8489 93.3521 98.1405 94.4196C98.0224 94.6568 97.8453 94.8347 97.6091 94.9533C97.5501 95.3091 97.491 95.6649 97.432 96.0207C96.1332 105.331 95.4838 115.472 95.4838 124.901C102.037 125.909 105.402 125.612 108.472 124.308C108.354 122.41 107.232 117.132 107.468 115.294Z" fill="#8E6651"/>
<path d="M95.0707 94.8939C95.0707 94.8939 92.8273 91.6916 89.2851 92.9962C89.2851 92.9962 87.573 86.7102 92.414 84.3975C92.355 84.4568 92.0008 88.5486 95.0707 94.8939Z" fill="#6C493B"/>
<path d="M97.6685 94.8939C99.9119 91.0986 104.163 89.0823 104.044 85.0498C104.044 85.0498 106.406 89.3788 103.808 94.2416C103.808 94.3009 102.923 92.2253 97.6685 94.8939Z" fill="#6C493B"/>
<path d="M85.6249 96.4951V97.5032L92.7093 97.6812V96.8509L85.6249 96.4951Z" fill="#BF9C8C"/>
<path d="M106.347 97.1474L106.229 98.1555L99.4396 97.7404L99.4986 96.9102L106.347 97.1474Z" fill="#BF9C8C"/>
<path d="M84.8571 111.736C84.8571 112.151 84.8571 112.566 84.7981 112.922L87.6318 111.143L87.3957 109.897L84.8571 111.736Z" fill="#BF9C8C"/>
<path d="M104.339 113.1C104.339 113.1 106.347 114.819 107.468 115.768C107.468 115.59 107.468 115.412 107.527 115.294C107.586 114.997 107.645 114.642 107.645 114.286L105.048 112.032L104.339 113.1Z" fill="#BF9C8C"/>
<path d="M98.3768 79.4161L97.8454 79.3568C96.7828 79.2382 95.7792 80.0684 95.6611 81.1358L94.7165 86.8288C94.5984 87.8962 95.7792 88.9043 96.9009 89.0229L97.4322 89.0822C98.4948 89.2009 99.8527 88.0741 99.9708 86.9474L100.148 81.5509C100.266 80.5428 99.4394 79.5347 98.3768 79.4161Z" fill="#E79D84"/>
<path d="M98.3765 79.4161L97.8452 79.3568C96.7825 79.2382 95.7789 80.0684 95.6608 81.1358L95.1295 84.3381C95.956 84.6939 96.7235 84.9311 97.6681 84.9904C98.6127 85.0497 99.3211 84.8718 100.03 84.516L100.089 81.5509C100.266 80.5428 99.4392 79.5347 98.3765 79.4161Z" fill="#E09178"/>
<path d="M88.0454 72.1221C87.1599 72.3 86.5695 73.4268 86.8057 74.6721C87.0418 75.9174 87.9274 76.7477 88.8719 76.5697C89.7575 76.3918 90.3479 75.2651 90.1117 74.0198C89.8756 72.7744 88.931 71.9442 88.0454 72.1221Z" fill="#E09178"/>
<path d="M98.3768 61.9222L95.3069 61.9815C91.2334 62.1001 88.0454 66.6664 88.1635 70.7582L88.2815 76.3325C88.3996 80.4244 91.7647 83.686 95.8382 83.5674L98.9081 83.5081C102.982 83.3895 106.229 80.0093 106.111 75.9174L105.993 70.3431C105.874 66.3105 102.45 61.8629 98.3768 61.9222Z" fill="#E79D84"/>
<path d="M107.114 61.5663C107.114 61.5663 107.705 60.9733 107.587 60.7954C107.174 60.6768 106.878 60.8547 106.642 60.9733C106.937 60.321 107.114 59.5501 106.996 58.8384C106.406 58.8384 105.875 59.3721 105.816 59.9652C105.934 59.4908 105.816 58.957 105.52 58.5419C105.461 58.4826 105.461 58.4233 105.402 58.4233C105.284 58.4233 105.225 58.4826 105.107 58.6012C104.93 58.8384 104.871 59.6094 104.871 59.728C104.93 59.7873 104.93 59.7873 104.871 59.7873C104.871 59.7873 104.871 59.7873 104.871 59.728C104.576 59.4908 103.1 58.6012 101.683 58.0675C99.0855 57.0594 96.2517 57.2373 96.3107 57.2966C96.4879 57.8896 96.724 58.4826 97.0192 59.0163C95.4252 57.5931 93.2408 56.8815 91.1155 57.1187C91.1745 57.6524 91.2336 58.1861 91.4697 58.6605C91.6468 59.1349 91.942 59.5501 92.4143 59.7873C90.7613 58.8977 88.9902 58.1861 87.16 58.4233C87.042 58.4233 86.9829 58.4826 86.9239 58.5419C86.8649 58.6012 86.8649 58.6605 86.8649 58.7791C86.8649 59.9059 87.16 61.0919 87.8094 62.0407C87.6323 61.8628 87.3962 61.6849 87.101 61.6256C86.6877 62.4558 86.6877 63.4047 86.8058 64.3535C87.101 66.607 87.5143 68.1488 87.9275 69.0976C87.8685 71.0546 88.2227 72.5964 88.2227 72.6557C88.2227 72.6557 88.2227 72.5371 88.2227 72.2999V72.6557C88.2817 72.6557 89.1082 67.4965 90.9384 66.1919C93.2999 64.5314 93.1228 66.7849 96.3107 66.2512C98.4361 65.8953 101.388 64.1756 103.218 67.6151C103.749 68.6232 103.572 70.6988 103.986 71.6476C104.34 72.4778 105.225 72.8337 106.229 73.0116L106.111 71.7662C106.111 71.7662 106.111 70.7581 106.111 69.5721C107.646 67.4372 107.646 63.5233 107.114 61.6849C106.996 61.5663 107.114 61.5663 107.114 61.5663Z" fill="#4C2518"/>
<path d="M107.055 71.6476C106.169 71.4104 105.166 72.1813 104.871 73.3674C104.575 74.5534 104.989 75.7394 105.874 75.9766C106.76 76.2139 107.763 75.4429 108.059 74.2569C108.413 73.0709 107.941 71.8848 107.055 71.6476Z" fill="#E79D84"/>
<path d="M50.6157 86.1173L50.8518 81.551C50.9109 80.4243 50.1434 79.4755 49.1398 79.4755C48.1361 79.4162 47.3096 80.3057 47.2506 81.3731L47.0144 86.058V86.1173H50.6157Z" fill="#E5A185"/>
<path d="M48.6679 82.5592C47.5462 82.6185 46.3064 82.3813 45.1257 81.8475C39.9895 79.4755 38.8087 72.1814 40.9341 67.4372C40.9341 67.4372 40.9341 67.3779 40.9931 67.3779C41.2293 66.8442 41.5244 66.3105 41.8787 65.8361C43.0594 64.1163 44.6534 62.7524 46.6016 62.1001C47.4871 61.8035 48.4317 61.6256 49.3763 61.6849C54.9848 61.6849 58.0547 67.7337 57.8186 72.7744C57.5234 77.5185 53.4499 82.3813 48.6679 82.5592Z" fill="#E5A185"/>
<path d="M53.6269 62.0407C53.4497 62.1 47.8413 56.2884 42.587 62.2779C35.9749 69.8092 36.7423 80.5428 37.0375 86.7695C37.0375 86.7695 38.7496 73.6045 45.6569 68.2081C47.6641 66.6662 51.3835 64.7686 51.3835 64.7686C51.3835 64.7686 51.7377 66.429 53.0365 68.1488C54.9847 71.4104 58.2317 73.3673 58.8811 77.2812C58.8811 77.5778 58.9402 77.815 58.9402 78.1115C61.0064 70.5801 57.6414 60.7954 53.6269 62.0407Z" fill="#3F1B14"/>
<path d="M58.9404 74.9686C58.5272 76.2139 57.5236 76.9848 56.638 76.6883C55.7525 76.3918 55.3982 75.1465 55.8115 73.9605C56.2248 72.7151 57.2284 71.9442 58.1139 72.2407C58.9995 72.5372 59.3537 73.7826 58.9404 74.9686Z" fill="#E5A185"/>
<path d="M43.8859 85.1685C43.8859 85.1685 38.8087 96.1393 35.8569 99.9939C32.2557 104.738 28.3002 114.167 28.3002 114.167L29.4219 114.819C29.4219 114.819 36.8605 105.924 38.1003 103.493C39.3401 101.061 44.1221 87.8963 44.1221 87.8963L43.8859 85.1685Z" fill="#D78C74"/>
<path d="M29.0678 112.744L25.7027 119.445L26.8835 123.774C27.4148 123.655 26.7064 120.097 26.7064 120.097C26.7064 120.097 27.769 123.477 28.0052 123.477C28.6546 123.299 27.71 120.156 27.71 120.156L29.6582 117.191C29.6582 117.191 30.0714 118.733 30.8389 119.682C31.3112 120.216 32.0197 119.801 32.0197 119.801C32.0197 119.801 30.957 118.081 30.7799 116.835C30.6028 115.887 29.8943 113.515 29.8943 113.515L29.0678 112.744Z" fill="#D78C74"/>
<path d="M44.0041 109.304C44.0041 109.304 31.2522 107.229 30.4257 110.49C29.5992 113.693 28.1823 125.256 29.7763 126.146C31.3112 126.976 43.5909 126.68 43.5909 126.68L44.0041 109.304Z" fill="#4C2518"/>
<path d="M41.5243 96.4949C44.5352 96.7914 47.6051 97.1473 50.5569 97.6217C50.9112 96.3763 51.4425 95.1903 51.7967 93.945C52.3281 92.2845 52.8003 90.5648 53.2726 88.9043C53.6269 87.7183 54.1582 86.4136 54.3943 85.1683C50.0256 84.6939 45.775 84.9904 44.3581 85.1683C43.9448 87.8962 42.8231 90.6241 41.5834 93.2333C41.6424 94.3008 41.6424 95.4275 41.5243 96.4949Z" fill="#E5A185"/>
<path d="M42.8822 92.5811C44.5942 88.4892 46.0702 84.8718 46.0702 84.8718H44.4762C43.9448 84.8718 43.4135 85.109 43.1774 85.5834C42.4689 86.7695 40.993 89.1416 39.7532 91.7508C40.5207 91.988 42.0557 92.3438 42.8822 92.5811Z" fill="#F2293A"/>
<path d="M37.0376 113.752C37.0376 113.752 34.499 131.542 36.9195 143.106C36.9195 143.106 36.2111 163.565 36.3292 169.851C36.3292 170.563 38.3955 169.851 38.3955 169.851C38.3955 169.851 46.3064 149.274 43.1774 139.133L48.1956 117.31L37.0376 113.752Z" fill="#D78C74"/>
<path d="M33.0819 111.558H31.665C31.3108 111.558 31.1337 111.202 31.2517 110.905C32.1373 108.948 34.912 102.959 37.4506 97.5032C44.0627 83.5079 43.8856 84.7533 44.7712 84.7533L46.3651 84.8126C45.1254 85.9393 39.1627 99.638 33.9674 111.083C33.7903 111.32 33.4951 111.558 33.0819 111.558Z" fill="#4C2518"/>
<path d="M46.3065 114.286C46.3065 114.286 46.6607 135.694 48.1366 140.378C48.1366 140.378 51.6788 155.619 55.162 170.207L57.5234 167.954C57.5234 167.954 59.2355 149.155 54.7487 138.955C54.7487 138.955 60.5343 118.2 58.7632 112.625C56.9921 107.051 46.3065 114.286 46.3065 114.286Z" fill="#E5A185"/>
<path d="M36.3291 162.201C37.687 162.676 39.1039 163.032 40.5207 163.269C42.587 156.331 45.0666 145.597 43.0593 139.133L48.0774 117.31L36.9785 113.752C36.9785 113.752 34.4399 131.542 36.8605 143.106C36.8605 143.106 36.5062 153.899 36.3291 162.201Z" fill="#2C393D"/>
<path d="M53.686 163.981C54.2763 163.921 54.8667 163.803 55.4571 163.684C56.2246 163.506 56.992 163.328 57.8186 163.091C57.9957 156.805 57.8186 145.893 54.8077 138.896C54.8077 138.896 60.5933 118.14 58.8222 112.566C57.0511 106.992 46.3654 114.226 46.3654 114.226C46.3654 114.226 46.7196 135.634 48.1956 140.319C48.1365 140.319 50.7341 151.527 53.686 163.981Z" fill="#2C393D"/>
<path d="M36.565 166.53L32.4915 175.011L30.1891 175.07L31.0746 176.197H36.6241L39.2807 171.749L37.9229 176.197H39.2217L41.9964 169.199L39.9892 163.862L36.565 166.53Z" fill="#D78C74"/>
<path d="M40.5799 165.522C36.9196 175.07 32.4918 175.011 32.4918 175.011L30.1303 175.07L31.0749 176.137H36.6244L39.281 171.69L37.9232 176.137H39.222L41.9967 169.14L40.5799 165.522Z" fill="#F2293A"/>
<path d="M54.1582 165.522L51.8558 176.79H58.645L57.5823 164.929L54.1582 165.522Z" fill="#E5A185"/>
<path d="M54.1582 165.522L51.8558 176.79H58.645L57.7004 165.404L57.3462 174.596L54.0401 174.655L54.1582 165.522Z" fill="#F2293A"/>
<path d="M59.7667 113.752C56.8739 105.568 52.9774 103.255 52.6823 100.943C52.3871 98.6298 55.8702 85.2869 55.8702 85.2869C54.9257 85.1683 53.922 85.0497 52.9774 84.9904C52.0329 86.295 49.4352 87.066 47.7822 87.066C46.3063 87.066 46.4244 85.6427 46.6015 84.8718C46.1882 84.8125 45.775 84.8125 45.775 84.8125C45.775 84.8125 39.458 91.4543 39.6942 93.2333C39.9303 94.9531 41.4062 96.0205 41.4062 96.0205C41.4062 96.0205 35.9749 110.965 36.152 116.183C36.3291 121.402 61.892 119.801 59.7667 113.752Z" fill="#F2293A"/>
<path d="M95.3661 177.146L96.0155 173.765L95.5432 170.385C95.5432 170.385 94.0673 170.089 93.9492 170.741C93.595 172.757 90.9974 171.038 90.9974 171.038C90.9974 171.038 90.407 168.665 88.5769 169.377C86.7467 170.089 84.4443 172.461 84.4443 172.461C84.4443 172.461 81.0202 173.825 80.4888 174.774C80.0165 175.663 80.1346 177.086 80.1346 177.086L95.3661 177.146Z" fill="#CFCFCF"/>
<path d="M79.5439 176.137L79.7211 177.027L96.2514 177.323L96.3694 175.604L79.5439 176.137Z" fill="#666666"/>
<path d="M88.3408 172.223C88.695 171.927 87.6914 170.622 87.2191 170.089C86.8649 170.326 86.5106 170.563 86.2155 170.86C86.6877 171.334 87.9866 172.52 88.3408 172.223Z" fill="#666666"/>
<path d="M84.2083 172.52C84.6216 172.994 85.5662 174.062 85.9794 173.884C86.3927 173.647 85.4481 172.342 85.0939 171.808C84.6806 172.223 84.3854 172.461 84.3854 172.461C84.3854 172.461 84.3264 172.461 84.2083 172.52Z" fill="#666666"/>
<path d="M84.4444 174.774C84.7396 174.596 84.3263 173.172 84.0902 172.579C83.854 172.698 83.4408 172.876 82.9685 173.054C83.2637 173.528 84.1492 175.011 84.4444 174.774Z" fill="#666666"/>
<path d="M87.3373 173.054C87.6915 172.817 86.6288 171.393 86.1565 170.86C85.7433 171.156 85.3891 171.453 85.0939 171.749C85.6842 172.164 87.0421 173.291 87.3373 173.054Z" fill="#666666"/>
<path d="M79.957 176.493C79.957 176.493 78.5992 173.706 82.4956 173.231C82.4956 173.231 83.6763 174.299 83.6173 176.315L79.957 176.493Z" fill="#666666"/>
<path d="M93.1224 176.137C93.1224 176.137 94.6573 171.571 95.661 171.63C95.779 171.63 96.6646 174.299 95.9561 176.019L93.1224 176.137Z" fill="#666666"/>
<path d="M112.605 177.146L113.254 173.765L112.782 170.385C112.782 170.385 111.306 170.089 111.188 170.741C110.833 172.757 108.236 171.038 108.236 171.038C108.236 171.038 107.646 168.665 105.815 169.377C103.985 170.089 101.683 172.461 101.683 172.461C101.683 172.461 98.2587 173.825 97.7273 174.774C97.255 175.663 97.3731 177.086 97.3731 177.086L112.605 177.146Z" fill="#CFCFCF"/>
<path d="M96.7829 176.137L96.96 177.027L113.372 177.383L113.608 175.604L96.7829 176.137Z" fill="#666666"/>
<path d="M105.579 172.223C105.933 171.927 104.93 170.622 104.457 170.089C104.103 170.326 103.749 170.563 103.454 170.86C103.926 171.334 105.166 172.52 105.579 172.223Z" fill="#666666"/>
<path d="M101.447 172.52C101.86 172.994 102.805 174.062 103.218 173.884C103.631 173.647 102.686 172.342 102.332 171.808C101.919 172.223 101.624 172.461 101.624 172.461C101.624 172.461 101.565 172.461 101.447 172.52Z" fill="#666666"/>
<path d="M101.683 174.774C101.978 174.596 101.565 173.172 101.329 172.579C101.092 172.698 100.679 172.876 100.207 173.054C100.502 173.528 101.388 175.011 101.683 174.774Z" fill="#666666"/>
<path d="M104.576 173.054C104.93 172.817 103.867 171.393 103.395 170.86C102.982 171.156 102.627 171.453 102.332 171.749C102.864 172.164 104.28 173.291 104.576 173.054Z" fill="#666666"/>
<path d="M97.1959 176.493C97.1959 176.493 95.838 173.706 99.7345 173.231C99.7345 173.231 100.915 174.299 100.856 176.315L97.1959 176.493Z" fill="#666666"/>
<path d="M110.361 176.137C110.361 176.137 111.896 171.571 112.9 171.63C113.018 171.63 113.904 174.299 113.195 176.019L110.361 176.137Z" fill="#666666"/>
<path d="M106.346 86.1172C106.346 86.1172 104.28 88.6672 101.978 97.9182C99.6753 107.169 107.94 118.437 107.94 118.437L109.003 112.566C109.003 112.566 104.93 103.908 106.228 98.2147C107.527 92.5218 110.243 87.7183 110.243 87.7183L106.346 86.1172Z" fill="#6C2E3F"/>
<path d="M107.114 101.002C107.114 101.002 113.077 101.18 115.734 105.39C118.213 109.304 117.505 109.66 117.505 109.66C117.505 109.66 109.417 114.938 104.989 104.619C102.687 99.223 107.114 101.002 107.114 101.002Z" fill="#4C2518"/>
<path d="M106.347 108.237C106.347 108.237 108.295 107.94 109.121 106.517C110.007 105.035 109.771 102.188 108.708 100.706C108.059 100.587 106.347 100.35 106.347 100.35C106.347 100.35 102.746 99.223 105.048 104.619C105.579 105.924 105.638 107.407 106.347 108.237Z" fill="#BF9C8C"/>
<path d="M107.115 101.002C107.115 101.002 107.41 99.045 105.934 98.9264C104.517 98.8671 103.454 98.2148 102.392 98.0369C101.329 97.859 101.624 98.8078 100.443 98.8078C99.2627 98.7485 98.7904 98.7485 98.7904 98.7485C98.7904 98.7485 98.0819 99.9345 99.0855 100.528C100.089 101.121 100.443 100.824 100.443 100.824C100.443 100.824 100.148 101.358 100.621 101.595C101.093 101.832 101.093 101.832 101.093 101.832C101.093 101.832 100.62 101.891 100.798 102.722C100.975 103.552 101.506 103.789 101.506 103.789C101.506 103.789 101.27 104.323 101.388 104.738C101.565 105.153 101.86 105.272 101.86 105.272C101.86 105.272 101.742 105.687 101.801 105.924C101.86 106.161 102.805 106.814 102.805 106.814H106.347C106.347 106.814 106.937 106.043 106.76 105.568C106.76 105.568 107.764 104.145 107.764 103.967C107.764 103.848 107.587 103.848 107.528 103.493C107.469 103.137 108.177 102.662 108.059 102.307C108 101.951 107.115 101.002 107.115 101.002Z" fill="#D78C74"/>
<path d="M107.115 101.002C107.115 101.002 107.41 99.045 105.934 98.9264C104.517 98.8671 103.454 98.2148 102.392 98.0369C101.329 97.859 101.624 98.8078 100.443 98.8078C99.2627 98.7485 98.7904 98.7485 98.7904 98.7485C98.7904 98.7485 98.0819 99.9345 99.0855 100.528C100.089 101.121 100.443 100.824 100.443 100.824C100.443 100.824 100.148 101.358 100.621 101.595C101.093 101.832 101.093 101.832 101.093 101.832C101.093 101.832 100.62 101.891 100.798 102.722C100.975 103.552 101.506 103.789 101.506 103.789C101.506 103.789 101.27 104.323 101.388 104.738C101.565 105.153 101.86 105.272 101.86 105.272C101.86 105.272 101.388 106.043 101.447 106.28C101.506 106.517 102.451 106.932 102.451 106.932L106.878 106.695C106.878 106.695 107.528 105.924 107.351 105.45C107.351 105.45 107.764 104.145 107.764 103.967C107.764 103.848 107.587 103.848 107.528 103.493C107.469 103.137 108.177 102.662 108.059 102.307C108 101.891 107.115 101.002 107.115 101.002Z" fill="#E5A185"/>
<path d="M116.147 113.337C116.147 113.337 111.365 124.07 117.091 124.011C122.818 123.952 124.53 114.641 122.7 113.337C120.929 112.032 116.147 113.337 116.147 113.337Z" fill="#6C2E3F"/>
<path d="M68.0908 116.421C68.6221 115.946 69.1534 116.48 69.6848 116.005C67.6185 113.752 61.8329 101.773 61.8329 101.773C61.8329 101.773 58.2907 92.1068 56.4605 88.3708L53.9219 87.1255C54.2762 88.015 58.4087 103.315 58.4087 103.315C58.4678 103.552 66.0245 115.353 68.0908 116.421Z" fill="#E5A185"/>
<path d="M59.5303 93.5301C58.6448 91.0394 57.2869 85.3464 55.87 85.3464L52.3278 87.1255C52.564 87.7185 54.0399 90.8022 55.6339 95.0126C56.5785 94.5975 58.5857 93.8859 59.5303 93.5301Z" fill="#F2293A"/>
<path d="M73.4045 111.736L71.7515 115.353L75.0575 118.555L78.7178 114.582L73.4045 111.736Z" fill="#BF9C8C"/>
<path d="M72.046 116.005C72.046 116.005 69.8026 114.819 69.2713 114.938C68.6809 115.116 66.5556 116.124 66.5556 116.183C66.5556 116.242 65.3158 121.224 65.6701 121.224C66.0243 121.283 66.6737 119.267 66.6737 119.267C66.6737 119.267 67.205 121.342 67.6183 121.224C68.0315 121.105 67.9135 120.394 67.9135 120.394C67.9135 120.394 68.858 120.868 69.0352 120.749C69.2123 120.631 68.799 119.919 68.799 119.919C68.799 119.919 71.1014 120.275 71.2786 120.156C71.5147 120.038 73.6991 118.437 73.6991 118.437L72.046 116.005Z" fill="#E5A185"/>
<path d="M72.1056 118.14C72.2827 118.377 72.5189 119.801 72.4599 120.216C72.4008 120.631 71.9285 120.216 71.9285 120.216C71.9285 120.216 71.7514 120.749 71.5743 120.809C71.3972 120.868 71.043 120.512 71.043 120.512C71.043 120.512 70.2755 121.461 70.1574 121.165C70.0394 120.927 69.8032 120.631 69.8032 120.631C69.8032 120.631 69.3309 121.165 69.2128 121.165C69.0357 121.165 68.5044 119.623 68.5044 119.623L72.1056 118.14Z" fill="#E5A185"/>
<path d="M50.8523 75.7988L45.0667 75.8581C44.7125 75.8581 44.4763 76.2139 44.6534 76.5698C45.3028 78.1116 46.5426 79.1197 48.0185 79.1197C49.4354 79.1197 50.6752 78.0523 51.3246 76.5104C51.3836 76.1546 51.1475 75.7988 50.8523 75.7988Z" fill="white"/>
<path d="M43.5316 71.1731C42.8822 71.1731 42.3508 71.8254 42.2918 72.6556C42.2327 73.4859 42.7641 74.1975 43.4135 74.2568C44.0629 74.2568 44.5942 73.6045 44.6533 72.7742C44.6533 71.944 44.181 71.2324 43.5316 71.1731Z" fill="#381911"/>
<path d="M52.5639 71.2917C51.9145 71.2917 51.3831 71.9441 51.3241 72.7743C51.2651 73.6045 51.7964 74.3161 52.4458 74.3754C53.0952 74.3754 53.6265 73.7231 53.6856 72.8929C53.7446 72.0034 53.2133 71.2917 52.5639 71.2917Z" fill="#381911"/>
<path d="M98.7311 77.1033H92.7094C92.3551 77.1033 92.119 77.5184 92.2371 77.8742C92.9455 79.5939 94.2443 80.78 95.7793 80.78C97.2552 80.78 98.554 79.5939 99.2034 77.8742C99.3215 77.5184 99.0853 77.1033 98.7311 77.1033Z" fill="white"/>
<path d="M91.2924 71.4698C90.702 71.4105 90.2297 72.1221 90.1707 73.0709C90.1117 74.0197 90.5249 74.85 91.1153 74.9093C91.7057 74.9686 92.178 74.2569 92.237 73.3081C92.296 72.3593 91.8828 71.5291 91.2924 71.4698Z" fill="#4C2518"/>
<path d="M100.089 71.3511C99.4984 71.2918 99.0261 72.0034 98.908 72.9523C98.7899 73.9011 99.2622 74.7906 99.8526 74.8499C100.443 74.9092 100.915 74.1976 101.033 73.2488C101.092 72.2999 100.679 71.4697 100.089 71.3511Z" fill="#4C2518"/>
<path d="M65.7886 165.7L67.3826 166.946L65.8476 169.436L63.9584 167.242L65.7886 165.7Z" fill="#3A3C41"/>
<path d="M49.0811 167.598L47.7823 169.911L49.9667 171.512L51.7378 168.903L49.0811 167.598Z" fill="#3A3C41"/>
<path d="M66.7334 166.471C66.6153 168.606 65.2574 168.725 65.2574 168.725C65.6117 169.673 67.0286 172.401 65.7297 175.011C65.4346 175.604 64.9032 176.908 66.084 177.62L66.6153 177.916C66.7924 178.035 66.9695 178.094 67.0876 178.094C68.3274 176.73 69.5081 175.307 70.8069 174.003C71.1021 173.054 71.4563 172.579 71.6925 172.342C71.8105 172.223 71.9286 172.046 72.0467 171.927L73.1093 169.733C73.2274 169.555 73.1093 169.318 72.8732 169.14C71.6334 168.31 67.796 166.056 66.7334 166.471Z" fill="#392F2B"/>
<path d="M66.9102 168.843C67.5596 168.191 67.7367 167.361 67.5596 166.471C67.5006 166.234 66.7922 166.175 66.7331 166.471C66.615 168.606 65.2572 168.725 65.2572 168.725C65.0211 168.903 65.3162 169.674 65.6114 169.555C66.0837 169.496 66.497 169.258 66.9102 168.843Z" fill="#7F7571"/>
<path d="M67.0874 169.97C66.8512 169.911 66.0247 169.97 65.7295 170.029C65.6705 171.097 65.8476 172.461 66.0247 174.181C67.0283 174.358 68.2091 174.536 68.4452 173.647C68.6223 172.995 68.5043 172.224 68.2681 171.393C68.091 170.978 67.7958 170.207 67.0874 169.97Z" fill="#7F7571"/>
<path d="M67.3827 178.391C70.0983 176.553 73.0502 171.275 73.1683 169.496C73.1683 169.377 72.9321 169.14 72.8731 169.081C72.696 168.962 72.4598 168.784 72.2237 168.725C72.1646 168.843 72.1056 169.021 72.0466 169.14C71.8104 170.207 71.3972 171.216 70.9839 172.224C70.4526 173.647 67.914 176.968 66.379 177.857L66.5561 177.976C66.8513 178.154 67.1465 178.272 67.3827 178.391Z" fill="#7F7571"/>
<path d="M59.8256 158.169C59.8256 158.169 65.257 163.981 66.2016 165.76C66.2016 165.76 65.6112 167.657 64.1353 168.31L56.5786 164.87L59.8256 158.169Z" fill="#202326"/>
<path d="M54.3947 148.74C54.5719 149.867 54.9851 150.934 55.3984 152.002C55.3984 152.061 55.4574 152.061 55.4574 152.12C55.5164 152.239 55.5755 152.357 55.5755 152.476C55.8707 153.306 56.1658 154.077 56.343 154.967C59.59 156.331 63.9587 157.754 65.2575 156.805C68.4455 154.314 68.3274 151.942 68.3274 151.942L54.3947 148.74Z" fill="#272C31"/>
<path d="M53.7453 148.681C53.7453 148.681 53.1549 152.12 52.9778 153.425C52.7417 155.322 53.0369 162.379 55.1622 163.921C57.2875 165.463 57.7598 165.404 57.7598 165.404C57.7598 165.404 61.0659 156.509 58.5863 155.026C56.3429 153.662 53.7453 148.681 53.7453 148.681Z" fill="#202326"/>
<path d="M50.4979 170.622C48.3726 170.563 48.1955 169.199 48.1955 169.199C47.3099 169.555 44.5942 171.038 41.9376 169.852C41.3472 169.614 40.0484 169.081 39.34 170.267L39.0448 170.8C38.9267 170.978 38.8677 171.156 38.8677 171.275C40.2255 172.52 41.7014 173.647 43.0593 174.892C44.0039 175.189 44.5352 175.545 44.7123 175.722C44.8304 175.841 45.0075 175.96 45.1846 176.019L47.369 177.027C47.5461 177.086 47.7822 177.027 47.9593 176.79C48.7859 175.604 50.9112 171.631 50.4979 170.622Z" fill="#392F2B"/>
<path d="M48.0774 170.86C48.7858 171.512 49.6123 171.63 50.4388 171.453C50.675 171.393 50.675 170.682 50.4388 170.622C48.3135 170.563 48.1364 169.199 48.1364 169.199C47.9593 168.962 47.1918 169.318 47.3099 169.555C47.428 170.029 47.6641 170.444 48.0774 170.86Z" fill="#7F7571"/>
<path d="M46.9559 171.097C47.0149 170.859 46.8968 170.029 46.8968 169.733C45.8342 169.733 44.4763 169.911 42.7643 170.148C42.5872 171.156 42.4691 172.342 43.3546 172.52C44.0631 172.698 44.7715 172.579 45.539 172.283C46.0703 172.105 46.7788 171.808 46.9559 171.097Z" fill="#7F7571"/>
<path d="M38.6317 171.571C40.5208 174.24 45.8341 177.086 47.6052 177.146C47.7233 177.146 47.9595 176.908 48.0185 176.849C48.1366 176.671 48.3137 176.434 48.3727 176.197C48.2546 176.137 48.0775 176.078 47.9595 176.078C46.8968 175.841 45.8932 175.485 44.8305 175.129C43.4136 174.655 39.9895 172.164 39.1039 170.682L38.9859 170.86C38.8678 171.037 38.7497 171.334 38.6317 171.571Z" fill="#7F7571"/>
<path d="M65.3164 156.746C65.3164 156.746 61.1838 159.711 56.697 163.091C56.697 163.091 53.9223 167.657 51.7379 170.326C51.0295 169.911 49.3764 169.199 48.3728 168.132C48.3728 168.132 50.4391 162.794 51.7379 160.185C53.0367 157.576 59.1765 153.306 61.3609 152.595C63.4862 151.883 65.3164 156.746 65.3164 156.746Z" fill="#272C31"/>
<path d="M54.6306 138.125L58.1728 135.694C50.2028 125.731 51.0884 116.598 50.439 116.48L48.0185 116.065C48.4317 116.717 45.4799 126.205 54.6306 138.125Z" fill="#E7A387"/>
<path d="M55.2802 129.704C55.8116 130.89 56.6381 133.618 58.9405 135.041L54.3947 139.43C52.5645 136.88 50.8525 134.152 50.4983 131.602C51.9151 130.712 53.0368 130.119 55.2802 129.704Z" fill="#7A344A"/>
<path d="M60.18 144.885C60.1209 145.301 60.298 145.656 60.5342 145.656C60.7703 145.656 61.0065 145.36 61.0655 144.945C61.1246 144.53 60.9474 144.174 60.7113 144.174C60.4161 144.174 60.239 144.47 60.18 144.885Z" fill="#582C1A"/>
<path d="M61.7743 143.344C61.6562 144.53 62.3647 145.597 63.4273 145.716C64.49 145.834 65.4936 145.004 65.6117 143.818C65.7298 142.632 65.0213 141.564 63.9587 141.446C62.896 141.327 61.8924 142.157 61.7743 143.344Z" fill="#E5A928"/>
<path d="M61.9512 143.344C61.8332 144.411 62.4826 145.36 63.4271 145.478C64.3717 145.597 65.2573 144.826 65.3754 143.759C65.4934 142.691 64.844 141.742 63.8994 141.624C62.9549 141.505 62.0693 142.276 61.9512 143.344Z" fill="#EEC140"/>
<path opacity="0.22" d="M64.2535 144.589C63.8993 144.411 63.8402 143.284 63.6041 142.869C63.3679 142.454 63.1318 142.157 62.7776 141.92C63.0727 141.683 63.486 141.564 63.8993 141.624C64.8438 141.742 65.5523 142.691 65.3752 143.759C65.3752 144.411 64.8438 144.945 64.2535 144.589Z" fill="white"/>
<path d="M64.7258 135.99L58.1727 134.982C56.2245 134.923 55.457 137.236 55.457 139.193C55.457 139.193 55.8113 139.608 55.8113 140.082C58.5269 139.904 66.1427 139.548 67.7957 139.37C67.9728 139.311 68.209 139.311 68.3861 139.252C68.3861 137.473 66.5559 136.05 64.7258 135.99Z" fill="#E5A185"/>
<path d="M63.0726 131.898L62.7775 131.839C62.128 131.661 61.4196 132.017 61.2425 132.729L60.416 135.694C60.2389 136.346 60.5931 137.058 61.3015 137.236L61.5967 137.295C62.2461 137.473 62.9546 137.117 63.1317 136.405L63.9582 133.44C64.1353 132.788 63.7811 132.076 63.0726 131.898Z" fill="#E5A185"/>
<path d="M54.1585 139.786C54.2175 139.43 54.2765 139.074 54.3356 138.659C54.5717 137.888 54.5127 136.88 55.8705 135.575C56.9922 134.508 58.9995 135.041 58.9995 135.041C59.6489 137.413 63.1911 138.006 64.0176 135.872C65.1983 135.99 66.3791 135.99 67.5598 136.524C69.2128 137.295 69.39 140.912 69.39 140.853C69.39 145.478 69.508 154.433 69.508 154.433C65.3164 156.746 54.985 155.263 51.4428 152.417C51.5018 152.476 53.6862 143.996 54.1585 139.786Z" fill="#7A344A"/>
<path d="M54.8076 123.655C54.5715 124.841 55.1028 125.909 55.9293 126.087C56.7559 126.265 57.7004 125.434 57.9366 124.308C58.1727 123.122 57.6414 122.054 56.8149 121.876C55.9293 121.698 55.0438 122.469 54.8076 123.655Z" fill="#E09178"/>
<path d="M60.4162 134.033L61.8922 134.626C65.8476 136.227 70.3935 134.27 71.9875 130.297L73.0501 127.688C74.6441 123.715 72.6959 119.148 68.7404 117.547L67.2645 116.954C64.9621 116.005 62.4235 116.302 60.4162 117.488C58.9994 118.318 57.8186 119.623 57.1692 121.283L56.1066 123.893C54.5126 127.866 56.4608 132.432 60.4162 134.033Z" fill="#E7A387"/>
<path d="M65.7297 129.348C66.0248 129.467 66.0839 129.941 65.8477 130.238C64.667 131.602 63.014 132.195 61.7152 131.661C60.3573 131.127 59.6489 129.585 59.7079 127.747C59.7079 127.332 60.0621 127.095 60.4164 127.213L65.7297 129.348Z" fill="white"/>
<path d="M71.2199 129.526C70.5705 130.534 70.5705 131.72 71.338 132.195C72.0464 132.669 73.1681 132.313 73.8766 131.305C74.526 130.297 74.526 129.111 73.7585 128.637C72.991 128.162 71.8693 128.518 71.2199 129.526Z" fill="#E7A387"/>
<path d="M68.9762 125.672C69.5075 125.85 69.7437 126.62 69.3894 127.451C69.0943 128.281 68.3858 128.815 67.8545 128.637C67.3232 128.459 67.087 127.688 67.4412 126.858C67.7364 126.027 68.4449 125.494 68.9762 125.672Z" fill="#422115"/>
<path d="M60.7112 122.825C61.2425 123.003 61.4786 123.774 61.1244 124.604C60.8292 125.435 60.1208 125.968 59.5895 125.79C59.0581 125.612 58.822 124.841 59.1762 124.011C59.4714 123.181 60.1798 122.647 60.7112 122.825Z" fill="#422115"/>
<path d="M57.5824 119.682C56.4607 117.073 59.8258 112.625 61.5379 111.083C61.715 111.321 62.0692 111.498 61.9511 111.795C62.0692 111.439 62.1283 110.431 62.3644 110.194C62.4825 110.075 62.8367 110.609 62.8957 110.787C62.7777 109.957 62.8957 109.423 63.1319 108.415C69.4488 109.601 74.0537 114.879 75.2344 117.547C75.2935 117.191 75.4115 116.836 75.6477 116.598C77.6549 118.911 76.8284 121.995 76.7103 122.469C76.7103 122.469 77.773 121.105 78.0091 121.461C78.2453 121.817 77.0646 122.825 77.0646 122.825C77.0646 122.825 77.9501 122.647 78.0682 123.122C78.1863 123.596 76.8284 123.596 76.8284 123.596C76.8284 123.596 75.6477 125.434 74.1127 126.205C74.1127 126.205 73.1681 127.866 72.5778 128.637C71.279 130.475 72.2235 127.688 72.4597 126.265C73.5224 120.097 64.4307 114.226 60.2391 117.844C57.6415 120.097 56.7559 122.173 56.6969 122.173L57.5824 119.682Z" fill="#4C2518"/>
<path opacity="0.24" d="M76.179 123.893C74.2898 123.655 73.1681 121.461 72.0464 120.275C70.0982 118.2 67.2054 116.361 64.3716 116.005C62.8957 115.828 61.4788 116.124 60.18 116.954C58.9402 117.785 58.2908 118.674 57.5824 119.86L56.874 122.232C56.874 122.173 57.8186 120.157 60.4162 117.903C64.6078 114.286 73.6994 120.157 72.6368 126.324C72.4006 127.688 71.397 130.534 72.7549 128.696C73.3452 127.866 74.2898 126.265 74.2898 126.265C75.3525 125.672 76.2971 124.604 76.7103 124.011C76.4742 123.952 76.2971 123.952 76.179 123.893Z" fill="#422115"/>
<path opacity="0.47" d="M62.0103 111.736C62.0103 111.795 62.0103 111.795 62.0103 111.854C61.9513 111.795 62.0103 111.736 62.0103 111.736Z" fill="white"/>
<path opacity="0.1" d="M74.2309 124.545C74.1718 124.604 74.1128 124.664 74.1128 124.782C74.1718 124.664 74.2309 124.604 74.2309 124.545Z" fill="#3D2405"/>
<path opacity="0.1" d="M62.0103 111.736C62.0103 111.795 62.0103 111.795 62.0103 111.854C61.9513 111.795 62.0103 111.736 62.0103 111.736Z" fill="#3D2405"/>
<path d="M85.6839 124.96L85.5068 124.011L84.149 124.13C83.3815 124.189 83.5586 124.782 83.3815 125.553C82.9092 127.629 80.961 132.254 77.1236 134.923C74.2898 136.939 70.4524 137.117 66.1428 136.524C66.3199 137.769 66.4379 139.015 66.6151 140.26C66.6151 140.319 66.6151 140.379 66.6741 140.438C71.6332 141.09 75.8838 140.438 79.426 137.947C86.2153 133.144 86.5695 124.782 86.6285 124.426L85.6839 124.96Z" fill="#E5A185"/>
<path d="M74.2897 135.397C74.6439 136.524 74.762 139.133 74.7029 140.675C72.1053 141.09 67.3233 141.624 64.2534 141.031L65.3751 135.99C69.2715 135.575 72.4005 135.575 74.2897 135.397Z" fill="#7A344A"/>
<path d="M50.5572 118.081C50.5572 118.081 52.3873 116.006 52.5054 114.642C52.5644 113.278 53.0958 112.981 52.8596 112.447C52.6235 111.914 51.856 112.625 51.856 112.803C51.856 112.981 51.9741 111.499 50.9704 111.736C49.9668 111.973 49.6126 111.558 49.0222 111.736C48.4909 111.914 48.2547 111.261 47.7234 111.676C47.1921 112.092 45.9523 113.159 45.9523 114.108C45.8933 116.361 46.6607 116.006 46.6607 116.006C46.8379 118.14 48.1957 118.496 48.1957 118.496L50.5572 118.081Z" fill="#E5A185"/>
<path d="M83.6767 125.672C83.6767 125.672 81.8465 123.596 81.7285 122.232C81.6694 120.868 81.1381 120.572 81.3742 120.038C81.6104 119.504 82.3779 120.216 82.3779 120.394C82.3779 120.572 82.2598 119.089 83.2634 119.326C84.267 119.564 84.6213 119.148 85.2116 119.326C85.743 119.504 85.9791 118.852 86.5104 119.267C87.0418 119.682 88.2815 120.75 88.2815 121.698C88.3406 123.952 87.5731 123.596 87.5731 123.596C87.396 125.731 86.0381 126.087 86.0381 126.087L83.6767 125.672Z" fill="#E5A185"/>
</g>
<path d="M40.4442 225V214.568H43.0202L44.7002 219.208C44.8069 219.517 44.9082 219.837 45.0042 220.168C45.1002 220.488 45.2015 220.808 45.3082 221.128H45.3722C45.4789 220.808 45.5749 220.488 45.6602 220.168C45.7562 219.837 45.8575 219.517 45.9642 219.208L47.6122 214.568H50.1722V225H48.0282V221.176C48.0282 220.92 48.0389 220.637 48.0602 220.328C48.0815 220.019 48.1082 219.709 48.1402 219.4C48.1722 219.08 48.2042 218.771 48.2362 218.472C48.2682 218.163 48.3002 217.88 48.3322 217.624H48.2682L47.4202 220.104L45.9322 224.088H44.6362L43.1482 220.104L42.3162 217.624H42.2522C42.2842 217.88 42.3162 218.163 42.3482 218.472C42.3802 218.771 42.4122 219.08 42.4442 219.4C42.4762 219.709 42.5029 220.019 42.5242 220.328C42.5455 220.637 42.5562 220.92 42.5562 221.176V225H40.4442ZM53.6397 228.104C53.3944 228.104 53.1864 228.088 53.0157 228.056C52.845 228.035 52.6797 227.997 52.5197 227.944L52.9357 226.152C53.0104 226.173 53.0957 226.195 53.1917 226.216C53.2877 226.237 53.3784 226.248 53.4637 226.248C53.8584 226.248 54.1624 226.152 54.3757 225.96C54.589 225.768 54.749 225.517 54.8557 225.208L54.9677 224.792L51.9117 217.064H54.2797L55.4157 220.472C55.533 220.835 55.6397 221.203 55.7357 221.576C55.8317 221.949 55.933 222.333 56.0397 222.728H56.1037C56.189 222.355 56.2744 221.981 56.3597 221.608C56.4557 221.224 56.5517 220.845 56.6477 220.472L57.6077 217.064H59.8637L57.1117 225.08C56.9197 225.581 56.717 226.019 56.5037 226.392C56.301 226.776 56.061 227.091 55.7837 227.336C55.517 227.592 55.2077 227.784 54.8557 227.912C54.5144 228.04 54.109 228.104 53.6397 228.104ZM65.1386 225V214.568H71.7146V216.552H67.4906V218.968H71.1066V220.952H67.4906V225H65.1386ZM75.0478 225.192C74.6851 225.192 74.3545 225.128 74.0558 225C73.7678 224.883 73.5225 224.717 73.3198 224.504C73.1171 224.28 72.9571 224.024 72.8398 223.736C72.7331 223.448 72.6798 223.133 72.6798 222.792C72.6798 221.96 73.0318 221.309 73.7358 220.84C74.4398 220.371 75.5758 220.056 77.1438 219.896C77.1225 219.544 77.0158 219.267 76.8238 219.064C76.6425 218.851 76.3331 218.744 75.8958 218.744C75.5545 218.744 75.2131 218.808 74.8718 218.936C74.5411 219.064 74.1838 219.24 73.7998 219.464L72.9518 217.912C73.4638 217.603 73.9971 217.352 74.5518 217.16C75.1171 216.968 75.7145 216.872 76.3438 216.872C77.3678 216.872 78.1465 217.165 78.6798 217.752C79.2238 218.328 79.4958 219.229 79.4958 220.456V225H77.5758L77.4158 224.184H77.3518C77.0105 224.483 76.6531 224.728 76.2798 224.92C75.9065 225.101 75.4958 225.192 75.0478 225.192ZM75.8478 223.368C76.1145 223.368 76.3438 223.309 76.5358 223.192C76.7278 223.075 76.9305 222.909 77.1438 222.696V221.304C76.3118 221.421 75.7358 221.592 75.4158 221.816C75.0958 222.04 74.9358 222.307 74.9358 222.616C74.9358 222.872 75.0158 223.064 75.1758 223.192C75.3465 223.309 75.5705 223.368 75.8478 223.368ZM81.8053 225V217.064H83.7253L83.8853 218.088H83.9493C84.28 217.757 84.632 217.475 85.0053 217.24C85.3786 216.995 85.8266 216.872 86.3493 216.872C86.9146 216.872 87.368 216.989 87.7093 217.224C88.0613 217.448 88.3386 217.773 88.5413 218.2C88.8933 217.837 89.2613 217.528 89.6453 217.272C90.04 217.005 90.504 216.872 91.0373 216.872C91.8906 216.872 92.5146 217.16 92.9093 217.736C93.3146 218.301 93.5173 219.08 93.5173 220.072V225H91.1653V220.376C91.1653 219.8 91.0853 219.405 90.9253 219.192C90.776 218.979 90.5306 218.872 90.1893 218.872C89.7946 218.872 89.3413 219.128 88.8293 219.64V225H86.4773V220.376C86.4773 219.8 86.3973 219.405 86.2373 219.192C86.088 218.979 85.8426 218.872 85.5013 218.872C85.096 218.872 84.648 219.128 84.1573 219.64V225H81.8053ZM95.8441 225V217.064H98.1961V225H95.8441ZM97.0121 215.896C96.6174 215.896 96.2921 215.784 96.0361 215.56C95.7801 215.325 95.6521 215.027 95.6521 214.664C95.6521 214.301 95.7801 214.008 96.0361 213.784C96.2921 213.56 96.6174 213.448 97.0121 213.448C97.4174 213.448 97.7427 213.56 97.9881 213.784C98.2441 214.008 98.3721 214.301 98.3721 214.664C98.3721 215.027 98.2441 215.325 97.9881 215.56C97.7427 215.784 97.4174 215.896 97.0121 215.896ZM102.746 225.192C102.341 225.192 101.999 225.128 101.722 225C101.445 224.872 101.221 224.696 101.05 224.472C100.89 224.237 100.773 223.96 100.698 223.64C100.623 223.309 100.586 222.941 100.586 222.536V213.784H102.938V222.632C102.938 222.877 102.981 223.048 103.066 223.144C103.162 223.24 103.258 223.288 103.354 223.288C103.407 223.288 103.45 223.288 103.482 223.288C103.525 223.288 103.578 223.277 103.642 223.256L103.93 225C103.802 225.053 103.637 225.096 103.434 225.128C103.242 225.171 103.013 225.192 102.746 225.192ZM106.364 228.104C106.119 228.104 105.911 228.088 105.74 228.056C105.569 228.035 105.404 227.997 105.244 227.944L105.66 226.152C105.735 226.173 105.82 226.195 105.916 226.216C106.012 226.237 106.103 226.248 106.188 226.248C106.583 226.248 106.887 226.152 107.1 225.96C107.313 225.768 107.473 225.517 107.58 225.208L107.692 224.792L104.636 217.064H107.004L108.14 220.472C108.257 220.835 108.364 221.203 108.46 221.576C108.556 221.949 108.657 222.333 108.764 222.728H108.828C108.913 222.355 108.999 221.981 109.084 221.608C109.18 221.224 109.276 220.845 109.372 220.472L110.332 217.064H112.588L109.836 225.08C109.644 225.581 109.441 226.019 109.228 226.392C109.025 226.776 108.785 227.091 108.508 227.336C108.241 227.592 107.932 227.784 107.58 227.912C107.239 228.04 106.833 228.104 106.364 228.104Z" fill="#0C345A"/>
<defs>
<filter id="filter0_ii" x="-2.5" y="-3" width="156" height="266" filterUnits="userSpaceOnUse" color-interpolation-filters="sRGB">
<feFlood flood-opacity="0" result="BackgroundImageFix"/>
<feBlend mode="normal" in="SourceGraphic" in2="BackgroundImageFix" result="shape"/>
<feColorMatrix in="SourceAlpha" type="matrix" values="0 0 0 0 0 0 0 0 0 0 0 0 0 0 0 0 0 0 127 0" result="hardAlpha"/>
<feMorphology radius="2" operator="erode" in="SourceAlpha" result="effect1_innerShadow"/>
<feOffset dx="-3" dy="-3"/>
<feGaussianBlur stdDeviation="1.5"/>
<feComposite in2="hardAlpha" operator="arithmetic" k2="-1" k3="1"/>
<feColorMatrix type="matrix" values="0 0 0 0 0 0 0 0 0 0 0 0 0 0 0 0 0 0 0.2 0"/>
<feBlend mode="normal" in2="shape" result="effect1_innerShadow"/>
<feColorMatrix in="SourceAlpha" type="matrix" values="0 0 0 0 0 0 0 0 0 0 0 0 0 0 0 0 0 0 127 0" result="hardAlpha"/>
<feMorphology radius="2" operator="erode" in="SourceAlpha" result="effect2_innerShadow"/>
<feOffset dx="3" dy="3"/>
<feGaussianBlur stdDeviation="2"/>
<feComposite in2="hardAlpha" operator="arithmetic" k2="-1" k3="1"/>
<feColorMatrix type="matrix" values="0 0 0 0 1 0 0 0 0 1 0 0 0 0 1 0 0 0 0.34 0"/>
<feBlend mode="normal" in2="effect1_innerShadow" result="effect2_innerShadow"/>
</filter>
<clipPath id="clip0">
<rect width="114" height="124" fill="white" transform="translate(18.5 57)"/>
</clipPath>
</defs>
</svg>
