<svg width="151" height="260" viewBox="0 0 151 260" fill="none" xmlns="http://www.w3.org/2000/svg">
<g filter="url(#filter0_ii)">
<rect x="0.5" width="150" height="260" rx="4" fill="white"/>
</g>
<g clip-path="url(#clip0)">
<path opacity="0.14" d="M75.5 169.415C35.3352 169.415 5.5 173.899 5.5 173.899C5.5 173.899 26.489 178.055 75.5 178.055C122.973 178.055 145.5 173.899 145.5 173.899C145.5 173.899 115.665 169.415 75.5 169.415Z" fill="#260F00"/>
<path d="M37.5334 129.167C37.4785 129.058 35.6104 126.98 35.995 123.753C36.3246 120.636 38.5224 117.574 42.4785 114.621C52.6983 107.129 51.5444 101.606 51.5444 101.552L52.1488 101.387C52.2038 101.606 53.4125 107.293 42.8631 115.113C39.0169 117.902 36.929 120.855 36.6543 123.808C36.3246 126.816 38.0279 128.73 38.0279 128.73L37.5334 129.167Z" fill="#393E41"/>
<path d="M64.4561 91.9818L64.4011 91.8177L54.2913 89.3022L54.1814 89.521C54.0715 89.7944 51.1594 95.755 51.544 101.278C49.7308 100.95 48.4671 98.6532 48.4671 98.5986L48.0825 97.8877L47.8627 98.6532C47.3682 100.567 46.5989 101.716 45.6649 101.934C44.2913 102.208 42.8077 100.458 42.8077 100.458L42.3132 100.841C42.3682 100.95 44.0165 102.919 45.7748 102.536C46.8187 102.317 47.6429 101.278 48.2473 99.5282C48.7967 100.348 50.0055 101.716 51.5989 101.934C51.5989 102.044 51.5989 102.098 51.6539 102.208C51.8187 102.208 52.2583 102.098 52.2583 101.989C53.8517 101.88 55.4451 100.458 56.9286 97.8877C57.2583 98.5986 57.8627 99.5829 58.8517 99.8563C59.7858 100.075 60.7748 99.6376 61.8187 98.5986C65.2253 94.9894 64.4561 92.0911 64.4561 91.9818ZM61.3242 98.0517C60.4451 98.9814 59.6209 99.3641 58.9616 99.1454C57.8077 98.8173 57.2583 96.958 57.2583 96.958L57.0385 96.1925L56.6539 96.9034C55.1704 99.6922 53.6869 101.169 52.1484 101.278C51.8187 96.4659 54.0715 91.1615 54.6209 90.0131L63.8517 92.3099C63.9616 92.9661 64.0715 95.2628 61.3242 98.0517Z" fill="#393E41"/>
<path d="M50.5 86.7319L49.4561 88.5365C49.4561 88.5365 49.8407 88.974 50.3901 88.7552C50.9945 88.5365 51.3242 89.0833 51.9286 88.8099L50.9945 86.7319H50.5Z" fill="#8359A0"/>
<path d="M60.7751 75.7406C58.5773 82.0292 50.7201 86.9508 50.7201 86.9508C50.7201 86.9508 43.4674 80.7715 42.7531 74.2094C41.9289 66.2802 46.2146 60.429 52.9729 60.9758C60.0059 61.5774 63.1377 68.741 60.7751 75.7406Z" fill="#7A344A"/>
<path d="M60.3352 75.6311L58.522 77.0529C58.522 77.0529 58.6868 77.6544 59.4011 77.7091C60.0604 77.7091 60.1703 78.42 60.9396 78.3653L60.8846 75.7952L60.3352 75.6311Z" fill="#80B9BD"/>
<path d="M75.4446 68.5222C70.6095 74.1 60.4446 75.9046 60.4446 75.9046C60.4446 75.9046 55.5545 66.6082 57.5875 59.4993C60.0051 51.0233 66.9281 46.7579 73.5765 50.1483C80.6095 53.7028 80.8292 62.3429 75.4446 68.5222Z" fill="#68A2A2"/>
<path d="M84.5113 119.543L80.1706 116.918C79.786 116.699 79.731 116.207 79.9508 115.879C88.5772 104.723 87.8629 88.0446 90.9398 86.8962L93.0277 87.115C93.1376 87.8806 95.775 106.2 85.4453 119.324C85.2255 119.652 84.786 119.707 84.5113 119.543Z" fill="#E6E6E6"/>
<path d="M56.2147 163.071L57.6983 164.165L56.2697 166.462L54.5114 164.438L56.2147 163.071Z" fill="#3A3C41"/>
<path d="M40.6653 164.766L39.4016 166.899L41.4895 168.376L43.0829 165.969L40.6653 164.766Z" fill="#3A3C41"/>
<path d="M57.0949 163.728C56.985 165.697 55.7213 165.806 55.7213 165.806C56.051 166.681 57.3696 169.196 56.1608 171.603C55.8861 172.149 55.3916 173.352 56.4905 174.009L56.985 174.282C57.1499 174.391 57.3147 174.446 57.4246 174.446C58.5784 173.188 59.6773 171.876 60.8861 170.673C61.1608 169.798 61.4905 169.361 61.7103 169.142C61.8202 169.032 61.9301 168.868 62.04 168.759L63.029 166.736C63.1389 166.572 63.029 166.353 62.8092 166.189C61.6554 165.423 58.029 163.4 57.0949 163.728Z" fill="#392F2B"/>
<path d="M57.2587 165.969C57.8631 165.368 58.0279 164.602 57.8631 163.782C57.8081 163.563 57.1488 163.509 57.0938 163.782C56.984 165.751 55.7202 165.86 55.7202 165.86C55.5004 166.024 55.7752 166.735 56.0499 166.626C56.4345 166.516 56.8741 166.352 57.2587 165.969Z" fill="#7F7571"/>
<path d="M57.4235 167.008C57.2038 166.954 56.4345 167.008 56.1598 167.063C56.1048 168.047 56.2697 169.305 56.4345 170.891C57.3686 171.055 58.4675 171.219 58.6873 170.399C58.8521 169.797 58.7422 169.086 58.5224 168.321C58.3576 167.883 58.0829 167.173 57.4235 167.008Z" fill="#7F7571"/>
<path d="M57.6433 174.719C60.1708 173.024 62.918 168.157 63.0279 166.516C63.0279 166.407 62.8081 166.188 62.7532 166.134C62.5884 166.024 62.3686 165.86 62.1488 165.805C62.0938 165.915 62.0389 166.079 61.984 166.188C61.7642 167.173 61.3796 168.102 60.9949 169.032C60.5004 170.344 58.1378 173.407 56.7092 174.227L56.8741 174.336C57.2037 174.5 57.4235 174.61 57.6433 174.719Z" fill="#7F7571"/>
<path d="M50.6652 156.126C50.6652 156.126 55.7201 161.485 56.5993 163.126C56.5993 163.126 56.0498 164.876 54.6762 165.477L47.6432 162.306L50.6652 156.126Z" fill="#202326"/>
<path d="M45.6099 147.377C45.7747 148.416 46.1593 149.4 46.5439 150.384C46.5439 150.439 46.5989 150.439 46.5989 150.494C46.6538 150.603 46.7088 150.712 46.7088 150.822C46.9835 151.587 47.2582 152.298 47.4231 153.119C50.445 154.376 54.511 155.689 55.7198 154.814C58.6868 152.517 58.5769 150.33 58.5769 150.33L45.6099 147.377Z" fill="#272C31"/>
<path d="M44.9503 147.322C44.9503 147.322 44.4008 150.494 44.236 151.697C44.0162 153.447 44.2909 159.954 46.2689 161.376C48.247 162.798 48.6865 162.743 48.6865 162.743C48.6865 162.743 51.7634 154.541 49.4558 153.173C47.3678 151.916 44.9503 147.322 44.9503 147.322Z" fill="#202326"/>
<path d="M41.9278 167.555C39.9498 167.501 39.785 166.243 39.785 166.243C38.9608 166.571 36.4333 167.938 33.9608 166.844C33.4114 166.626 32.2026 166.134 31.5432 167.227L31.2685 167.719C31.1586 167.883 31.1037 168.047 31.1037 168.157C32.3674 169.305 33.741 170.344 35.0048 171.493C35.8839 171.766 36.3784 172.094 36.5432 172.258C36.6531 172.368 36.818 172.477 36.9828 172.532L39.0158 173.461C39.1806 173.516 39.4004 173.461 39.5652 173.242C40.3894 172.149 42.3125 168.54 41.9278 167.555Z" fill="#392F2B"/>
<path d="M39.7302 167.774C40.3895 168.375 41.1587 168.485 41.928 168.321C42.1478 168.266 42.1478 167.61 41.928 167.555C39.95 167.501 39.7851 166.243 39.7851 166.243C39.6203 166.024 38.906 166.352 39.0159 166.571C39.1258 167.008 39.3456 167.446 39.7302 167.774Z" fill="#7F7571"/>
<path d="M38.6864 167.993C38.7414 167.774 38.6315 167.008 38.6315 166.735C37.6425 166.735 36.3787 166.899 34.7853 167.118C34.6205 168.047 34.5106 169.141 35.3348 169.305C35.9941 169.469 36.6535 169.36 37.3678 169.086C37.8073 168.977 38.5216 168.649 38.6864 167.993Z" fill="#7F7571"/>
<path d="M30.9392 168.43C32.6975 170.891 37.6425 173.516 39.2909 173.57C39.4007 173.57 39.6205 173.352 39.6755 173.297C39.7854 173.133 39.9502 172.914 40.0051 172.695C39.8953 172.641 39.7304 172.586 39.6205 172.586C38.6315 172.367 37.6975 172.039 36.7084 171.711C35.3898 171.274 32.2029 168.977 31.3788 167.61L31.2689 167.774C31.159 167.938 30.9942 168.211 30.9392 168.43Z" fill="#7F7571"/>
<path d="M55.7743 154.814C55.7743 154.814 51.9282 157.548 47.7523 160.665C47.7523 160.665 45.1699 164.876 43.137 167.337C42.4776 166.954 40.9392 166.298 40.0051 165.313C40.0051 165.313 41.9282 160.392 43.137 157.986C44.3458 155.579 50.06 151.642 52.093 150.986C54.0161 150.275 55.7743 154.814 55.7743 154.814Z" fill="#272C31"/>
<path d="M45.7745 137.588L49.0712 135.346C41.6536 126.159 42.4778 117.738 41.8734 117.629L39.6206 117.246C40.0602 117.847 37.3129 126.652 45.7745 137.588Z" fill="#E7A387"/>
<path d="M46.4339 129.878C46.9284 130.972 47.6977 133.487 49.8405 134.8L45.6097 138.846C43.9064 136.495 42.313 133.979 41.9834 131.628C43.302 130.808 44.346 130.206 46.4339 129.878Z" fill="#7A344A"/>
<path d="M50.9942 143.822C50.9393 144.205 51.1041 144.533 51.3239 144.533C51.5437 144.533 51.7635 144.26 51.8184 143.877C51.8734 143.494 51.7085 143.166 51.4887 143.166C51.214 143.166 50.9942 143.439 50.9942 143.822Z" fill="#582C1A"/>
<path d="M52.4779 142.4C52.3681 143.494 53.0274 144.478 54.0164 144.588C55.0054 144.697 55.9395 143.932 56.0494 142.838C56.1593 141.744 55.4999 140.76 54.5109 140.651C53.5219 140.541 52.5878 141.307 52.4779 142.4Z" fill="#E5A928"/>
<path d="M52.6424 142.401C52.5325 143.385 53.1369 144.26 54.0161 144.369C54.8952 144.479 55.7194 143.768 55.8292 142.783C55.9391 141.799 55.3347 140.924 54.4556 140.815C53.5765 140.76 52.7523 141.471 52.6424 142.401Z" fill="#EEC140"/>
<path opacity="0.22" d="M54.7861 143.549C54.4564 143.385 54.4015 142.346 54.1817 141.963C53.9619 141.58 53.7421 141.307 53.4125 141.088C53.6872 140.869 54.0718 140.76 54.4564 140.815C55.3356 140.924 55.9949 141.799 55.8301 142.783C55.7751 143.385 55.3356 143.877 54.7861 143.549Z" fill="white"/>
<path d="M55.2249 135.62L49.126 134.69C47.3128 134.635 46.5985 136.768 46.5985 138.573C46.5985 138.573 46.9282 138.955 46.9282 139.393C49.4557 139.229 56.5436 138.901 58.0821 138.737C58.2469 138.682 58.4667 138.682 58.6315 138.627C58.6315 136.987 56.8733 135.674 55.2249 135.62Z" fill="#E5A185"/>
<path d="M53.6871 131.846L53.4124 131.792C52.808 131.628 52.1486 131.956 51.9838 132.612L51.2146 135.346C51.0497 135.948 51.3794 136.604 52.0387 136.768L52.3135 136.823C52.9178 136.987 53.5772 136.659 53.742 136.003L54.5113 133.268C54.6761 132.667 54.2915 132.011 53.6871 131.846Z" fill="#E5A185"/>
<path d="M45.3349 139.119C45.3899 138.791 45.4448 138.463 45.4997 138.08C45.7195 137.369 45.6646 136.44 46.9283 135.237C47.9723 134.252 49.8404 134.745 49.8404 134.745C50.4448 136.932 53.7415 137.479 54.5107 135.51C55.6096 135.62 56.7085 135.62 57.8074 136.112C59.3459 136.823 59.5657 140.158 59.5107 140.104C59.5107 144.369 59.6206 152.626 59.6206 152.626C55.7195 154.759 46.1041 153.392 42.8074 150.767C42.8624 150.822 44.9503 143.002 45.3349 139.119Z" fill="#7A344A"/>
<path d="M45.9399 124.245C45.7201 125.339 46.2146 126.323 46.9839 126.488C47.808 126.652 48.6322 125.886 48.852 124.847C49.0718 123.753 48.5773 122.769 47.808 122.605C46.9839 122.441 46.1597 123.206 45.9399 124.245Z" fill="#E09178"/>
<path d="M51.2145 133.815L52.5881 134.362C56.2694 135.839 60.5002 134.034 61.9837 130.37L62.9727 127.964C64.4562 124.3 62.6431 120.089 58.9617 118.613L57.5881 118.066C55.4453 117.191 53.0826 117.465 51.2145 118.558C49.8958 119.324 48.7969 120.527 48.1925 122.058L47.2035 124.464C45.72 128.128 47.4782 132.339 51.2145 133.815Z" fill="#E7A387"/>
<path d="M56.1594 129.495C56.4342 129.604 56.4891 130.042 56.2693 130.315C55.1704 131.573 53.632 132.12 52.4232 131.628C51.1594 131.136 50.5001 129.714 50.555 128.019C50.555 127.636 50.8847 127.417 51.2144 127.526L56.1594 129.495Z" fill="white"/>
<path d="M61.2147 129.659C60.6103 130.589 60.6103 131.683 61.3246 132.12C61.9839 132.558 63.0279 132.229 63.6872 131.3C64.2916 130.37 64.2916 129.276 63.5773 128.839C62.918 128.402 61.874 128.784 61.2147 129.659Z" fill="#E7A387"/>
<path d="M59.1814 126.105C59.6759 126.269 59.8956 126.979 59.566 127.745C59.2913 128.511 58.6319 129.003 58.1374 128.839C57.6429 128.675 57.4231 127.964 57.7528 127.198C58.0275 126.433 58.6869 125.94 59.1814 126.105Z" fill="#422115"/>
<path d="M51.4891 123.48C51.9836 123.644 52.2034 124.355 51.8737 125.12C51.599 125.886 50.9397 126.378 50.4452 126.214C49.9506 126.05 49.7309 125.339 50.0605 124.573C50.3353 123.808 50.9946 123.316 51.4891 123.48Z" fill="#422115"/>
<path d="M48.5768 120.636C47.5328 118.23 50.6647 114.129 52.2581 112.707C52.4229 112.926 52.7526 113.09 52.6427 113.363C52.7526 113.035 52.8075 112.105 53.0273 111.887C53.1372 111.777 53.4669 112.269 53.5218 112.433C53.4119 111.668 53.5218 111.176 53.7416 110.246C59.6207 111.34 63.9064 116.207 65.0053 118.667C65.0603 118.339 65.1702 118.011 65.39 117.793C67.2581 119.925 66.4889 122.769 66.379 123.206C66.379 123.206 67.368 121.949 67.5878 122.277C67.8075 122.605 66.7086 123.534 66.7086 123.534C66.7086 123.534 67.5328 123.37 67.6427 123.808C67.7526 124.245 66.4889 124.245 66.4889 124.245C66.4889 124.245 65.39 125.94 63.9614 126.651C63.9614 126.651 63.0823 128.183 62.5328 128.893C61.324 130.589 62.2031 128.018 62.4229 126.706C63.4119 121.019 54.9504 115.605 51.0493 118.941C48.6317 121.019 47.8075 122.933 47.7526 122.933L48.5768 120.636Z" fill="#4C2518"/>
<path opacity="0.24" d="M65.8298 124.519C64.0716 124.3 63.0276 122.277 61.9837 121.183C60.1705 119.269 57.4782 117.574 54.8408 117.246C53.4672 117.082 52.1485 117.355 50.9397 118.121C49.7859 118.886 49.1815 119.707 48.5221 120.8L47.8628 122.988C47.8628 122.933 48.7419 121.074 51.1595 118.996C55.0606 115.66 63.5221 121.074 62.5331 126.761C62.3133 128.019 61.3793 130.643 62.643 128.948C63.1925 128.183 64.0716 126.706 64.0716 126.706C65.0606 126.159 65.9397 125.175 66.3243 124.628C66.1595 124.519 65.9947 124.519 65.8298 124.519Z" fill="#422115"/>
<path opacity="0.1" d="M64.0712 125.066C64.0163 125.12 63.9613 125.175 63.9613 125.284C64.0163 125.23 64.0712 125.12 64.0712 125.066Z" fill="#3D2405"/>
<path d="M83.1371 120.691L80.28 118.285L72.0382 124.027L71.6536 128.839C72.4778 128.893 73.4119 127.253 73.4668 127.636C73.4668 127.964 73.247 128.347 73.302 128.62C73.4119 129.057 73.7965 128.675 73.9064 128.62C74.1262 128.565 74.4558 128.456 74.7305 128.347C75.2251 128.237 75.4998 127.909 75.8294 127.69C75.9943 127.581 76.1591 127.526 76.3789 127.417C76.269 128.073 76.269 128.729 76.7635 128.675C77.313 128.62 77.5327 127.745 77.5877 127.089C77.6426 127.089 77.6976 127.089 77.6976 127.034C77.8075 127.69 78.0822 128.675 78.6866 128.784C79.291 128.893 78.9613 127.581 78.6866 126.706C78.7415 126.706 78.7415 126.651 78.7965 126.651C79.1811 127.253 79.7305 127.964 80.1152 127.745C80.4448 127.581 80.0602 126.815 79.5108 125.995C79.8954 125.503 80.5547 125.23 81.1591 124.355C82.5327 122.714 83.1921 120.472 83.1371 120.691Z" fill="#E5A185"/>
<path d="M74.7305 125.448L74.5657 124.573L73.3019 124.683C72.5877 124.738 72.7525 125.284 72.5877 125.995C72.1481 127.909 70.3349 132.175 66.7635 134.635C64.1261 136.495 60.5547 136.659 56.5437 136.112C56.7085 137.26 56.8184 138.409 56.9833 139.557C56.9833 139.612 56.9833 139.666 57.0382 139.721C61.6536 140.323 65.6096 139.721 68.9063 137.424C75.225 132.995 75.5547 125.284 75.6096 124.956L74.7305 125.448Z" fill="#E5A185"/>
<path d="M64.0716 135.073C64.4013 136.112 64.5112 138.518 64.4563 139.94C62.0387 140.322 57.5881 140.815 54.731 140.268L55.7749 135.62C59.4013 135.291 62.3134 135.237 64.0716 135.073Z" fill="#7A344A"/>
<path d="M79.9505 118.886L80.8846 117.082L84.1264 118.777L83.0275 121.019L79.9505 118.886Z" fill="#E5A185"/>
<path d="M80.9941 116.043L80.115 117.847L83.9062 120.035L84.6754 118.339L80.9941 116.043Z" fill="#E6E6E6"/>
<path d="M47.8636 98.5439L46.9295 100.622C46.9295 100.622 47.3691 101.114 47.9735 100.786C48.5779 100.513 49.0174 101.059 49.6768 100.677L48.468 98.4346L47.8636 98.5439Z" fill="#F2293A"/>
<path d="M58.1377 85.4197C56.3795 92.5287 48.1377 98.7627 48.1377 98.7627C48.1377 98.7627 39.5663 92.638 38.1378 85.4197C36.4345 76.7249 40.6652 69.8347 48.1377 69.8347C55.9949 69.8347 60.1707 77.4905 58.1377 85.4197Z" fill="#F2293A"/>
<path d="M42.2582 100.567L42.0385 102.59C42.0385 102.59 42.533 102.864 42.9725 102.426C43.4121 101.989 43.9615 102.372 44.4011 101.88L42.7527 100.294L42.2582 100.567Z" fill="#FFD880"/>
<path d="M47.4232 86.404C47.8628 93.0208 42.5331 100.622 42.5331 100.622C42.5331 100.622 33.4672 97.7783 30.2254 91.9271C26.3793 84.9822 28.0276 77.8733 34.5111 75.7953C41.2144 73.6626 46.9287 79.0763 47.4232 86.404Z" fill="#FFD880"/>
<path d="M56.8186 96.7939L55.1702 98.0517C55.1702 98.0517 55.3351 98.5985 55.9395 98.6532C56.5439 98.6532 56.6537 99.3094 57.3131 99.2547V96.958L56.8186 96.7939Z" fill="#F27B35"/>
<path d="M70.5548 90.5599C66.1043 95.5361 56.9285 97.0673 56.9285 97.0673C56.9285 97.0673 52.6977 88.5366 54.5658 82.2479C56.7636 74.5921 63.1373 70.8736 69.1263 73.9906C75.3351 77.2169 75.4999 85.0368 70.5548 90.5599Z" fill="#F27B35"/>
<path d="M42.038 119.16C42.038 119.16 43.7413 117.246 43.8512 115.988C43.9062 114.73 44.4007 114.457 44.1809 113.965C43.9611 113.473 43.2468 114.129 43.2468 114.293C43.2468 114.457 43.3567 113.09 42.4226 113.309C41.4886 113.527 41.1589 113.145 40.6095 113.309C40.115 113.473 39.8952 112.871 39.4007 113.254C38.9062 113.637 37.7523 114.621 37.7523 115.496C37.6974 117.574 38.4117 117.246 38.4117 117.246C38.5765 119.214 39.8402 119.543 39.8402 119.543L42.038 119.16Z" fill="#E5A185"/>
<path d="M42.0385 100.512L42.9176 100.13L43.0275 100.567L42.2582 100.895L42.0385 100.512Z" fill="#393E41"/>
<path d="M47.5329 98.2705H48.7417L48.6318 98.8173L47.7527 98.872L47.5329 98.2705Z" fill="#393E41"/>
<path d="M56.5437 96.958L56.6536 96.4658L57.5877 96.9033L57.3129 97.3408L56.5437 96.958Z" fill="#393E41"/>
<path d="M52.1484 101.442L51.544 101.606C51.544 101.661 52.6978 107.184 42.4781 114.676C42.4231 114.73 42.3682 114.73 42.3132 114.785C42.3132 115.113 42.4781 115.277 42.6978 115.277C42.7528 115.223 42.8077 115.223 42.8627 115.168C53.4121 107.348 52.2033 101.661 52.1484 101.442Z" fill="#393E41"/>
<path d="M120.94 106.91C120.94 106.91 122.369 109.863 121.215 112.707C119.951 115.824 114.347 114.785 114.511 114.676C117.698 112.598 120.94 106.91 120.94 106.91Z" fill="#E6E6E6"/>
<path d="M123.028 66.991C123.028 66.991 114.621 64.0927 109.401 78.584C104.181 93.0753 107.973 100.512 116.654 101.825C131.159 103.958 136.929 99.364 136.929 99.364C129.511 91.6536 137.478 69.8893 123.028 66.991Z" fill="#582C1A"/>
<path d="M114.84 86.6772C114.84 86.6772 111.049 86.021 104.95 85.5288C98.8512 85.0367 94.1259 87.06 94.1259 87.06L111.708 90.2317L114.84 86.6772Z" fill="#E09178"/>
<path d="M108.248 85.8025C108.028 87.0055 107.698 88.1539 107.533 89.357C107.533 89.4117 107.533 89.4116 107.533 89.4663L111.709 90.2319L114.841 86.6774C114.841 86.6774 112.423 86.24 108.248 85.8025Z" fill="#F2293A"/>
<path d="M109.016 89.6304C109.346 88.482 109.566 87.1696 109.95 86.0212C109.675 85.5837 108.632 85.5291 108.302 85.8572C108.082 87.0602 107.752 88.2086 107.588 89.4116C107.588 89.4663 107.588 89.4663 107.588 89.521L108.632 89.7397C108.632 89.5757 109.016 89.6851 109.016 89.6304Z" fill="#FF6C7E"/>
<path d="M99.7855 79.5137H99.291C98.2471 79.5137 97.3679 80.3339 97.3679 81.3729L96.9284 86.8414C96.9284 87.8804 98.1372 88.7553 99.1811 88.7553H99.6756C100.72 88.7553 101.928 87.6069 101.928 86.5679L101.654 81.4823C101.654 80.3886 100.829 79.5137 99.7855 79.5137Z" fill="#E79D84"/>
<path d="M101.818 84.2165L101.653 81.4276C101.653 80.3886 100.829 79.5137 99.7853 79.5137H99.2908C98.2468 79.5137 97.3677 80.3339 97.3677 81.3729L97.1479 84.4352C97.9172 84.7087 98.7413 84.818 99.6204 84.8727" fill="#E09178"/>
<path d="M91.3793 71.9674C90.5002 72.0221 89.8408 73.0064 89.8958 74.2094C89.9507 75.4125 90.7749 76.2874 91.654 76.2328C92.5331 76.1781 93.1925 75.1938 93.1375 73.9907C93.0826 72.8423 92.2584 71.9127 91.3793 71.9674Z" fill="#E09178"/>
<path d="M102.369 63.2179L99.4565 62.9445C95.6104 62.5617 92.0389 66.5536 91.6543 70.3815L91.1598 75.6859C90.7752 79.5138 93.6324 82.9589 97.5334 83.3417L100.446 83.6151C104.292 83.9979 107.753 81.1543 108.138 77.2717L108.632 71.9674C109.017 68.1941 106.27 63.6007 102.369 63.2179Z" fill="#E7A387"/>
<path d="M111.27 63.1632C110.885 62.9992 110.555 63.1086 110.336 63.2179C110.665 62.6164 110.995 61.9602 110.94 61.1946C110.391 61.1399 109.841 61.5774 109.731 62.1243C109.896 61.6868 109.841 61.1399 109.566 60.7571C109.511 60.7025 109.511 60.6478 109.456 60.6478C109.347 60.5931 109.237 60.7025 109.182 60.7571C109.017 60.9759 108.852 61.6868 108.797 61.7961C108.852 61.8508 108.852 61.8508 108.797 61.8508C108.797 61.8508 108.797 61.8508 108.797 61.7961C108.522 61.5774 107.204 60.5384 105.94 59.8822C103.632 58.6245 100.885 58.4604 100.885 58.5698C100.94 59.1713 101.16 59.7181 101.38 60.265C100.006 58.7885 98.0279 57.8589 95.995 57.8042C95.995 58.2964 95.995 58.7885 96.1048 59.2807C96.2147 59.7728 96.4345 60.1556 96.8741 60.429C95.3906 59.4447 93.8521 58.5698 92.0389 58.5698C91.929 58.5698 91.8741 58.5698 91.8191 58.6245C91.7642 58.6791 91.7642 58.7338 91.7642 58.8432C91.5993 59.9369 91.7642 61.0306 92.2587 62.0149C92.0939 61.7961 91.8741 61.6321 91.6543 61.5774C91.2147 62.343 91.0499 63.2179 91.0499 64.0929C91.0499 66.2802 91.3246 67.7567 91.5444 68.6864C91.2697 70.5456 91.4345 72.0221 91.4345 72.0768C91.4345 72.0768 91.4345 71.9674 91.4895 71.7487L91.4345 72.0768C91.4895 72.0768 92.8081 67.3193 94.7312 66.2802C97.1488 65.0225 96.7092 67.1005 99.7862 66.9365C101.819 66.8271 104.841 65.5694 106.215 68.9598C106.599 69.9988 106.16 71.858 106.489 72.8424C106.709 73.6626 107.478 74.1001 108.358 74.3735L108.467 73.2251C108.467 73.2251 108.687 72.4596 108.852 71.3659C110.226 69.4519 110.995 65.624 110.72 63.8741C110.72 63.7648 110.72 63.7648 110.72 63.7648C110.72 63.7648 111.325 63.382 111.27 63.1632Z" fill="#582C1A"/>
<path d="M109.565 73.3345C108.741 73.0064 107.752 73.6626 107.313 74.7563C106.873 75.85 107.203 76.9983 108.027 77.3265C108.851 77.6546 109.84 76.9983 110.28 75.9047C110.664 74.811 110.39 73.6626 109.565 73.3345Z" fill="#E79D84"/>
<path d="M101.929 77.3809L96.1045 76.8341C95.7748 76.7794 95.5001 77.1622 95.61 77.545C96.1045 79.2402 97.3133 80.4979 98.7419 80.662C100.17 80.7714 101.544 79.787 102.313 78.2012C102.478 77.8184 102.258 77.3809 101.929 77.3809Z" fill="white"/>
<path d="M95.2249 71.3111C94.6755 71.2018 94.126 71.8033 94.0161 72.7329C93.9062 73.6079 94.2359 74.4828 94.7853 74.5922C95.3348 74.7016 95.8842 74.1 95.9941 73.1704C96.104 72.2955 95.7744 71.4752 95.2249 71.3111Z" fill="#4C2518"/>
<path d="M103.742 72.0221C103.193 71.9127 102.643 72.5142 102.478 73.4439C102.314 74.3735 102.643 75.1938 103.193 75.3578C103.742 75.4672 104.292 74.8657 104.456 73.936C104.621 73.0064 104.292 72.1314 103.742 72.0221Z" fill="#4C2518"/>
<path d="M106.16 156.564L110.281 160.61L107.588 163.126L102.863 158.642L106.16 156.564Z" fill="#474950"/>
<path opacity="0.09" d="M105.94 161.595L102.808 158.642L106.16 156.618L108.632 159.025" fill="black"/>
<path d="M86.434 122.222L93.5768 124.027C92.9175 127.472 92.5329 129.55 93.4669 141.362C93.4669 141.362 101.874 150.111 108.467 156.509C108.852 156.892 108.852 157.493 108.467 157.822C107.093 159.079 106.049 160.118 104.786 161.321C104.236 161.814 103.412 161.814 102.917 161.267C100.885 159.243 97.8625 155.853 94.6208 152.627C86.434 144.424 86.5439 142.619 86.3241 140.651C85.1153 129.44 86.2691 122.605 86.434 122.222Z" fill="#2E2C2C"/>
<path d="M106.379 119.051C106.104 122.988 105.719 125.23 105.719 125.23L86.2139 126.324L86.159 119.105L106.379 119.051Z" fill="#2E2C2C"/>
<path d="M84.0165 162.524L82.4231 166.954L85.8297 168.868L87.7528 163.946L84.0165 162.524Z" fill="#474950"/>
<path d="M97.1486 125.394C96.8189 126.214 94.1815 129.003 82.5881 162.743C82.4782 163.126 82.698 163.563 83.0826 163.727L88.6321 165.313C89.0716 165.532 89.5112 165.204 89.676 164.766C99.3464 141.471 100.39 135.073 105.775 125.23C103.522 124.081 100.225 124.027 97.1486 125.394Z" fill="#393636"/>
<path d="M73.907 166.735C75.6103 168.102 81.929 165.587 83.0828 165.149C83.0828 165.149 83.7971 166.243 86.874 166.243C88.3575 167.883 86.2147 172.532 85.5004 174.008C85.3356 174.336 85.0059 174.445 84.6762 174.336L81.2147 173.188C80.94 173.078 80.8301 172.86 80.885 172.586L80.9949 172.203C80.9949 172.203 80.9949 172.203 77.0938 171.985C73.1927 171.766 69.896 168.54 69.896 168.54C69.896 168.54 69.896 168.54 70.4454 167.172C70.885 165.915 72.2037 165.368 73.907 166.735Z" fill="#412724"/>
<path d="M102.862 170.836C104.895 170.235 106.324 163.345 106.544 162.142C106.544 162.142 108.082 162.579 109.785 160.118C111.928 159.845 114.346 164.11 115.115 165.477C115.28 165.751 115.225 166.134 114.95 166.352L112.093 168.54C111.873 168.704 111.599 168.649 111.434 168.43L111.214 168.102C111.214 168.102 111.214 168.102 108.906 171.164C106.599 174.227 102.148 175.102 102.148 175.102C102.148 175.102 102.148 175.102 101.324 173.953C100.5 172.805 100.774 171.438 102.862 170.836Z" fill="#412724"/>
<path d="M104.016 87.3336C103.852 88.0445 103.742 88.5913 103.247 89.1382C102.862 89.5756 102.368 89.9584 101.819 90.2318C100.775 90.724 99.5109 90.8334 98.412 90.4506C97.0933 90.0131 96.2691 89.0288 95.6098 87.8257C95.4449 87.3336 95.4999 86.8414 95.4999 86.3493C90.7746 86.0758 90.6098 87.2789 90.6098 87.2789C90.6098 87.2789 89.7306 89.7397 88.6867 94.6066C90.2801 96.0831 91.9284 97.5048 93.5218 98.9266C95.2251 100.458 96.8735 101.989 98.5768 103.52H110.115C110.994 97.6689 111.654 92.6926 111.654 92.6926C112.588 88.4819 108.137 87.9898 104.016 87.3336Z" fill="#E6E6E6"/>
<path d="M106.819 96.1925C106.435 93.4583 106.599 90.5053 107.918 88.0445C106.709 87.7164 105.336 87.5524 104.017 87.3336C103.852 88.0445 103.742 88.5914 103.248 89.1382C102.863 89.5757 102.369 89.9585 101.819 90.2319C100.775 90.724 99.5115 90.8334 98.4126 90.4506C97.0939 90.0132 96.2698 89.0288 95.6104 87.8258C95.4456 87.3336 95.5005 86.8415 95.5005 86.3493C94.1269 86.2946 93.1379 86.3493 92.4236 86.404C91.8741 89.3569 90.5555 92.8567 88.5774 95.2081C88.028 97.8877 87.4785 100.95 86.984 105.051C86.3796 110.028 84.5115 119.816 86.6544 120.144C93.028 121.183 99.5665 121.566 105.94 122.222C107.039 122.331 108.962 111.34 110.226 102.7C108.303 100.95 107.204 98.9814 106.819 96.1925Z" fill="#78392D"/>
<path d="M103.248 89.1383C102.863 89.5757 102.368 89.9585 101.819 90.2319C100.775 90.7241 99.5113 90.8335 98.4124 90.4507C97.0937 90.0132 96.2696 89.0289 95.6102 87.8258C95.4454 87.3337 95.5003 86.8415 95.5003 86.3494C94.6212 86.2947 93.9619 86.2947 93.3575 86.3494C93.1377 88.1539 93.4674 90.0679 94.6212 91.3256C95.9399 92.8021 97.7531 93.5677 99.7311 93.6224C101.819 93.6224 103.522 92.8021 104.896 91.2163C105.61 90.396 106.105 89.5757 106.489 88.5914C106.599 88.318 106.709 88.0993 106.764 87.8258C106.764 87.8258 106.764 87.8258 106.764 87.7712C105.885 87.6071 104.951 87.443 104.017 87.279C103.797 88.0446 103.742 88.5367 103.248 89.1383Z" fill="#8B4439"/>
<path d="M85.6651 118.066C85.3904 119.16 85.2805 119.652 86.709 120.199C89.731 121.347 102.478 123.042 105.995 122.386C106.269 122.332 107.094 121.839 106.929 120.527C103.412 120.91 91.8739 120.308 85.6651 118.066Z" fill="#8B4439"/>
<path d="M104.346 99.4187L101.434 103.028L98.2469 95.8096L92.2029 102.754L90.3348 98.3797L87.4777 101.606C87.3128 102.7 87.148 103.848 86.9832 105.106C86.9282 105.762 86.8183 106.528 86.7084 107.293L87.9722 110.848L91.7084 107.239L95.17 113.582L100.719 108.551L102.807 112.926L108.082 106.582L104.346 99.4187Z" fill="#8B4439"/>
<path d="M103.247 89.1382C102.862 89.5756 102.368 89.9584 101.818 90.2319C100.774 90.724 100.5 88.0992 99.4008 87.7164C98.0822 87.2789 96.1591 89.1382 95.4998 87.9351C95.3349 87.443 95.1701 86.8414 95.1151 86.3493C94.9503 86.2399 94.8954 86.2946 94.7855 86.3493C94.4558 89.1929 96.214 91.4896 98.3569 91.8177C100.774 92.2005 103.796 90.724 104.676 87.4976C104.511 87.3883 104.236 87.3883 103.851 87.3883C103.796 88.0445 103.742 88.5366 103.247 89.1382Z" fill="#E6E6E6"/>
<path d="M99.4563 86.8961C97.4783 86.7868 97.0937 85.2009 97.0937 85.2009L95.1157 86.3493C95.1157 86.3493 95.1706 88.646 96.7091 90.1772C96.9838 90.4506 97.4234 90.3412 97.5332 89.9584C97.8629 88.9195 98.3574 88.0445 99.5662 88.2632C100.061 88.482 100.006 89.3022 99.9508 90.2319C99.9508 90.6693 100.281 90.9974 100.72 90.9428C103.577 90.5053 104.072 87.3336 104.072 87.3336L101.929 85.2556C101.929 85.2556 101.434 87.0055 99.4563 86.8961Z" fill="white"/>
<path d="M119.456 83.6697V88.3725L116.489 88.0991L117.258 83.4509L119.456 83.6697Z" fill="#E09178"/>
<path d="M110.884 76.178C110.774 77.2717 111.324 78.2013 112.093 78.3107C112.917 78.4201 113.631 77.5998 113.796 76.5608C113.906 75.4671 113.357 74.5375 112.587 74.4281C111.763 74.3187 110.994 75.0843 110.884 76.178Z" fill="#E09178"/>
<path d="M116.983 85.1461L118.357 85.5836C122.093 86.732 126.104 84.654 127.258 80.9355L128.027 78.4747C129.181 74.7561 127.093 70.7642 123.357 69.6158L121.983 69.1783C119.785 68.5221 117.533 68.9596 115.774 70.1627C114.566 71.0376 113.577 72.2953 113.082 73.8265L112.313 76.2873C111.159 80.0605 113.247 83.9978 116.983 85.1461Z" fill="#E7A387"/>
<path d="M121.27 80.9354C121.544 81.0448 121.599 81.4276 121.434 81.701C120.445 83.0134 119.127 83.7243 117.973 83.3415C116.819 82.9587 116.105 81.6463 116.05 80.0605C116.05 79.7324 116.325 79.4043 116.599 79.5136L121.27 80.9354Z" fill="white"/>
<path d="M126.489 80.2793C125.939 81.2089 126.049 82.3026 126.763 82.6854C127.478 83.0682 128.467 82.6307 129.016 81.7011C129.565 80.7714 129.456 79.6778 128.741 79.295C128.027 78.9122 127.038 79.3496 126.489 80.2793Z" fill="#E7A387"/>
<path d="M124.072 77.6545C124.676 77.7639 124.896 78.5841 124.676 79.4044C124.402 80.2793 123.742 80.8262 123.193 80.7168C122.589 80.6074 122.369 79.7872 122.589 78.9669C122.863 78.092 123.523 77.5451 124.072 77.6545Z" fill="#422115"/>
<path d="M115.886 75.6313C116.435 75.7407 116.71 76.5062 116.435 77.3265C116.215 78.1468 115.556 78.6936 115.006 78.5842C114.457 78.4749 114.182 77.7093 114.457 76.889C114.732 76.1234 115.336 75.5219 115.886 75.6313Z" fill="#422115"/>
<path opacity="0.1" d="M123.192 80.7169C122.808 80.6075 122.533 80.2247 122.533 79.7326C123.247 79.1857 123.962 78.6389 124.676 78.092C124.841 78.4201 124.896 78.9123 124.731 79.4045" fill="white"/>
<path opacity="0.1" d="M115.006 78.639C114.621 78.5843 114.401 78.2015 114.346 77.7094C115.061 77.2172 115.72 76.6704 116.379 76.1235C116.544 76.4516 116.544 76.8891 116.434 77.3266" fill="white"/>
<path d="M103.632 114.949C103.632 114.949 99.4559 112.269 102.313 108.113C105.225 103.957 108.577 106.418 108.577 106.418L107.258 110.519C107.258 110.519 105.5 111.394 106.104 112.269C106.709 113.144 103.632 114.949 103.632 114.949Z" fill="#E09178"/>
<path d="M106.324 112.269L109.511 117.136L108.082 118.722L103.192 115.004C103.082 114.949 103.082 114.785 103.192 114.73C103.192 114.73 104.181 114.512 105.005 113.801C105.884 113.09 106.049 112.215 106.049 112.215C106.159 112.16 106.269 112.215 106.324 112.269Z" fill="#FF6C7E"/>
<path d="M109.182 116.644C109.072 116.918 108.907 117.136 108.687 117.3C108.577 117.355 108.522 117.41 108.412 117.465C108.138 117.738 107.753 117.847 107.423 117.847C107.204 117.847 107.039 117.793 106.819 117.683C101.324 122.113 103.907 123.863 103.907 123.863L111.215 118.285C111.215 118.285 110.555 116.754 109.182 116.644Z" fill="#F2293A"/>
<path d="M104.675 121.402C104.401 121.566 104.126 121.128 103.961 120.691C104.126 120.472 104.291 120.198 104.51 119.925C104.675 120.308 105.005 121.183 104.675 121.402Z" fill="#FFD4DB"/>
<path d="M107.423 118.941C107.038 119.378 106.159 118.941 105.72 118.667C105.885 118.503 106.049 118.394 106.214 118.23C106.709 118.339 107.808 118.558 107.423 118.941Z" fill="#FFD4DB"/>
<path d="M105.554 120.691C105.225 120.964 104.73 120.253 104.51 119.871C104.675 119.707 104.84 119.488 105.06 119.269C105.335 119.652 105.884 120.417 105.554 120.691Z" fill="#FFD4DB"/>
<path d="M106.379 120.035C106.049 120.308 105.335 119.652 105.06 119.324C105.225 119.16 105.444 118.941 105.664 118.722C105.994 119.05 106.708 119.761 106.379 120.035Z" fill="#FFD4DB"/>
<path d="M111.16 117.792L111.544 118.394C111.599 118.503 111.599 118.613 111.489 118.667L103.907 124.245L103.357 123.644L110.885 117.683C110.995 117.683 111.105 117.683 111.16 117.792Z" fill="#FFD4DB"/>
<path d="M109.126 116.535L109.73 116.699C109.785 116.699 109.84 116.808 109.84 116.863C109.676 117.191 109.236 117.847 108.302 118.175C107.093 118.558 106.489 117.957 106.489 117.957L106.544 117.574C106.544 117.574 107.643 117.902 108.247 117.574C108.851 117.246 109.126 116.535 109.126 116.535Z" fill="#FFD4DB"/>
<path opacity="0.1" d="M128.906 75.5764C128.851 75.6311 128.851 75.6858 128.797 75.7952C128.851 75.7405 128.906 75.6311 128.906 75.5764Z" fill="#3D2405"/>
<path d="M107.807 116.918C107.807 116.918 103.192 113.965 106.434 109.426C109.621 104.887 113.302 107.567 113.302 107.567L111.818 112.051C111.818 112.051 109.895 113.035 110.555 113.965C111.159 114.894 107.807 116.918 107.807 116.918Z" fill="#E7A387"/>
<path d="M110.775 113.965L114.291 119.324L112.753 121.019L107.368 116.918C107.258 116.863 107.258 116.699 107.368 116.589C107.368 116.589 108.412 116.371 109.346 115.605C110.28 114.84 110.5 113.91 110.5 113.91C110.61 113.855 110.72 113.855 110.775 113.965Z" fill="#FF6C7E"/>
<path d="M113.797 118.722C113.687 118.996 113.522 119.214 113.302 119.378C113.192 119.433 113.137 119.488 113.027 119.542C112.753 119.816 112.368 119.925 111.983 119.925C111.764 119.925 111.599 119.871 111.379 119.761C105.775 124.245 108.412 126.05 108.412 126.05L115.83 120.363C115.885 120.417 115.17 118.886 113.797 118.722Z" fill="#F2293A"/>
<path d="M109.236 123.534C108.961 123.698 108.687 123.261 108.522 122.823C108.687 122.55 108.852 122.331 109.071 122.058C109.236 122.495 109.566 123.316 109.236 123.534Z" fill="#FFD4DB"/>
<path d="M111.984 121.074C111.599 121.511 110.665 121.074 110.225 120.8C110.39 120.636 110.555 120.527 110.72 120.363C111.324 120.472 112.423 120.636 111.984 121.074Z" fill="#FFD4DB"/>
<path d="M110.115 122.878C109.786 123.152 109.291 122.441 109.071 122.058C109.236 121.839 109.401 121.675 109.621 121.457C109.896 121.785 110.445 122.55 110.115 122.878Z" fill="#FFD4DB"/>
<path d="M110.939 122.167C110.61 122.441 109.895 121.73 109.621 121.402C109.786 121.183 110.005 121.019 110.225 120.8C110.61 121.183 111.269 121.894 110.939 122.167Z" fill="#FFD4DB"/>
<path d="M115.83 119.925L116.214 120.527C116.269 120.636 116.269 120.746 116.159 120.8L108.522 126.487L107.973 125.886L115.555 119.871C115.61 119.816 115.775 119.816 115.83 119.925Z" fill="#FFD4DB"/>
<path d="M113.742 118.449L114.456 118.722C114.511 118.722 114.566 118.886 114.566 118.941C114.401 119.269 113.962 119.98 113.027 120.253C111.819 120.636 110.995 120.253 110.995 120.253L111.049 119.652C111.049 119.652 112.203 119.816 112.863 119.542C113.412 119.214 113.742 118.449 113.742 118.449Z" fill="#FFD4DB"/>
<path d="M123.027 75.5219C125.775 76.5063 128.412 77.764 130.939 79.2405C130.994 73.7721 129.676 68.0302 123.632 67.1006C123.632 67.1006 115.665 64.8585 110.665 72.7331C114.401 73.0612 119.566 74.2642 123.027 75.5219Z" fill="#582C1A"/>
<path d="M114.126 86.732C113.797 87.2242 113.412 87.607 113.082 88.0444C112.807 88.3726 112.533 88.7553 112.258 89.0835C111.599 92.2551 110.994 95.4268 110.005 98.5438C109.84 99.1453 109.456 99.5281 109.071 99.7469C108.797 101.333 108.577 102.973 108.467 104.614L121.324 105.707C121.324 105.707 123.192 92.802 124.621 87.9351C124.621 87.9351 119.346 86.0211 114.126 86.732Z" fill="#E09178"/>
<path d="M120.335 86.6772C119.73 87.5522 118.522 88.099 117.423 87.935C116.434 87.8256 115.664 87.2788 115.17 86.5679C114.95 86.5679 114.73 86.6226 114.511 86.6226L114.456 86.5679C113.686 86.6226 112.917 86.8413 112.258 87.1694C112.258 87.1694 109.016 95.7548 108.412 104.723L121.269 105.817C121.269 105.817 123.302 92.6925 124.73 87.8803C124.73 87.9897 122.752 87.1694 120.335 86.6772Z" fill="#F2293A"/>
<path d="M123.302 96.466C123.302 96.466 127.313 103.903 116.929 113.09C116.929 113.09 107.643 115.715 97.0387 104.669C97.0387 104.669 100.61 97.3409 109.731 95.0989C109.731 95.1536 113.467 97.1222 123.302 96.466Z" fill="#F2293A"/>
<path d="M110.445 93.1848L109.346 95.2628C109.346 95.2628 110.555 96.958 115.5 97.6142C120.445 98.2704 123.522 97.0674 123.522 97.0674L123.192 94.7707C123.192 94.7707 120.115 95.5909 116.104 95.0988C112.038 94.5519 110.445 93.1848 110.445 93.1848Z" fill="#FF6C7E"/>
<path d="M115.555 86.4585C115.61 86.4585 115.72 86.5132 115.72 86.5679C115.884 86.896 116.434 87.7162 117.643 87.8256C118.742 87.8803 119.676 87.1694 120.06 86.7866C120.17 86.6772 120.39 86.6225 120.555 86.6772L121.599 86.9507C121.654 86.9507 121.709 87.06 121.654 87.1147C121.379 87.6069 120.17 89.4114 117.368 89.138C114.181 88.8099 114.511 86.5132 114.511 86.5132L115.555 86.4585Z" fill="#FF6C7E"/>
<path d="M111.16 111.887C111.929 112.926 113.028 113.308 113.028 113.308C113.028 113.308 111.489 111.777 110.885 110.902C110.336 110.082 111.215 109.426 111.709 110.082C112.863 111.613 114.292 112.762 114.292 112.762C114.292 112.762 112.369 110.356 111.984 109.481C111.709 108.824 112.753 108.004 113.413 109.481C114.017 110.738 115.226 112.051 115.226 112.051C115.226 112.051 114.127 110.52 113.687 108.824C113.413 107.84 114.786 108.059 115.006 108.66C115.995 111.066 116.984 111.832 116.984 111.832C116.984 111.832 118.193 111.23 118.193 110.848C118.248 110.574 117.039 110.465 116.489 109.863C116.05 109.371 116.27 108.606 116.544 108.715C117.094 108.879 117.478 109.098 118.193 109.152C119.457 109.207 119.731 109.317 120.116 109.317C120.72 109.317 121.16 109.863 120.995 110.41C120.61 111.668 120.061 112.98 119.456 113.637C118.138 115.113 116.16 115.168 114.127 115.004C112.533 114.894 110.116 112.816 109.786 112.16C109.566 111.504 110.555 111.066 111.16 111.887Z" fill="#E7A387"/>
<path d="M130.06 105.215C125.555 101.661 124.236 93.0207 124.126 92.6379L126.764 92.2004C126.764 92.2551 128.192 100.567 131.873 103.52L130.06 105.215Z" fill="#E7A387"/>
<path d="M128.741 103.137C128.741 103.137 129.071 101.715 132.038 102.208C133.741 102.481 136.049 101.879 136.104 102.372C136.104 102.864 133.302 103.137 133.302 103.137C133.302 103.137 136.708 102.973 136.763 103.192C136.873 103.629 135.609 104.286 133.467 104.012C133.467 104.012 137.038 104.286 136.983 104.614C136.763 105.707 133.027 104.887 133.027 104.887C133.027 104.887 136.104 106.09 136.104 106.309C136.104 107.184 133.412 106.035 132.533 105.762C130.445 105.106 132.917 106.692 132.313 107.84C132.038 108.332 131.763 108.059 131.489 107.457C131.104 106.528 129.511 106.09 129.016 104.996C128.741 104.45 128.741 103.137 128.741 103.137Z" fill="#E7A387"/>
<path d="M127.533 94.2237C127.148 94.4425 124.95 95.5908 124.566 95.8096C123.247 93.6222 122.752 91.3255 122.972 90.7786L124.675 87.8804C124.621 87.9351 126.379 88.2085 127.533 94.2237Z" fill="#F2293A"/>
<path d="M127.148 92.8567C126.873 92.9661 126.544 93.0754 126.269 93.1848C125.445 93.5676 124.62 93.9504 123.796 94.3332C124.016 94.8253 124.236 95.3175 124.566 95.8096C124.95 95.5909 127.148 94.4425 127.533 94.2238C127.478 93.7316 127.368 93.2942 127.148 92.8567Z" fill="#FF6C7E"/>
</g>
<path d="M47.3854 214V203.568H49.9614L51.6414 208.208C51.7481 208.517 51.8494 208.837 51.9454 209.168C52.0414 209.488 52.1428 209.808 52.2494 210.128H52.3134C52.4201 209.808 52.5161 209.488 52.6014 209.168C52.6974 208.837 52.7988 208.517 52.9054 208.208L54.5534 203.568H57.1134V214H54.9694V210.176C54.9694 209.92 54.9801 209.637 55.0014 209.328C55.0228 209.019 55.0494 208.709 55.0814 208.4C55.1134 208.08 55.1454 207.771 55.1774 207.472C55.2094 207.163 55.2414 206.88 55.2734 206.624H55.2094L54.3614 209.104L52.8734 213.088H51.5774L50.0894 209.104L49.2574 206.624H49.1934C49.2254 206.88 49.2574 207.163 49.2894 207.472C49.3214 207.771 49.3534 208.08 49.3854 208.4C49.4174 208.709 49.4441 209.019 49.4654 209.328C49.4868 209.637 49.4974 209.92 49.4974 210.176V214H47.3854ZM60.5809 217.104C60.3356 217.104 60.1276 217.088 59.9569 217.056C59.7863 217.035 59.6209 216.997 59.4609 216.944L59.8769 215.152C59.9516 215.173 60.0369 215.195 60.1329 215.216C60.2289 215.237 60.3196 215.248 60.4049 215.248C60.7996 215.248 61.1036 215.152 61.3169 214.96C61.5303 214.768 61.6903 214.517 61.7969 214.208L61.9089 213.792L58.8529 206.064H61.2209L62.3569 209.472C62.4743 209.835 62.5809 210.203 62.6769 210.576C62.7729 210.949 62.8743 211.333 62.9809 211.728H63.0449C63.1303 211.355 63.2156 210.981 63.3009 210.608C63.3969 210.224 63.4929 209.845 63.5889 209.472L64.5489 206.064H66.8049L64.0529 214.08C63.8609 214.581 63.6583 215.019 63.4449 215.392C63.2423 215.776 63.0023 216.091 62.7249 216.336C62.4583 216.592 62.1489 216.784 61.7969 216.912C61.4556 217.04 61.0503 217.104 60.5809 217.104ZM72.0798 214V203.568H74.4318V207.84H74.4958L77.5998 203.568H80.1918L77.0398 207.728L80.7678 214H78.1918L75.6478 209.6L74.4318 211.2V214H72.0798ZM82.0359 214V206.064H84.3879V214H82.0359ZM83.2039 204.896C82.8093 204.896 82.4839 204.784 82.2279 204.56C81.9719 204.325 81.8439 204.027 81.8439 203.664C81.8439 203.301 81.9719 203.008 82.2279 202.784C82.4839 202.56 82.8093 202.448 83.2039 202.448C83.6093 202.448 83.9346 202.56 84.1799 202.784C84.4359 203.008 84.5639 203.301 84.5639 203.664C84.5639 204.027 84.4359 204.325 84.1799 204.56C83.9346 204.784 83.6093 204.896 83.2039 204.896ZM89.6098 214.192C89.1191 214.192 88.6711 214.096 88.2658 213.904C87.8711 213.712 87.5298 213.44 87.2418 213.088C86.9645 212.725 86.7458 212.288 86.5858 211.776C86.4365 211.264 86.3618 210.683 86.3618 210.032C86.3618 209.381 86.4525 208.8 86.6338 208.288C86.8258 207.776 87.0711 207.344 87.3698 206.992C87.6791 206.629 88.0311 206.352 88.4258 206.16C88.8311 205.968 89.2418 205.872 89.6578 205.872C90.1058 205.872 90.4738 205.947 90.7618 206.096C91.0498 206.245 91.3325 206.448 91.6098 206.704L91.5138 205.488V202.784H93.8658V214H91.9458L91.7858 213.216H91.7218C91.4445 213.493 91.1191 213.728 90.7458 213.92C90.3725 214.101 89.9938 214.192 89.6098 214.192ZM90.2178 212.272C90.4738 212.272 90.7031 212.219 90.9058 212.112C91.1191 212.005 91.3218 211.819 91.5138 211.552V208.304C91.3005 208.112 91.0818 207.979 90.8578 207.904C90.6338 207.829 90.4151 207.792 90.2018 207.792C89.8285 207.792 89.4978 207.973 89.2098 208.336C88.9218 208.688 88.7778 209.243 88.7778 210C88.7778 210.789 88.9005 211.365 89.1458 211.728C89.4018 212.091 89.7591 212.272 90.2178 212.272ZM98.6057 214.192C98.083 214.192 97.5443 214.091 96.9897 213.888C96.4457 213.685 95.971 213.419 95.5657 213.088L96.6217 211.616C96.9843 211.893 97.331 212.101 97.6617 212.24C97.9923 212.379 98.3283 212.448 98.6697 212.448C99.0217 212.448 99.2777 212.389 99.4377 212.272C99.5977 212.155 99.6777 211.989 99.6777 211.776C99.6777 211.648 99.6297 211.536 99.5337 211.44C99.4483 211.333 99.3257 211.237 99.1657 211.152C99.0163 211.067 98.8457 210.992 98.6537 210.928C98.4617 210.853 98.2643 210.773 98.0617 210.688C97.8163 210.592 97.571 210.48 97.3257 210.352C97.0803 210.224 96.8563 210.069 96.6537 209.888C96.451 209.696 96.2857 209.477 96.1577 209.232C96.0297 208.976 95.9657 208.683 95.9657 208.352C95.9657 207.989 96.035 207.653 96.1737 207.344C96.323 207.035 96.531 206.773 96.7977 206.56C97.0643 206.347 97.3843 206.181 97.7577 206.064C98.131 205.936 98.547 205.872 99.0057 205.872C99.6137 205.872 100.147 205.979 100.606 206.192C101.064 206.395 101.464 206.624 101.806 206.88L100.75 208.288C100.462 208.075 100.179 207.909 99.9017 207.792C99.6243 207.675 99.347 207.616 99.0697 207.616C98.4723 207.616 98.1737 207.824 98.1737 208.24C98.1737 208.368 98.2163 208.48 98.3017 208.576C98.387 208.661 98.499 208.741 98.6377 208.816C98.787 208.891 98.9523 208.965 99.1337 209.04C99.3257 209.104 99.523 209.173 99.7257 209.248C99.9817 209.344 100.232 209.456 100.478 209.584C100.734 209.701 100.963 209.851 101.166 210.032C101.379 210.213 101.55 210.437 101.678 210.704C101.806 210.96 101.87 211.269 101.87 211.632C101.87 211.995 101.8 212.331 101.662 212.64C101.523 212.949 101.315 213.221 101.038 213.456C100.76 213.68 100.419 213.861 100.014 214C99.6083 214.128 99.139 214.192 98.6057 214.192ZM39.6469 235.192C39.2842 235.192 38.9535 235.128 38.6549 235C38.3669 234.883 38.1215 234.717 37.9189 234.504C37.7162 234.28 37.5562 234.024 37.4389 233.736C37.3322 233.448 37.2789 233.133 37.2789 232.792C37.2789 231.96 37.6309 231.309 38.3349 230.84C39.0389 230.371 40.1749 230.056 41.7429 229.896C41.7215 229.544 41.6149 229.267 41.4229 229.064C41.2415 228.851 40.9322 228.744 40.4949 228.744C40.1535 228.744 39.8122 228.808 39.4709 228.936C39.1402 229.064 38.7829 229.24 38.3989 229.464L37.5509 227.912C38.0629 227.603 38.5962 227.352 39.1509 227.16C39.7162 226.968 40.3135 226.872 40.9429 226.872C41.9669 226.872 42.7455 227.165 43.2789 227.752C43.8229 228.328 44.0949 229.229 44.0949 230.456V235H42.1749L42.0149 234.184H41.9509C41.6095 234.483 41.2522 234.728 40.8789 234.92C40.5055 235.101 40.0949 235.192 39.6469 235.192ZM40.4469 233.368C40.7135 233.368 40.9429 233.309 41.1349 233.192C41.3269 233.075 41.5295 232.909 41.7429 232.696V231.304C40.9109 231.421 40.3349 231.592 40.0149 231.816C39.6949 232.04 39.5349 232.307 39.5349 232.616C39.5349 232.872 39.6149 233.064 39.7749 233.192C39.9455 233.309 40.1695 233.368 40.4469 233.368ZM46.4044 235V227.064H48.3244L48.4844 228.072H48.5484C48.8897 227.752 49.263 227.475 49.6684 227.24C50.0737 226.995 50.5484 226.872 51.0924 226.872C51.9564 226.872 52.5804 227.155 52.9644 227.72C53.359 228.285 53.5564 229.069 53.5564 230.072V235H51.2044V230.376C51.2044 229.8 51.1244 229.405 50.9644 229.192C50.815 228.979 50.5697 228.872 50.2284 228.872C49.9297 228.872 49.6737 228.941 49.4604 229.08C49.247 229.208 49.0124 229.395 48.7564 229.64V235H46.4044ZM58.7126 235.192C58.222 235.192 57.774 235.096 57.3686 234.904C56.974 234.712 56.6326 234.44 56.3446 234.088C56.0673 233.725 55.8486 233.288 55.6886 232.776C55.5393 232.264 55.4646 231.683 55.4646 231.032C55.4646 230.381 55.5553 229.8 55.7366 229.288C55.9286 228.776 56.174 228.344 56.4726 227.992C56.782 227.629 57.134 227.352 57.5286 227.16C57.934 226.968 58.3446 226.872 58.7606 226.872C59.2086 226.872 59.5766 226.947 59.8646 227.096C60.1526 227.245 60.4353 227.448 60.7126 227.704L60.6166 226.488V223.784H62.9686V235H61.0486L60.8886 234.216H60.8246C60.5473 234.493 60.222 234.728 59.8486 234.92C59.4753 235.101 59.0966 235.192 58.7126 235.192ZM59.3206 233.272C59.5766 233.272 59.806 233.219 60.0086 233.112C60.222 233.005 60.4246 232.819 60.6166 232.552V229.304C60.4033 229.112 60.1846 228.979 59.9606 228.904C59.7366 228.829 59.518 228.792 59.3046 228.792C58.9313 228.792 58.6006 228.973 58.3126 229.336C58.0246 229.688 57.8806 230.243 57.8806 231C57.8806 231.789 58.0033 232.365 58.2486 232.728C58.5046 233.091 58.862 233.272 59.3206 233.272ZM69.0876 235V224.568H71.6636L73.3436 229.208C73.4503 229.517 73.5516 229.837 73.6476 230.168C73.7436 230.488 73.845 230.808 73.9516 231.128H74.0156C74.1223 230.808 74.2183 230.488 74.3036 230.168C74.3996 229.837 74.501 229.517 74.6076 229.208L76.2556 224.568H78.8156V235H76.6716V231.176C76.6716 230.92 76.6823 230.637 76.7036 230.328C76.725 230.019 76.7516 229.709 76.7836 229.4C76.8156 229.08 76.8476 228.771 76.8796 228.472C76.9116 228.163 76.9436 227.88 76.9756 227.624H76.9116L76.0636 230.104L74.5756 234.088H73.2796L71.7916 230.104L70.9596 227.624H70.8956C70.9276 227.88 70.9596 228.163 70.9916 228.472C71.0236 228.771 71.0556 229.08 71.0876 229.4C71.1196 229.709 71.1463 230.019 71.1676 230.328C71.189 230.637 71.1996 230.92 71.1996 231.176V235H69.0876ZM82.2831 238.104C82.0378 238.104 81.8298 238.088 81.6591 238.056C81.4885 238.035 81.3231 237.997 81.1631 237.944L81.5791 236.152C81.6538 236.173 81.7391 236.195 81.8351 236.216C81.9311 236.237 82.0218 236.248 82.1071 236.248C82.5018 236.248 82.8058 236.152 83.0191 235.96C83.2325 235.768 83.3925 235.517 83.4991 235.208L83.6111 234.792L80.5551 227.064H82.9231L84.0591 230.472C84.1765 230.835 84.2831 231.203 84.3791 231.576C84.4751 231.949 84.5765 232.333 84.6831 232.728H84.7471C84.8325 232.355 84.9178 231.981 85.0031 231.608C85.0991 231.224 85.1951 230.845 85.2911 230.472L86.2511 227.064H88.5071L85.7551 235.08C85.5631 235.581 85.3605 236.019 85.1471 236.392C84.9445 236.776 84.7045 237.091 84.4271 237.336C84.1605 237.592 83.8511 237.784 83.4991 237.912C83.1578 238.04 82.7525 238.104 82.2831 238.104ZM92.4029 235.192C91.8802 235.192 91.3415 235.091 90.7869 234.888C90.2429 234.685 89.7682 234.419 89.3629 234.088L90.4189 232.616C90.7815 232.893 91.1282 233.101 91.4589 233.24C91.7895 233.379 92.1255 233.448 92.4669 233.448C92.8189 233.448 93.0749 233.389 93.2349 233.272C93.3949 233.155 93.4749 232.989 93.4749 232.776C93.4749 232.648 93.4269 232.536 93.3309 232.44C93.2455 232.333 93.1229 232.237 92.9629 232.152C92.8135 232.067 92.6429 231.992 92.4509 231.928C92.2589 231.853 92.0615 231.773 91.8589 231.688C91.6135 231.592 91.3682 231.48 91.1229 231.352C90.8775 231.224 90.6535 231.069 90.4509 230.888C90.2482 230.696 90.0829 230.477 89.9549 230.232C89.8269 229.976 89.7629 229.683 89.7629 229.352C89.7629 228.989 89.8322 228.653 89.9709 228.344C90.1202 228.035 90.3282 227.773 90.5949 227.56C90.8615 227.347 91.1815 227.181 91.5549 227.064C91.9282 226.936 92.3442 226.872 92.8029 226.872C93.4109 226.872 93.9442 226.979 94.4029 227.192C94.8615 227.395 95.2615 227.624 95.6029 227.88L94.5469 229.288C94.2589 229.075 93.9762 228.909 93.6989 228.792C93.4215 228.675 93.1442 228.616 92.8669 228.616C92.2695 228.616 91.9709 228.824 91.9709 229.24C91.9709 229.368 92.0135 229.48 92.0989 229.576C92.1842 229.661 92.2962 229.741 92.4349 229.816C92.5842 229.891 92.7495 229.965 92.9309 230.04C93.1229 230.104 93.3202 230.173 93.5229 230.248C93.7789 230.344 94.0295 230.456 94.2749 230.584C94.5309 230.701 94.7602 230.851 94.9629 231.032C95.1762 231.213 95.3469 231.437 95.4749 231.704C95.6029 231.96 95.6669 232.269 95.6669 232.632C95.6669 232.995 95.5975 233.331 95.4589 233.64C95.3202 233.949 95.1122 234.221 94.8349 234.456C94.5575 234.68 94.2162 234.861 93.8109 235C93.4055 235.128 92.9362 235.192 92.4029 235.192ZM101.033 235.192C100.467 235.192 99.9393 235.101 99.4486 234.92C98.958 234.728 98.5313 234.456 98.1686 234.104C97.806 233.741 97.5233 233.304 97.3206 232.792C97.118 232.28 97.0166 231.693 97.0166 231.032C97.0166 230.392 97.1233 229.816 97.3366 229.304C97.55 228.781 97.8273 228.344 98.1686 227.992C98.5206 227.629 98.9206 227.352 99.3686 227.16C99.8166 226.968 100.281 226.872 100.761 226.872C101.326 226.872 101.817 226.968 102.233 227.16C102.659 227.352 103.011 227.619 103.289 227.96C103.577 228.301 103.79 228.707 103.929 229.176C104.067 229.635 104.137 230.136 104.137 230.68C104.137 230.893 104.126 231.096 104.105 231.288C104.083 231.48 104.062 231.624 104.041 231.72H99.2886C99.3953 232.296 99.63 232.723 99.9926 233C100.366 233.267 100.819 233.4 101.353 233.4C101.918 233.4 102.489 233.224 103.065 232.872L103.849 234.296C103.443 234.573 102.99 234.792 102.489 234.952C101.998 235.112 101.513 235.192 101.033 235.192ZM99.2726 230.168H102.137C102.137 229.72 102.035 229.357 101.833 229.08C101.63 228.803 101.289 228.664 100.809 228.664C100.435 228.664 100.105 228.787 99.8166 229.032C99.5393 229.277 99.358 229.656 99.2726 230.168ZM108.242 235.192C107.837 235.192 107.495 235.128 107.218 235C106.941 234.872 106.717 234.696 106.546 234.472C106.386 234.237 106.269 233.96 106.194 233.64C106.119 233.309 106.082 232.941 106.082 232.536V223.784H108.434V232.632C108.434 232.877 108.477 233.048 108.562 233.144C108.658 233.24 108.754 233.288 108.85 233.288C108.903 233.288 108.946 233.288 108.978 233.288C109.021 233.288 109.074 233.277 109.138 233.256L109.426 235C109.298 235.053 109.133 235.096 108.93 235.128C108.738 235.171 108.509 235.192 108.242 235.192ZM111.38 235V228.904H110.324V227.16L111.38 227.08V226.648C111.38 226.232 111.428 225.837 111.524 225.464C111.631 225.091 111.801 224.765 112.036 224.488C112.271 224.211 112.575 223.992 112.948 223.832C113.321 223.672 113.775 223.592 114.308 223.592C114.639 223.592 114.937 223.624 115.204 223.688C115.481 223.752 115.711 223.816 115.892 223.88L115.46 225.608C115.161 225.501 114.889 225.448 114.644 225.448C114.356 225.448 114.132 225.539 113.972 225.72C113.812 225.891 113.732 226.179 113.732 226.584V227.064H115.156V228.904H113.732V235H111.38Z" fill="#0C345A"/>
<defs>
<filter id="filter0_ii" x="-2.5" y="-3" width="156" height="266" filterUnits="userSpaceOnUse" color-interpolation-filters="sRGB">
<feFlood flood-opacity="0" result="BackgroundImageFix"/>
<feBlend mode="normal" in="SourceGraphic" in2="BackgroundImageFix" result="shape"/>
<feColorMatrix in="SourceAlpha" type="matrix" values="0 0 0 0 0 0 0 0 0 0 0 0 0 0 0 0 0 0 127 0" result="hardAlpha"/>
<feMorphology radius="2" operator="erode" in="SourceAlpha" result="effect1_innerShadow"/>
<feOffset dx="-3" dy="-3"/>
<feGaussianBlur stdDeviation="1.5"/>
<feComposite in2="hardAlpha" operator="arithmetic" k2="-1" k3="1"/>
<feColorMatrix type="matrix" values="0 0 0 0 0 0 0 0 0 0 0 0 0 0 0 0 0 0 0.2 0"/>
<feBlend mode="normal" in2="shape" result="effect1_innerShadow"/>
<feColorMatrix in="SourceAlpha" type="matrix" values="0 0 0 0 0 0 0 0 0 0 0 0 0 0 0 0 0 0 127 0" result="hardAlpha"/>
<feMorphology radius="2" operator="erode" in="SourceAlpha" result="effect2_innerShadow"/>
<feOffset dx="3" dy="3"/>
<feGaussianBlur stdDeviation="2"/>
<feComposite in2="hardAlpha" operator="arithmetic" k2="-1" k3="1"/>
<feColorMatrix type="matrix" values="0 0 0 0 1 0 0 0 0 1 0 0 0 0 1 0 0 0 0.34 0"/>
<feBlend mode="normal" in2="effect1_innerShadow" result="effect2_innerShadow"/>
</filter>
<clipPath id="clip0">
<rect width="140" height="129" fill="white" transform="translate(5.5 49)"/>
</clipPath>
</defs>
</svg>
