<svg width="468" height="429" viewBox="0 0 468 429" fill="none" xmlns="http://www.w3.org/2000/svg">
<g filter="url(#filter0_ii)">
<path d="M178.557 50.2125L170.878 48.7779L167.758 47.8215L160.318 41.1265L156.238 39.4527L153.118 37.779H150.478L148.558 39.2136L149.278 41.6047L147.598 42.5611L146.638 41.6047L141.358 43.5175L139.198 49.017L136.558 47.3433L131.038 49.9734L128.878 53.0818L131.518 55.9511H130.798L128.638 56.6684L129.118 60.9724L125.998 60.255L122.158 63.3634L121.438 65.2763L121.918 67.6674L123.118 69.5802L120.958 72.2104L121.678 74.1233L117.118 73.6451L114.238 72.9277L112.078 73.6451L112.798 75.5579L111.838 78.6663L115.438 82.492L114.718 84.8831L113.278 83.4485L112.318 90.1435C112.318 90.1435 109.918 88.9479 109.198 87.9915C108.478 87.0351 104.639 78.4272 104.639 78.4272V77.2317L102.959 78.1881L98.1586 83.9267L95.2787 87.5133L94.7987 91.339L96.2386 95.4038L97.6786 98.7513L95.9987 101.382L91.1987 105.685L88.5588 114.532L85.4388 118.597L77.9989 122.901L75.5989 124.814L69.119 126.249L67.1991 127.922L60.4792 126.488L58.3192 130.553L57.1192 131.509L49.9193 133.422L48.2393 134.857L46.5593 137.726L41.7594 139.4L36.7195 138.682L32.6395 139.16L29.2796 141.312L24.2397 146.812L19.6797 152.55L12.9598 155.898L10.3199 158.289L9.11987 165.94L6.9599 167.136H5.27993L4.31994 159.724L2.39997 160.202L0 169.527L2.87996 173.592L3.11996 176.222L2.39997 182.678L0.71999 186.743V193.199L4.07994 196.785L6.23991 201.567L11.2798 207.067L14.3998 210.893L14.6398 216.631L11.0398 214.718L4.31994 207.784L3.59995 210.893L7.67989 214.957L10.0799 218.305L4.55994 217.588L5.51992 219.74L13.1998 228.108L16.0798 233.13L16.7998 237.194L24.4797 246.281L28.5596 252.258L29.7596 258.714L29.9996 262.54L32.8795 268.757L40.0794 279.038L41.7594 283.103L42.9594 293.624L43.6794 299.123L43.4394 302.232L42.2394 306.296L40.5594 306.775L36.9595 305.34V307.97L37.6795 313.709L39.1194 316.1L41.7594 315.143L46.7993 316.817L50.8793 320.643L54.4792 322.078L61.1991 322.317L67.919 321.599L74.879 318.969L77.0389 317.056L80.3989 312.513L83.9988 311.318L86.6388 310.122L87.3588 306.296L91.9187 303.666L102.239 301.993L108.718 300.797L114.238 301.993L123.358 300.319H125.038L127.198 300.797L131.518 298.645L134.398 294.58L135.598 288.363L137.278 287.168L142.078 286.211L155.758 277.365L160.078 276.647L169.198 277.125L174.238 274.256L182.397 269.952L186.717 268.039L178.557 51.4081V50.2125Z" fill="#E94A73"/>
</g>
<g filter="url(#filter1_ii)">
<path d="M182.717 52.1254L186.317 51.4081L189.917 52.3645L190.157 49.2561L186.557 45.6695L186.317 43.2784L187.757 40.6482L190.397 40.4091L191.837 32.9968L193.997 33.7141L196.637 30.3666L195.197 27.4973V25.1063H197.357L198.077 22.9543L200.957 21.2805L201.437 17.933H205.037L206.957 15.3029L211.997 16.7375L217.277 16.0202L220.157 16.9766L224.237 14.5855L227.837 13.6291L226.877 8.84696L224.477 6.69499L221.117 6.21678L218.717 3.5866L224.477 1.19553L229.277 6.45589L231.677 4.78214L234.557 9.32518L240.317 10.7598L243.437 9.08607L243.917 11.238L254.476 13.1509L255.916 13.39L259.516 16.2593L261.436 16.4984L263.356 14.5855L266.716 15.0638L267.436 16.7375L270.556 16.0202L271.996 19.1286L274.156 19.3677L275.836 16.9766L274.156 15.0638L277.516 13.39H278.236L279.676 15.542L281.356 16.0202L282.556 16.4984L283.756 18.4113L281.356 21.0414L279.676 23.6716L277.756 23.9107L278.236 27.0191L276.796 29.1711L274.636 28.4538L269.836 31.5622V35.627L271.276 37.0616L269.116 40.8873L269.356 42.0829L267.196 43.7566L264.316 48.5388L263.356 49.2561L264.316 52.6036L273.436 58.5813L274.396 60.4941L278.476 62.6461L279.436 65.7545L283.996 65.0372L288.796 68.1456L292.636 70.0584L294.556 73.645L290.236 194.394L266.716 193.677L237.197 193.199L198.077 194.394L187.517 194.633L182.717 52.1254Z" fill="#23ABD1"/>
</g>
<g filter="url(#filter2_ii)">
<path fill-rule="evenodd" clip-rule="evenodd" d="M360.879 240.869L325.84 238L322 300.885L327.04 302.798L329.2 301.603L331.36 302.32L335.92 305.428L336.16 307.58L337.84 311.406L339.88 309.852L344.32 311.286L346.72 312.362L345.76 316.427L347.44 318.34L348.64 320.492L352.48 322.644L355.36 325.752L357.999 330.056L359.679 331.013L360.399 330.774L360.159 329.339L360.399 327.904L363.999 327.187L368.079 328.861L374.559 331.013L380.079 331.252L384.639 332.208L389.679 331.491L393.999 333.404V337.469L394.959 339.86L394.719 343.446L410.559 353.728L411.759 352.293L413.199 343.685L415.119 337.947L417.519 331.969L421.839 327.426L424.959 324.318L427.119 317.145L429.758 312.362L431.918 307.102L438.638 299.211L447.278 293.712L448.478 290.365L450.398 287.495L452.798 284.626L455.438 278.887L457.598 273.866V269.562L460.718 262.628L463.358 255.216L466.478 249.477L466.718 243.26L460.958 244.456L458.558 243.26L455.918 242.543L450.158 245.173L450.398 247.325L449.438 249.716H446.798L444.638 248.521L443.438 250.673L441.518 251.629L439.838 251.151L439.598 248.76L437.918 246.847L436.718 245.891L435.038 244.695L432.398 244.217L430.958 243.739L429.278 242.543L424.239 242.782L421.839 242.065L418.959 242.782L415.359 246.369L386.559 243.26L360.879 240.869ZM404.319 324.318L402.159 327.665L401.919 329.578L402.639 331.969L404.799 334.36L405.999 329.578L408.159 326.948L407.199 324.318H404.319Z" fill="#77B5EE"/>
</g>
<g filter="url(#filter3_ii)">
<path d="M321.88 305L319 356.408L324.76 360.473L327.64 358.56L331.72 360.234L337.96 363.581L343.24 367.407L353.56 362.625L355.719 360.712L358.839 356.169L360.279 358.799L358.839 362.147L358.359 363.581L364.119 366.929L367.479 369.081L368.439 370.755L377.559 368.842L384.999 362.147L391.479 359.995L399.639 359.756L407.079 360.234L409.959 357.365L393.639 346.605L392.919 344.692L393.639 341.823L392.679 340.866L392.199 337.04L390.039 336.323L387.159 335.845L384.999 336.801L381.879 335.845L379.719 334.888L376.839 336.084L374.679 335.128L367.719 332.736L365.319 331.78H362.439L361.959 334.41L360.519 335.128L358.239 334.888L355.959 331.302L354.04 327.954L350.44 325.085L347.08 323.889L345.28 320.662L345.04 317.194L344.32 314.803L341.92 314.086L339.88 313.608L337.96 315.282L336.04 312.412L334.84 310.739V308.587L330.76 306.196L328.6 306.913L325.96 306.435L321.88 305Z" fill="#23ABD1"/>
</g>
<g filter="url(#filter4_ii)">
<path d="M374.31 428.944L377.347 423.904L379.905 422.959L383.262 416.501H384.701L388.538 417.131L390.456 414.768L393.174 405.632L396.371 402.64L397.171 395.552L397.49 389.566L398.929 385.471C398.929 385.471 395.732 381.061 395.092 381.061C394.453 381.061 390.456 383.738 390.456 383.738L382.143 383.896L378.626 384.841L372.871 386.258L362.96 381.533L352.728 376.335L351.29 376.493L350.33 379.8L349.531 383.108L351.929 390.511L354.327 396.024L357.045 401.065L358.164 405.475L357.205 408.468L357.045 410.83L361.681 420.911L364.079 426.267L365.997 427.212L369.514 426.897L372.871 428.944H374.31Z" fill="#07AF43"/>
</g>
<g filter="url(#filter5_ii)">
<path d="M298.716 74.8406L302.316 76.0361L307.596 77.949L310.476 80.101L312.876 85.1222L317.196 86.796L321.756 90.3826L325.835 89.4261L329.915 88.9479L332.555 85.3613L335.435 80.3401L338.555 76.2752L340.715 69.102L341.195 64.559L344.315 56.4293L342.875 52.6036L344.075 46.1477L343.355 43.2784L342.155 40.4091L344.075 36.8225L345.995 33.9532L345.515 28.6929L347.915 27.4973L349.595 25.3454L346.475 22.4761L351.755 14.3464L353.675 6.21679L354.395 4.06482L357.035 2.63018L359.435 0.239105L360.635 0.71732L360.395 2.39107L363.275 4.78214L363.515 15.0638L364.955 16.7375L366.875 17.933L364.955 21.2806L369.035 26.0627V27.9756L370.235 31.5622L369.515 40.17L371.195 46.1477L372.155 50.4516L375.035 51.8863L378.155 49.017L381.995 48.2997L382.955 52.3645L387.995 56.6684L390.395 58.5813L390.155 65.5154L391.355 71.254L391.115 74.8406L390.635 78.1881L396.155 89.6652L397.834 92.7736L397.594 98.034L395.915 101.86L399.034 103.055L398.314 108.794L398.074 111.185L401.434 115.25L406.474 118.597L411.514 119.075L412.474 121.945L413.434 125.292L418.954 126.249L421.354 131.27L423.514 129.596L427.354 133.183L426.154 136.052L428.794 141.791L431.434 147.768L432.394 156.854V161.637L435.754 162.354L436.714 163.31L437.194 158.05L439.354 159.485L444.634 165.223L446.794 169.049L445.594 176.7L451.354 184.591L454.714 185.308L456.874 188.656L457.594 192.721L461.914 195.829L462.874 198.937L464.074 202.046L465.994 203.719L465.754 207.784L467.674 211.132L467.194 212.806L465.754 214.957L465.994 224.283L465.754 226.674L463.834 226.435L465.034 229.543L467.194 234.325L466.714 240.303L460.954 240.781L456.154 238.868L448.954 242.694L448.474 246.281L445.594 246.041L444.394 245.802L442.234 248.432L441.034 248.672L441.514 246.281L439.834 244.368L438.634 242.694L435.514 241.498H432.394L430.954 239.107L425.194 240.064L421.594 238.151L418.234 239.346L414.874 242.694L377.195 239.107L356.555 236.716L328.475 234.803L325.835 234.564L328.475 196.307L294.396 194.633L298.716 74.8406Z" fill="#E0960B"/>
</g>
<g filter="url(#filter6_ii)">
<path d="M314.836 353.607L311.476 353.129L308.956 350.26L304.396 342.011L303.436 338.902L304.396 336.511L303.196 331.251L302.356 326.11L299.116 323.241L295.636 320.371L292.996 320.73L291.436 321.208L288.316 320.85L288.556 319.295L291.556 314.274L292.156 311.644L292.036 309.014L288.076 302.797L287.236 305.188L284.596 314.155L282.556 315.111H276.916L275.716 312.361L277.036 311.405L280.036 311.285L280.516 309.372L281.236 303.156L282.556 298.374L285.916 295.504L286.756 294.07L286.636 290.244L288.196 289.407L288.676 288.809L285.916 281.158L284.836 281.397L284.596 285.701L282.916 287.494L279.916 292.635L278.476 295.504L275.596 295.982L271.276 298.971L268.036 303.634L265.276 308.057L262.516 310.09L259.876 309.014L257.116 299.808L256.996 297.417L253.636 294.189L251.356 289.048L248.357 287.972L246.197 285.82L245.237 284.027L246.677 281.397L244.277 280.082L243.077 278.289L241.517 275.778L239.237 274.702L235.517 275.897L233.597 274.463L231.077 273.148L228.557 272.669L227.357 273.626H225.437L222.557 271.593L218.237 268.963L214.517 267.17L213.197 266.931L212.117 267.17L210.317 268.126L204.677 268.246L190.757 269.202L187.757 198.188L231.197 197.351L265.396 197.47L300.556 198.905L324.555 199.861L315.556 353.846L314.836 353.607Z" fill="#07AF43"/>
</g>
<path d="M92.3559 206.853L90.1779 195.117H92.8959L93.7059 200.607C93.7779 201.219 93.8559 201.837 93.9399 202.461C94.0239 203.073 94.1019 203.691 94.1739 204.315H94.2459C94.3659 203.691 94.4799 203.073 94.5879 202.461C94.7079 201.837 94.8279 201.219 94.9479 200.607L96.2079 195.117H98.4579L99.7179 200.607C99.8379 201.207 99.9519 201.819 100.06 202.443C100.18 203.055 100.3 203.679 100.42 204.315H100.492C100.576 203.679 100.654 203.055 100.726 202.443C100.81 201.831 100.894 201.219 100.978 200.607L101.788 195.117H104.326L102.238 206.853H98.9079L97.7559 201.525C97.6599 201.069 97.5699 200.613 97.4859 200.157C97.4139 199.689 97.3479 199.239 97.2879 198.807H97.2159C97.1439 199.239 97.0659 199.689 96.9819 200.157C96.9099 200.613 96.8259 201.069 96.7299 201.525L95.6319 206.853H92.3559ZM109.069 200.913L108.781 201.993H111.283L111.013 200.913C110.845 200.325 110.683 199.701 110.527 199.041C110.371 198.381 110.215 197.745 110.059 197.133H109.987C109.843 197.757 109.693 198.399 109.537 199.059C109.393 199.707 109.237 200.325 109.069 200.913ZM104.821 206.853L108.493 195.117H111.679L115.351 206.853H112.543L111.823 204.063H108.241L107.521 206.853H104.821Z" fill="white"/>
<path d="M251.364 250.016C250.596 250.016 249.828 249.878 249.06 249.602C248.304 249.314 247.626 248.888 247.026 248.324L248.538 246.506C248.958 246.866 249.42 247.16 249.924 247.388C250.44 247.616 250.944 247.73 251.436 247.73C251.988 247.73 252.396 247.628 252.66 247.424C252.936 247.22 253.074 246.944 253.074 246.596C253.074 246.416 253.032 246.26 252.948 246.128C252.876 245.996 252.762 245.882 252.606 245.786C252.462 245.678 252.282 245.582 252.066 245.498C251.862 245.402 251.634 245.3 251.382 245.192L249.852 244.544C249.552 244.424 249.258 244.268 248.97 244.076C248.694 243.884 248.442 243.662 248.214 243.41C247.998 243.146 247.824 242.846 247.692 242.51C247.56 242.162 247.494 241.772 247.494 241.34C247.494 240.86 247.596 240.41 247.8 239.99C248.004 239.558 248.292 239.186 248.664 238.874C249.036 238.55 249.474 238.298 249.978 238.118C250.494 237.938 251.058 237.848 251.67 237.848C252.354 237.848 253.026 237.98 253.686 238.244C254.358 238.508 254.946 238.892 255.45 239.396L254.1 241.07C253.716 240.77 253.332 240.542 252.948 240.386C252.564 240.218 252.138 240.134 251.67 240.134C251.214 240.134 250.848 240.23 250.572 240.422C250.308 240.602 250.176 240.86 250.176 241.196C250.176 241.376 250.218 241.532 250.302 241.664C250.398 241.784 250.524 241.898 250.68 242.006C250.848 242.102 251.04 242.198 251.256 242.294C251.472 242.378 251.706 242.474 251.958 242.582L253.47 243.194C254.19 243.482 254.754 243.878 255.162 244.382C255.582 244.886 255.792 245.552 255.792 246.38C255.792 246.872 255.69 247.34 255.486 247.784C255.294 248.216 255.006 248.6 254.622 248.936C254.25 249.26 253.788 249.524 253.236 249.728C252.684 249.92 252.06 250.016 251.364 250.016ZM260.897 243.86L260.609 244.94H263.111L262.841 243.86C262.673 243.272 262.511 242.648 262.355 241.988C262.199 241.328 262.043 240.692 261.887 240.08H261.815C261.671 240.704 261.521 241.346 261.365 242.006C261.221 242.654 261.065 243.272 260.897 243.86ZM256.649 249.8L260.321 238.064H263.507L267.179 249.8H264.371L263.651 247.01H260.069L259.349 249.8H256.649Z" fill="white"/>
<path d="M230.669 126.784V115.048H233.387L236.447 120.88L237.599 123.472H237.671C237.611 122.848 237.539 122.152 237.455 121.384C237.383 120.616 237.347 119.884 237.347 119.188V115.048H239.867V126.784H237.149L234.089 120.934L232.937 118.378H232.865C232.925 119.026 232.991 119.722 233.063 120.466C233.147 121.21 233.189 121.93 233.189 122.626V126.784H230.669ZM245.285 126.784V117.28H242.063V115.048H251.171V117.28H247.949V126.784H245.285Z" fill="white"/>
<path d="M355.344 175.899C356.148 175.899 356.784 175.551 357.252 174.855C357.72 174.159 357.954 173.181 357.954 171.921C357.954 170.745 357.72 169.827 357.252 169.167C356.784 168.507 356.148 168.177 355.344 168.177C354.54 168.177 353.904 168.507 353.436 169.167C352.968 169.827 352.734 170.745 352.734 171.921C352.734 173.181 352.968 174.159 353.436 174.855C353.904 175.551 354.54 175.899 355.344 175.899ZM359.214 181.119C358.59 181.119 358.014 181.035 357.486 180.867C356.958 180.711 356.478 180.489 356.046 180.201C355.626 179.925 355.254 179.589 354.93 179.193C354.606 178.809 354.342 178.389 354.138 177.933C353.514 177.801 352.944 177.573 352.428 177.249C351.924 176.913 351.492 176.487 351.132 175.971C350.772 175.455 350.496 174.861 350.304 174.189C350.112 173.505 350.016 172.749 350.016 171.921C350.016 170.961 350.142 170.109 350.394 169.365C350.658 168.609 351.024 167.979 351.492 167.475C351.96 166.959 352.518 166.569 353.166 166.305C353.826 166.029 354.552 165.891 355.344 165.891C356.136 165.891 356.856 166.029 357.504 166.305C358.164 166.569 358.728 166.959 359.196 167.475C359.664 167.991 360.024 168.627 360.276 169.383C360.54 170.127 360.672 170.973 360.672 171.921C360.672 173.505 360.336 174.807 359.664 175.827C358.992 176.847 358.086 177.519 356.946 177.843C357.222 178.263 357.594 178.557 358.062 178.725C358.53 178.905 359.016 178.995 359.52 178.995C359.772 178.995 360.006 178.977 360.222 178.941C360.45 178.905 360.648 178.857 360.816 178.797L361.284 180.723C361.068 180.831 360.78 180.921 360.42 180.993C360.072 181.077 359.67 181.119 359.214 181.119ZM363.239 177.843V166.107H365.885V175.611H370.529V177.843H363.239ZM372.916 177.843V166.107H376.228C377.128 166.107 377.938 166.221 378.658 166.449C379.378 166.677 379.996 167.031 380.512 167.511C381.028 167.979 381.424 168.579 381.7 169.311C381.976 170.043 382.114 170.913 382.114 171.921C382.114 172.929 381.976 173.805 381.7 174.549C381.424 175.293 381.034 175.911 380.53 176.403C380.026 176.883 379.42 177.243 378.712 177.483C378.016 177.723 377.236 177.843 376.372 177.843H372.916ZM375.562 175.701H376.066C376.57 175.701 377.026 175.635 377.434 175.503C377.842 175.371 378.19 175.161 378.478 174.873C378.766 174.573 378.988 174.183 379.144 173.703C379.312 173.223 379.396 172.629 379.396 171.921C379.396 171.225 379.312 170.643 379.144 170.175C378.988 169.695 378.766 169.317 378.478 169.041C378.19 168.753 377.842 168.549 377.434 168.429C377.026 168.309 376.57 168.249 376.066 168.249H375.562V175.701Z" fill="white"/>
<path d="M364.827 282V270.264H367.545L370.605 276.096L371.757 278.688H371.829C371.769 278.064 371.697 277.368 371.613 276.6C371.541 275.832 371.505 275.1 371.505 274.404V270.264H374.025V282H371.307L368.247 276.15L367.095 273.594H367.023C367.083 274.242 367.149 274.938 367.221 275.682C367.305 276.426 367.347 277.146 367.347 277.842V282H364.827ZM380.74 282.216C379.972 282.216 379.204 282.078 378.436 281.802C377.68 281.514 377.002 281.088 376.402 280.524L377.914 278.706C378.334 279.066 378.796 279.36 379.3 279.588C379.816 279.816 380.32 279.93 380.812 279.93C381.364 279.93 381.772 279.828 382.036 279.624C382.312 279.42 382.45 279.144 382.45 278.796C382.45 278.616 382.408 278.46 382.324 278.328C382.252 278.196 382.138 278.082 381.982 277.986C381.838 277.878 381.658 277.782 381.442 277.698C381.238 277.602 381.01 277.5 380.758 277.392L379.228 276.744C378.928 276.624 378.634 276.468 378.346 276.276C378.07 276.084 377.818 275.862 377.59 275.61C377.374 275.346 377.2 275.046 377.068 274.71C376.936 274.362 376.87 273.972 376.87 273.54C376.87 273.06 376.972 272.61 377.176 272.19C377.38 271.758 377.668 271.386 378.04 271.074C378.412 270.75 378.85 270.498 379.354 270.318C379.87 270.138 380.434 270.048 381.046 270.048C381.73 270.048 382.402 270.18 383.062 270.444C383.734 270.708 384.322 271.092 384.826 271.596L383.476 273.27C383.092 272.97 382.708 272.742 382.324 272.586C381.94 272.418 381.514 272.334 381.046 272.334C380.59 272.334 380.224 272.43 379.948 272.622C379.684 272.802 379.552 273.06 379.552 273.396C379.552 273.576 379.594 273.732 379.678 273.864C379.774 273.984 379.9 274.098 380.056 274.206C380.224 274.302 380.416 274.398 380.632 274.494C380.848 274.578 381.082 274.674 381.334 274.782L382.846 275.394C383.566 275.682 384.13 276.078 384.538 276.582C384.958 277.086 385.168 277.752 385.168 278.58C385.168 279.072 385.066 279.54 384.862 279.984C384.67 280.416 384.382 280.8 383.998 281.136C383.626 281.46 383.164 281.724 382.612 281.928C382.06 282.12 381.436 282.216 380.74 282.216ZM388.563 282L386.385 270.264H389.103L389.913 275.754C389.985 276.366 390.063 276.984 390.147 277.608C390.231 278.22 390.309 278.838 390.381 279.462H390.453C390.573 278.838 390.687 278.22 390.795 277.608C390.915 276.984 391.035 276.366 391.155 275.754L392.415 270.264H394.665L395.925 275.754C396.045 276.354 396.159 276.966 396.267 277.59C396.387 278.202 396.507 278.826 396.627 279.462H396.699C396.783 278.826 396.861 278.202 396.933 277.59C397.017 276.978 397.101 276.366 397.185 275.754L397.995 270.264H400.533L398.445 282H395.115L393.963 276.672C393.867 276.216 393.777 275.76 393.693 275.304C393.621 274.836 393.555 274.386 393.495 273.954H393.423C393.351 274.386 393.273 274.836 393.189 275.304C393.117 275.76 393.033 276.216 392.937 276.672L391.839 282H388.563ZM405.334 284.88L408.952 269.22H410.68L407.062 284.88H405.334ZM376.075 294.06L375.787 295.14H378.289L378.019 294.06C377.851 293.472 377.689 292.848 377.533 292.188C377.377 291.528 377.221 290.892 377.065 290.28H376.993C376.849 290.904 376.699 291.546 376.543 292.206C376.399 292.854 376.243 293.472 376.075 294.06ZM371.827 300L375.499 288.264H378.685L382.357 300H379.549L378.829 297.21H375.247L374.527 300H371.827ZM388.72 300.216C387.976 300.216 387.274 300.09 386.614 299.838C385.954 299.574 385.372 299.19 384.868 298.686C384.376 298.182 383.986 297.558 383.698 296.814C383.41 296.058 383.266 295.188 383.266 294.204C383.266 293.232 383.416 292.368 383.716 291.612C384.016 290.844 384.418 290.196 384.922 289.668C385.426 289.14 386.014 288.738 386.686 288.462C387.358 288.186 388.066 288.048 388.81 288.048C389.566 288.048 390.244 288.204 390.844 288.516C391.444 288.816 391.942 289.17 392.338 289.578L390.934 291.27C390.634 290.994 390.316 290.772 389.98 290.604C389.656 290.424 389.284 290.334 388.864 290.334C388.468 290.334 388.09 290.424 387.729 290.604C387.382 290.772 387.076 291.018 386.812 291.342C386.56 291.666 386.356 292.062 386.2 292.53C386.056 292.998 385.984 293.526 385.984 294.114C385.984 295.326 386.242 296.268 386.758 296.94C387.274 297.6 387.964 297.93 388.828 297.93C389.308 297.93 389.734 297.828 390.106 297.624C390.49 297.408 390.826 297.144 391.114 296.832L392.518 298.488C391.534 299.64 390.268 300.216 388.72 300.216ZM396.735 300V290.496H393.513V288.264H402.621V290.496H399.399V300H396.735Z" fill="white"/>
<path d="M330.625 344L328.064 335.524H330.092L331.106 339.476C331.236 339.944 331.348 340.399 331.444 340.841C331.548 341.274 331.665 341.725 331.795 342.193H331.847C331.968 341.725 332.081 341.274 332.185 340.841C332.289 340.399 332.401 339.944 332.523 339.476L333.524 335.524H335.474L332.926 344H330.625ZM336.639 344V335.524H338.55V344H336.639ZM344.345 344.156C343.808 344.156 343.301 344.065 342.824 343.883C342.348 343.692 341.927 343.415 341.563 343.051C341.208 342.687 340.926 342.236 340.718 341.699C340.51 341.153 340.406 340.525 340.406 339.814C340.406 339.112 340.515 338.488 340.731 337.942C340.948 337.387 341.238 336.919 341.602 336.538C341.966 336.157 342.391 335.866 342.876 335.667C343.362 335.468 343.873 335.368 344.41 335.368C344.956 335.368 345.446 335.481 345.879 335.706C346.313 335.923 346.672 336.178 346.958 336.473L345.944 337.695C345.728 337.496 345.498 337.335 345.255 337.214C345.021 337.084 344.753 337.019 344.449 337.019C344.163 337.019 343.89 337.084 343.63 337.214C343.379 337.335 343.158 337.513 342.967 337.747C342.785 337.981 342.638 338.267 342.525 338.605C342.421 338.943 342.369 339.324 342.369 339.749C342.369 340.624 342.556 341.305 342.928 341.79C343.301 342.267 343.799 342.505 344.423 342.505C344.77 342.505 345.078 342.431 345.346 342.284C345.624 342.128 345.866 341.937 346.074 341.712L347.088 342.908C346.378 343.74 345.463 344.156 344.345 344.156Z" fill="white"/>
<path d="M366.283 408.031V401.167H363.956V399.555H370.534V401.167H368.207V408.031H366.283ZM373.584 403.741L373.376 404.521H375.183L374.988 403.741C374.867 403.316 374.75 402.866 374.637 402.389C374.524 401.912 374.412 401.453 374.299 401.011H374.247C374.143 401.462 374.035 401.925 373.922 402.402C373.818 402.87 373.705 403.316 373.584 403.741ZM370.516 408.031L373.168 399.555H375.469L378.121 408.031H376.093L375.573 406.016H372.986L372.466 408.031H370.516ZM381.894 408.187C381.339 408.187 380.785 408.087 380.23 407.888C379.684 407.68 379.194 407.372 378.761 406.965L379.853 405.652C380.156 405.912 380.49 406.124 380.854 406.289C381.227 406.454 381.591 406.536 381.946 406.536C382.345 406.536 382.639 406.462 382.83 406.315C383.029 406.168 383.129 405.968 383.129 405.717C383.129 405.587 383.099 405.474 383.038 405.379C382.986 405.284 382.904 405.201 382.791 405.132C382.687 405.054 382.557 404.985 382.401 404.924C382.254 404.855 382.089 404.781 381.907 404.703L380.802 404.235C380.585 404.148 380.373 404.036 380.165 403.897C379.966 403.758 379.784 403.598 379.619 403.416C379.463 403.225 379.337 403.009 379.242 402.766C379.147 402.515 379.099 402.233 379.099 401.921C379.099 401.574 379.173 401.249 379.32 400.946C379.467 400.634 379.675 400.365 379.944 400.14C380.213 399.906 380.529 399.724 380.893 399.594C381.266 399.464 381.673 399.399 382.115 399.399C382.609 399.399 383.094 399.494 383.571 399.685C384.056 399.876 384.481 400.153 384.845 400.517L383.87 401.726C383.593 401.509 383.315 401.345 383.038 401.232C382.761 401.111 382.453 401.05 382.115 401.05C381.786 401.05 381.521 401.119 381.322 401.258C381.131 401.388 381.036 401.574 381.036 401.817C381.036 401.947 381.066 402.06 381.127 402.155C381.196 402.242 381.287 402.324 381.4 402.402C381.521 402.471 381.66 402.541 381.816 402.61C381.972 402.671 382.141 402.74 382.323 402.818L383.415 403.26C383.935 403.468 384.342 403.754 384.637 404.118C384.94 404.482 385.092 404.963 385.092 405.561C385.092 405.916 385.018 406.254 384.871 406.575C384.732 406.887 384.524 407.164 384.247 407.407C383.978 407.641 383.645 407.832 383.246 407.979C382.847 408.118 382.397 408.187 381.894 408.187Z" fill="white"/>
<defs>
<filter id="filter0_ii" x="-3" y="34.779" width="192.717" height="290.538" filterUnits="userSpaceOnUse" color-interpolation-filters="sRGB">
<feFlood flood-opacity="0" result="BackgroundImageFix"/>
<feBlend mode="normal" in="SourceGraphic" in2="BackgroundImageFix" result="shape"/>
<feColorMatrix in="SourceAlpha" type="matrix" values="0 0 0 0 0 0 0 0 0 0 0 0 0 0 0 0 0 0 127 0" result="hardAlpha"/>
<feMorphology radius="2" operator="erode" in="SourceAlpha" result="effect1_innerShadow"/>
<feOffset dx="-3" dy="-3"/>
<feGaussianBlur stdDeviation="1.5"/>
<feComposite in2="hardAlpha" operator="arithmetic" k2="-1" k3="1"/>
<feColorMatrix type="matrix" values="0 0 0 0 0 0 0 0 0 0 0 0 0 0 0 0 0 0 0.2 0"/>
<feBlend mode="normal" in2="shape" result="effect1_innerShadow"/>
<feColorMatrix in="SourceAlpha" type="matrix" values="0 0 0 0 0 0 0 0 0 0 0 0 0 0 0 0 0 0 127 0" result="hardAlpha"/>
<feMorphology radius="2" operator="erode" in="SourceAlpha" result="effect2_innerShadow"/>
<feOffset dx="3" dy="3"/>
<feGaussianBlur stdDeviation="2"/>
<feComposite in2="hardAlpha" operator="arithmetic" k2="-1" k3="1"/>
<feColorMatrix type="matrix" values="0 0 0 0 1 0 0 0 0 1 0 0 0 0 1 0 0 0 0.34 0"/>
<feBlend mode="normal" in2="effect1_innerShadow" result="effect2_innerShadow"/>
</filter>
<filter id="filter1_ii" x="179.717" y="-1.80447" width="117.838" height="199.438" filterUnits="userSpaceOnUse" color-interpolation-filters="sRGB">
<feFlood flood-opacity="0" result="BackgroundImageFix"/>
<feBlend mode="normal" in="SourceGraphic" in2="BackgroundImageFix" result="shape"/>
<feColorMatrix in="SourceAlpha" type="matrix" values="0 0 0 0 0 0 0 0 0 0 0 0 0 0 0 0 0 0 127 0" result="hardAlpha"/>
<feMorphology radius="2" operator="erode" in="SourceAlpha" result="effect1_innerShadow"/>
<feOffset dx="-3" dy="-3"/>
<feGaussianBlur stdDeviation="1.5"/>
<feComposite in2="hardAlpha" operator="arithmetic" k2="-1" k3="1"/>
<feColorMatrix type="matrix" values="0 0 0 0 0 0 0 0 0 0 0 0 0 0 0 0 0 0 0.2 0"/>
<feBlend mode="normal" in2="shape" result="effect1_innerShadow"/>
<feColorMatrix in="SourceAlpha" type="matrix" values="0 0 0 0 0 0 0 0 0 0 0 0 0 0 0 0 0 0 127 0" result="hardAlpha"/>
<feMorphology radius="2" operator="erode" in="SourceAlpha" result="effect2_innerShadow"/>
<feOffset dx="3" dy="3"/>
<feGaussianBlur stdDeviation="2"/>
<feComposite in2="hardAlpha" operator="arithmetic" k2="-1" k3="1"/>
<feColorMatrix type="matrix" values="0 0 0 0 1 0 0 0 0 1 0 0 0 0 1 0 0 0 0.34 0"/>
<feBlend mode="normal" in2="effect1_innerShadow" result="effect2_innerShadow"/>
</filter>
<filter id="filter2_ii" x="319" y="235" width="150.718" height="121.728" filterUnits="userSpaceOnUse" color-interpolation-filters="sRGB">
<feFlood flood-opacity="0" result="BackgroundImageFix"/>
<feBlend mode="normal" in="SourceGraphic" in2="BackgroundImageFix" result="shape"/>
<feColorMatrix in="SourceAlpha" type="matrix" values="0 0 0 0 0 0 0 0 0 0 0 0 0 0 0 0 0 0 127 0" result="hardAlpha"/>
<feMorphology radius="2" operator="erode" in="SourceAlpha" result="effect1_innerShadow"/>
<feOffset dx="-3" dy="-3"/>
<feGaussianBlur stdDeviation="1.5"/>
<feComposite in2="hardAlpha" operator="arithmetic" k2="-1" k3="1"/>
<feColorMatrix type="matrix" values="0 0 0 0 0 0 0 0 0 0 0 0 0 0 0 0 0 0 0.2 0"/>
<feBlend mode="normal" in2="shape" result="effect1_innerShadow"/>
<feColorMatrix in="SourceAlpha" type="matrix" values="0 0 0 0 0 0 0 0 0 0 0 0 0 0 0 0 0 0 127 0" result="hardAlpha"/>
<feMorphology radius="2" operator="erode" in="SourceAlpha" result="effect2_innerShadow"/>
<feOffset dx="3" dy="3"/>
<feGaussianBlur stdDeviation="2"/>
<feComposite in2="hardAlpha" operator="arithmetic" k2="-1" k3="1"/>
<feColorMatrix type="matrix" values="0 0 0 0 1 0 0 0 0 1 0 0 0 0 1 0 0 0 0.34 0"/>
<feBlend mode="normal" in2="effect1_innerShadow" result="effect2_innerShadow"/>
</filter>
<filter id="filter3_ii" x="316" y="302" width="96.9587" height="71.7545" filterUnits="userSpaceOnUse" color-interpolation-filters="sRGB">
<feFlood flood-opacity="0" result="BackgroundImageFix"/>
<feBlend mode="normal" in="SourceGraphic" in2="BackgroundImageFix" result="shape"/>
<feColorMatrix in="SourceAlpha" type="matrix" values="0 0 0 0 0 0 0 0 0 0 0 0 0 0 0 0 0 0 127 0" result="hardAlpha"/>
<feMorphology radius="2" operator="erode" in="SourceAlpha" result="effect1_innerShadow"/>
<feOffset dx="-3" dy="-3"/>
<feGaussianBlur stdDeviation="1.5"/>
<feComposite in2="hardAlpha" operator="arithmetic" k2="-1" k3="1"/>
<feColorMatrix type="matrix" values="0 0 0 0 0 0 0 0 0 0 0 0 0 0 0 0 0 0 0.2 0"/>
<feBlend mode="normal" in2="shape" result="effect1_innerShadow"/>
<feColorMatrix in="SourceAlpha" type="matrix" values="0 0 0 0 0 0 0 0 0 0 0 0 0 0 0 0 0 0 127 0" result="hardAlpha"/>
<feMorphology radius="2" operator="erode" in="SourceAlpha" result="effect2_innerShadow"/>
<feOffset dx="3" dy="3"/>
<feGaussianBlur stdDeviation="2"/>
<feComposite in2="hardAlpha" operator="arithmetic" k2="-1" k3="1"/>
<feColorMatrix type="matrix" values="0 0 0 0 1 0 0 0 0 1 0 0 0 0 1 0 0 0 0.34 0"/>
<feBlend mode="normal" in2="effect1_innerShadow" result="effect2_innerShadow"/>
</filter>
<filter id="filter4_ii" x="346.531" y="373.335" width="55.398" height="58.6091" filterUnits="userSpaceOnUse" color-interpolation-filters="sRGB">
<feFlood flood-opacity="0" result="BackgroundImageFix"/>
<feBlend mode="normal" in="SourceGraphic" in2="BackgroundImageFix" result="shape"/>
<feColorMatrix in="SourceAlpha" type="matrix" values="0 0 0 0 0 0 0 0 0 0 0 0 0 0 0 0 0 0 127 0" result="hardAlpha"/>
<feMorphology radius="2" operator="erode" in="SourceAlpha" result="effect1_innerShadow"/>
<feOffset dx="-3" dy="-3"/>
<feGaussianBlur stdDeviation="1.5"/>
<feComposite in2="hardAlpha" operator="arithmetic" k2="-1" k3="1"/>
<feColorMatrix type="matrix" values="0 0 0 0 0 0 0 0 0 0 0 0 0 0 0 0 0 0 0.2 0"/>
<feBlend mode="normal" in2="shape" result="effect1_innerShadow"/>
<feColorMatrix in="SourceAlpha" type="matrix" values="0 0 0 0 0 0 0 0 0 0 0 0 0 0 0 0 0 0 127 0" result="hardAlpha"/>
<feMorphology radius="2" operator="erode" in="SourceAlpha" result="effect2_innerShadow"/>
<feOffset dx="3" dy="3"/>
<feGaussianBlur stdDeviation="2"/>
<feComposite in2="hardAlpha" operator="arithmetic" k2="-1" k3="1"/>
<feColorMatrix type="matrix" values="0 0 0 0 1 0 0 0 0 1 0 0 0 0 1 0 0 0 0.34 0"/>
<feBlend mode="normal" in2="effect1_innerShadow" result="effect2_innerShadow"/>
</filter>
<filter id="filter5_ii" x="291.396" y="-2.76089" width="179.278" height="254.433" filterUnits="userSpaceOnUse" color-interpolation-filters="sRGB">
<feFlood flood-opacity="0" result="BackgroundImageFix"/>
<feBlend mode="normal" in="SourceGraphic" in2="BackgroundImageFix" result="shape"/>
<feColorMatrix in="SourceAlpha" type="matrix" values="0 0 0 0 0 0 0 0 0 0 0 0 0 0 0 0 0 0 127 0" result="hardAlpha"/>
<feMorphology radius="2" operator="erode" in="SourceAlpha" result="effect1_innerShadow"/>
<feOffset dx="-3" dy="-3"/>
<feGaussianBlur stdDeviation="1.5"/>
<feComposite in2="hardAlpha" operator="arithmetic" k2="-1" k3="1"/>
<feColorMatrix type="matrix" values="0 0 0 0 0 0 0 0 0 0 0 0 0 0 0 0 0 0 0.2 0"/>
<feBlend mode="normal" in2="shape" result="effect1_innerShadow"/>
<feColorMatrix in="SourceAlpha" type="matrix" values="0 0 0 0 0 0 0 0 0 0 0 0 0 0 0 0 0 0 127 0" result="hardAlpha"/>
<feMorphology radius="2" operator="erode" in="SourceAlpha" result="effect2_innerShadow"/>
<feOffset dx="3" dy="3"/>
<feGaussianBlur stdDeviation="2"/>
<feComposite in2="hardAlpha" operator="arithmetic" k2="-1" k3="1"/>
<feColorMatrix type="matrix" values="0 0 0 0 1 0 0 0 0 1 0 0 0 0 1 0 0 0 0.34 0"/>
<feBlend mode="normal" in2="effect1_innerShadow" result="effect2_innerShadow"/>
</filter>
<filter id="filter6_ii" x="184.757" y="194.351" width="142.798" height="162.496" filterUnits="userSpaceOnUse" color-interpolation-filters="sRGB">
<feFlood flood-opacity="0" result="BackgroundImageFix"/>
<feBlend mode="normal" in="SourceGraphic" in2="BackgroundImageFix" result="shape"/>
<feColorMatrix in="SourceAlpha" type="matrix" values="0 0 0 0 0 0 0 0 0 0 0 0 0 0 0 0 0 0 127 0" result="hardAlpha"/>
<feMorphology radius="2" operator="erode" in="SourceAlpha" result="effect1_innerShadow"/>
<feOffset dx="-3" dy="-3"/>
<feGaussianBlur stdDeviation="1.5"/>
<feComposite in2="hardAlpha" operator="arithmetic" k2="-1" k3="1"/>
<feColorMatrix type="matrix" values="0 0 0 0 0 0 0 0 0 0 0 0 0 0 0 0 0 0 0.2 0"/>
<feBlend mode="normal" in2="shape" result="effect1_innerShadow"/>
<feColorMatrix in="SourceAlpha" type="matrix" values="0 0 0 0 0 0 0 0 0 0 0 0 0 0 0 0 0 0 127 0" result="hardAlpha"/>
<feMorphology radius="2" operator="erode" in="SourceAlpha" result="effect2_innerShadow"/>
<feOffset dx="3" dy="3"/>
<feGaussianBlur stdDeviation="2"/>
<feComposite in2="hardAlpha" operator="arithmetic" k2="-1" k3="1"/>
<feColorMatrix type="matrix" values="0 0 0 0 1 0 0 0 0 1 0 0 0 0 1 0 0 0 0.34 0"/>
<feBlend mode="normal" in2="effect1_innerShadow" result="effect2_innerShadow"/>
</filter>
</defs>
</svg>
