<svg width="151" height="260" viewBox="0 0 151 260" fill="none" xmlns="http://www.w3.org/2000/svg">
<g filter="url(#filter0_ii)">
<rect x="0.5" width="150" height="260" rx="4" fill="white"/>
</g>
<g clip-path="url(#clip0)">
<path opacity="0.14" d="M76 172.971C45.8285 172.971 23.5 177.605 23.5 177.605C23.5 177.605 39.266 181.92 76 181.92C111.614 181.92 128.5 177.605 128.5 177.605C128.5 177.605 106.091 172.971 76 172.971Z" fill="#260F00"/>
<path d="M64.0755 58.8691C56.0725 76.288 48.1495 96.5035 44.9482 96.9829C44.7882 97.6222 44.5481 98.2614 44.388 98.9006C44.7882 99.5398 45.5085 100.818 45.6685 100.818C48.7897 100.818 54.2318 98.7408 61.9947 81.5616C66.3164 71.8934 69.0374 65.581 69.5176 62.4648L64.0755 58.8691Z" fill="#E5A185"/>
<path d="M53.1912 96.5036C55.6722 93.7069 58.6333 89.0726 61.9946 81.6416C66.3162 71.9733 69.0373 65.6609 69.5175 62.5447L64.0754 58.5496C61.2743 59.828 51.9908 86.0362 48.2293 92.4285C49.7499 93.627 51.7507 95.2251 53.1912 96.5036Z" fill="#4C2518"/>
<path d="M97.4482 61.5059C97.4482 61.5059 107.532 57.3509 110.493 69.0168C113.534 80.6827 111.053 105.932 107.612 109.128C104.171 112.324 81.5221 107.211 81.5221 107.211L97.4482 61.5059Z" fill="#6C2E3F"/>
<path d="M103.69 62.8644C103.13 62.3849 103.05 61.5859 103.37 60.9467C103.851 60.2276 104.091 59.4285 103.931 58.9491C103.771 58.4697 102.81 57.9104 100.649 57.7506C95.4473 57.351 92.8063 59.4285 91.6859 60.7869C91.2057 61.3462 90.4855 61.506 89.8452 61.1864C88.9649 60.7869 88.6448 59.5883 89.365 58.7893C90.9656 56.9515 94.4069 54.1549 100.969 54.7142C104.171 54.9539 106.171 55.9927 106.892 57.8305C107.532 59.5084 106.812 61.3462 106.091 62.6247C105.531 63.3438 104.411 63.5036 103.69 62.8644Z" fill="#7A364B"/>
<path d="M99.529 59.5083C99.529 59.5083 109.613 79.3243 108.332 87.5543L98.4086 87.8739C98.4086 87.8739 94.7272 75.3291 95.9276 71.8933C97.048 68.3775 99.529 59.5083 99.529 59.5083Z" fill="#401F16"/>
<path d="M93.6868 167.218L93.2066 173.21C93.2066 173.21 100.169 173.53 100.249 173.45C100.329 173.29 100.649 167.218 100.649 167.218H93.6868Z" fill="#2D231E"/>
<path d="M70.3178 167.218L69.8376 173.21C69.8376 173.21 76.8002 173.53 76.8803 173.45C76.9603 173.29 77.2804 167.218 77.2804 167.218H70.3178Z" fill="#2D231E"/>
<path d="M74.0794 53.9951C74.0794 53.9951 77.6808 52.3971 82.2425 52.5569C86.8043 52.7167 89.4453 53.9951 89.9255 54.8741C90.3256 55.8329 89.6854 61.0266 89.6854 61.0266L73.2791 62.9443L74.0794 53.9951Z" fill="#5D3E34"/>
<path d="M77.3603 161.944C78.5608 138.612 75.1195 140.93 75.3596 137.813C75.5196 134.697 76.9602 120.474 77.5204 117.358C77.8405 115.76 78.8009 115.441 79.201 116.719C79.7612 118.477 81.602 131.022 84.9632 140.45C85.4434 141.888 85.8436 143.327 86.4038 144.765C87.7643 148.201 90.0852 155.951 91.8459 161.944H100.089C100.009 159.307 99.8489 156.511 99.6888 154.833C98.6484 145.884 95.2071 139.252 94.3268 136.535C93.7666 135.017 94.1667 123.83 94.0067 117.118C93.9266 111.445 93.6866 105.692 92.7262 100.099C91.9259 95.6245 99.6088 59.5083 99.6088 59.5083C98.2483 58.5495 96.8077 57.7504 95.1271 57.271C92.5661 56.5519 75.7597 55.2735 67.3565 57.271C66.2361 57.5107 65.996 57.8304 64.9556 58.3897C64.9556 58.3897 64.8756 94.5059 65.1157 98.581C65.3558 101.937 65.4358 105.293 65.1157 108.649C64.8756 111.445 63.9952 114.082 63.7552 116.879C62.5547 132.22 66.7163 147.082 69.1972 162.024H77.3603V161.944Z" fill="#E79D84"/>
<path d="M77.3607 161.465C78.4811 138.692 75.1198 140.93 75.2799 137.893C75.44 134.777 76.8805 120.554 77.4407 117.438C77.7608 115.84 78.7212 115.52 79.1214 116.799C79.6816 118.557 81.5223 131.101 84.8836 140.53C85.3637 141.968 85.7639 143.407 86.3241 144.845C87.6046 148.201 89.9255 155.632 91.6061 161.545H99.9293C99.8493 159.068 99.6892 156.511 99.5291 154.913C98.4887 145.963 95.0474 139.332 94.1671 136.615C93.6069 135.097 94.007 123.91 93.847 117.198C93.7669 111.525 93.5269 105.772 92.5665 100.179C91.7662 95.7044 99.4491 59.5881 99.4491 59.5881C98.0886 58.6293 96.648 57.8303 94.9674 57.3509C94.007 57.1111 90.9659 56.7116 87.1244 56.4719C86.164 58.5494 84.5634 60.1475 82.0025 60.547C80.0817 60.7867 77.7608 60.3872 76.1602 59.1886C75.1999 58.4695 74.6397 57.5107 74.1595 56.4719C71.5985 56.6317 69.1175 56.9513 67.1968 57.3509C66.0764 57.5906 65.036 58.07 63.9956 58.5494C63.9956 58.5494 64.7159 94.5857 64.956 98.6608C65.1961 102.017 65.2761 105.373 64.956 108.729C64.7159 111.525 63.8355 114.162 63.5954 116.959C62.475 132.14 66.3965 146.763 68.9575 161.545H77.3607V161.465Z" fill="#EFEBE3"/>
<path d="M69.5977 165.38H77.1206C78.8812 138.453 75.1198 141.169 75.2799 137.893C75.4399 134.777 76.8805 120.554 77.4407 117.438C77.7608 115.84 78.7212 115.52 79.1213 116.799C79.6815 118.557 81.5222 131.102 84.8835 140.53C85.3637 141.968 85.7639 143.407 86.3241 144.845C87.9247 149 91.0459 159.387 92.7265 165.38H100.089C100.009 161.944 99.8492 157.39 99.6091 154.833C98.5687 145.884 95.1274 139.252 94.2471 136.535C93.6869 135.017 94.087 123.83 93.927 117.118C93.8469 111.445 93.6068 105.692 92.6465 100.099C91.8462 95.6245 99.5291 59.5083 99.5291 59.5083C98.1686 58.5495 96.728 57.7504 95.0474 57.271C94.087 57.0313 91.0459 56.6318 87.2044 56.3921C86.244 58.4696 84.6434 60.0676 82.0825 60.4672C80.1617 60.7069 77.8408 60.3073 76.2402 59.1088C75.2799 58.3897 74.7197 57.4308 74.2395 56.3921C72.3988 56.472 70.6381 56.7117 69.0375 56.9514C68.9575 56.9514 68.9575 57.0313 68.8774 57.0313C67.5969 57.9102 66.5565 59.1088 65.4361 60.2274C65.3561 61.1863 65.116 62.225 65.036 63.1839C64.8759 64.7819 64.8759 66.4599 64.7959 68.058C64.7959 68.5374 64.5558 68.9369 64.3157 69.2565C64.5558 80.2032 64.8759 95.9441 65.036 98.501C65.2761 101.857 65.3561 105.213 65.036 108.569C64.7959 111.365 63.9155 114.002 63.6754 116.799C62.475 132.46 66.7966 147.562 69.2776 162.823C69.4376 163.462 69.5177 164.341 69.5977 165.38Z" fill="#EFEBE3"/>
<path d="M94.2468 136.535C93.6866 135.017 94.0867 123.83 93.9267 117.119C93.8466 112.245 93.6065 107.37 92.9663 102.496C90.4053 102.976 87.9244 103.775 85.4434 103.935C80.5616 104.254 75.5997 103.855 70.7178 103.295C68.8771 103.056 67.0364 102.816 65.1957 102.496C65.2757 104.494 65.1957 106.571 65.0357 108.569C64.7956 111.366 63.9152 114.002 63.6751 116.799C62.4747 132.46 68.8771 160.586 69.0372 167.298L78.1607 168.177C78.6408 139.491 75.1195 141.249 75.2796 137.814C75.4396 134.697 77.1203 120.075 77.6805 117.039C78.0006 115.441 78.3207 115.84 78.7209 117.119C79.2811 118.876 81.5219 131.022 84.8832 140.45C85.3634 141.889 85.7635 143.327 86.3238 144.765C88.5646 150.438 92.5661 167.138 92.8863 169.056L101.69 168.656C101.53 168.257 101.049 159.547 100.569 155.312C99.5288 146.443 95.1271 139.252 94.2468 136.535Z" fill="#2B2B2B"/>
<path d="M76.8804 66.3799C76.7204 66.1402 76.6403 65.9804 76.4803 65.7407C76.4002 65.5809 76.3202 65.4211 76.3202 65.1814C75.2798 63.5034 74.1594 61.9852 72.5588 60.4671C71.6784 59.5881 72.0786 58.4695 72.8789 57.9102C72.7188 57.4308 72.6388 56.9513 72.5588 56.4719C70.638 56.6317 68.7973 56.8714 67.2768 57.271C66.1563 57.5107 65.1159 57.9901 64.0755 58.4695C64.0755 58.4695 64.3957 88.593 63.4353 97.702C63.1952 100.259 62.555 102.496 62.3949 106.491C64.1556 108.729 72.9589 108.569 74.6396 108.169C74.7196 96.3436 75.5999 83.639 77.1205 71.8932C77.2806 70.5349 77.4406 69.4961 77.6807 68.1378C77.6807 68.0579 77.1205 66.7794 76.8804 66.3799Z" fill="#8E6651"/>
<path d="M94.5671 95.5447C96.0076 86.1161 99.529 59.5084 99.529 59.5084C98.1685 58.5495 96.7279 57.7505 95.0473 57.2711C94.327 57.0314 92.4063 56.7916 89.8453 56.6318C89.9253 57.2711 89.8453 57.9103 89.6052 58.4696C89.4451 58.7892 89.2851 59.1887 89.125 59.5084C89.045 59.5883 88.8049 60.2275 88.965 59.9079C88.8849 60.1476 88.7249 60.3873 88.5648 60.5471C88.4848 60.7069 88.4047 60.7868 88.3247 60.9466C88.1646 61.1863 88.0046 61.3461 87.8445 61.426C87.2043 62.2251 86.564 62.9442 85.8438 63.6633C84.6433 64.8619 82.8826 65.9805 81.9223 67.4188C81.7622 67.7384 81.5221 67.9781 81.202 68.1379C81.122 68.6173 81.0419 69.0967 80.9619 69.5762C79.2012 82.1209 78.3209 95.7844 78.3209 108.489C87.2043 109.847 91.766 109.448 95.9276 107.69C95.7675 105.133 94.247 98.0217 94.5671 95.5447Z" fill="#8E6651"/>
<path d="M77.7607 68.0579C77.7607 68.0579 74.7196 63.7431 69.9177 65.501C69.9177 65.501 67.5969 57.0313 74.1594 53.915C74.0793 53.9949 73.5992 59.5083 77.7607 68.0579Z" fill="#6C493B"/>
<path d="M81.2021 68.0581C84.2432 62.9443 90.0054 60.2276 89.8454 54.7942C89.8454 54.7942 93.0466 60.6271 89.5252 67.1792C89.6053 67.2591 88.4048 64.4625 81.2021 68.0581Z" fill="#6C493B"/>
<path d="M64.9556 70.2153V71.5737L74.5593 71.8134V70.6947L64.9556 70.2153Z" fill="#BF9C8C"/>
<path d="M93.0466 71.0943L92.8866 72.4526L83.6831 71.8933L83.7631 70.7747L93.0466 71.0943Z" fill="#BF9C8C"/>
<path d="M63.9153 90.7504C63.9153 91.3098 63.9153 91.8691 63.8353 92.3485L67.6768 89.9514L67.3566 88.2734L63.9153 90.7504Z" fill="#BF9C8C"/>
<path d="M90.3255 92.5882C90.3255 92.5882 93.0465 94.9053 94.5671 96.1838C94.5671 95.9441 94.5671 95.7044 94.6471 95.5446C94.7271 95.1451 94.8072 94.6656 94.8072 94.1862L91.2858 91.1499L90.3255 92.5882Z" fill="#BF9C8C"/>
<path d="M82.2425 47.2033L81.5222 47.1234C80.0817 46.9636 78.7211 48.0822 78.5611 49.5205L77.2806 57.1912C77.1205 58.6294 78.7211 59.9878 80.2417 60.1476L80.962 60.2275C82.4026 60.3873 84.2432 58.8691 84.4033 57.351L84.6434 50.0798C84.8035 48.7214 83.683 47.3631 82.2425 47.2033Z" fill="#E79D84"/>
<path d="M82.2424 47.2033L81.5221 47.1234C80.0816 46.9636 78.7211 48.0822 78.561 49.5205L77.9207 53.9151C79.0412 54.3946 80.0816 54.7142 81.3621 54.7941C82.6425 54.874 83.6029 54.6343 84.5633 54.1549L84.6433 50.1597C84.8034 48.7214 83.6829 47.3631 82.2424 47.2033Z" fill="#E09178"/>
<path d="M68.2372 37.3751C67.0367 37.6148 66.2364 39.1329 66.5565 40.8109C66.8766 42.4889 68.0771 43.6075 69.3576 43.3678C70.558 43.1281 71.3583 41.6099 71.0382 39.932C70.7181 38.254 69.4376 37.1354 68.2372 37.3751Z" fill="#E09178"/>
<path d="M82.2425 23.6319L78.0809 23.7118C72.5588 23.8716 68.2372 30.104 68.3172 35.5375L68.4773 43.0484C68.6373 48.5617 73.2791 52.9564 78.7212 52.8764L82.8827 52.7965C88.4048 52.6367 92.8065 48.0823 92.6465 42.5689L92.4864 35.058C92.4064 29.5447 87.7646 23.552 82.2425 23.6319Z" fill="#E79D84"/>
<path d="M94.0871 23.1524C94.0871 23.1524 94.8874 22.3534 94.7273 22.1137C94.1671 21.9539 93.767 22.1936 93.4468 22.3534C93.847 21.4745 94.0871 20.4357 93.927 19.4769C93.1267 19.4769 92.4064 20.196 92.3264 20.995C92.4865 20.3558 92.3264 19.6367 91.9262 19.0774C91.8462 18.9975 91.8462 18.9176 91.7662 18.9176C91.6061 18.9176 91.5261 18.9975 91.366 19.1573C91.1259 19.4769 91.0459 20.5156 91.0459 20.6754C91.1259 20.7553 91.1259 20.7553 91.0459 20.7553C91.0459 20.7553 91.0459 20.7553 91.0459 20.6754C90.6458 20.3558 88.645 19.1573 86.7243 18.4381C83.2029 17.0798 79.3615 17.3195 79.4415 17.3994C79.6816 18.1984 80.0017 18.9975 80.4019 19.7166C78.241 17.7989 75.2799 16.8401 72.3988 17.1597C72.4788 17.8788 72.5589 18.5979 72.879 19.2372C73.1191 19.8764 73.5192 20.4357 74.1595 20.7553C71.9186 19.5568 69.5177 18.5979 67.0368 18.9176C66.8767 18.9176 66.7967 18.9975 66.7166 19.0774C66.6366 19.1573 66.6366 19.2372 66.6366 19.397C66.6366 20.9151 67.0368 22.5132 67.9171 23.7916C67.5169 23.3921 67.1968 23.2323 66.8767 23.1524C66.3165 24.2711 66.3165 25.5495 66.4765 26.828C66.8767 29.8643 67.4369 31.9418 67.9971 33.2202C67.9171 35.857 68.3973 37.9345 68.3973 38.0144C68.3973 38.0144 68.3973 37.8546 68.3973 37.535V38.0144C68.4773 38.0144 69.5977 31.0628 72.0787 29.305C75.2799 27.0677 75.0398 30.104 79.3615 29.3849C82.2426 28.9054 86.2441 26.5883 88.725 31.2226C89.4453 32.581 89.2052 35.3776 89.7654 36.6561C90.2456 37.7747 91.4461 38.2541 92.8066 38.4938L92.6465 36.8159C92.6465 36.8159 92.6465 35.4575 92.6465 33.8594C94.7273 30.9829 94.7273 25.7093 94.007 23.2323C93.847 23.1524 94.0871 23.1524 94.0871 23.1524Z" fill="#4C2518"/>
<path d="M94.0068 36.736C92.8063 36.4164 91.4458 37.4551 91.0457 39.0532C90.6455 40.6513 91.2057 42.2493 92.4062 42.5689C93.6066 42.8885 94.9672 41.8498 95.3673 40.2517C95.8475 38.6537 95.2073 37.0556 94.0068 36.736Z" fill="#E79D84"/>
<path d="M78.1607 178.884L79.041 174.329L78.4008 169.775C78.4008 169.775 76.4 169.375 76.2399 170.254C75.7598 172.971 72.2384 170.654 72.2384 170.654C72.2384 170.654 71.4381 167.457 68.9572 168.416C66.4762 169.375 63.355 172.571 63.355 172.571C63.355 172.571 58.7133 174.409 57.993 175.687C57.3527 176.886 57.5128 178.804 57.5128 178.804L78.1607 178.884Z" fill="#CFCFCF"/>
<path d="M56.7126 177.525L56.9527 178.724L79.3613 179.123L79.5213 176.806L56.7126 177.525Z" fill="#666666"/>
<path d="M68.637 172.252C69.1172 171.852 67.7567 170.094 67.1165 169.375C66.6363 169.695 66.1561 170.014 65.756 170.414C66.3962 171.053 68.0768 172.651 68.637 172.252Z" fill="#666666"/>
<path d="M63.035 172.651C63.5952 173.29 64.8757 174.729 65.4359 174.489C65.9961 174.169 64.7156 172.412 64.2355 171.692C63.6752 172.252 63.2751 172.571 63.2751 172.571C63.2751 172.571 63.1951 172.571 63.035 172.651Z" fill="#666666"/>
<path d="M63.355 175.688C63.7552 175.448 63.195 173.53 62.8749 172.731C62.5547 172.891 61.9945 173.131 61.3543 173.37C61.7544 174.01 62.9549 176.007 63.355 175.688Z" fill="#666666"/>
<path d="M67.2766 173.37C67.7568 173.051 66.3162 171.133 65.676 170.414C65.1158 170.814 64.6356 171.213 64.2354 171.613C65.0357 172.172 66.8764 173.69 67.2766 173.37Z" fill="#666666"/>
<path d="M57.2728 178.005C57.2728 178.005 55.4321 174.249 60.7141 173.61C60.7141 173.61 62.3147 175.048 62.2347 177.765L57.2728 178.005Z" fill="#666666"/>
<path d="M75.1197 177.525C75.1197 177.525 77.2005 171.373 78.561 171.453C78.721 171.453 79.9215 175.048 78.9611 177.366L75.1197 177.525Z" fill="#666666"/>
<path d="M101.53 178.884L102.41 174.329L101.77 169.775C101.77 169.775 99.7691 169.375 99.609 170.254C99.1288 172.971 95.6075 170.654 95.6075 170.654C95.6075 170.654 94.8072 167.457 92.3262 168.416C89.8453 169.375 86.7241 172.571 86.7241 172.571C86.7241 172.571 82.0823 174.409 81.362 175.687C80.7218 176.886 80.8819 178.804 80.8819 178.804L101.53 178.884Z" fill="#CFCFCF"/>
<path d="M80.0817 177.525L80.3218 178.724L102.57 179.203L102.89 176.806L80.0817 177.525Z" fill="#666666"/>
<path d="M92.0061 172.252C92.4863 171.852 91.1258 170.094 90.4855 169.375C90.0053 169.695 89.5252 170.014 89.125 170.414C89.7652 171.053 91.4459 172.651 92.0061 172.252Z" fill="#666666"/>
<path d="M86.4041 172.651C86.9643 173.29 88.2448 174.729 88.805 174.489C89.3652 174.169 88.0847 172.412 87.6045 171.692C87.0443 172.252 86.6441 172.571 86.6441 172.571C86.6441 172.571 86.5641 172.571 86.4041 172.651Z" fill="#666666"/>
<path d="M86.7241 175.688C87.1242 175.448 86.564 173.53 86.2439 172.731C85.9238 172.891 85.3636 173.131 84.7233 173.37C85.1235 174.01 86.2439 176.007 86.7241 175.688Z" fill="#666666"/>
<path d="M90.6457 173.37C91.1258 173.051 89.6853 171.133 89.045 170.414C88.4848 170.814 88.0046 171.213 87.6045 171.613C88.3248 172.172 90.1655 173.69 90.6457 173.37Z" fill="#666666"/>
<path d="M80.6418 178.005C80.6418 178.005 78.8011 174.249 84.0831 173.61C84.0831 173.61 85.6838 175.048 85.6037 177.765L80.6418 178.005Z" fill="#666666"/>
<path d="M98.4887 177.525C98.4887 177.525 100.57 171.373 101.93 171.453C102.09 171.453 103.291 175.048 102.33 177.366L98.4887 177.525Z" fill="#666666"/>
<path d="M93.0464 56.2324C93.0464 56.2324 90.2453 59.6683 87.1241 72.1331C84.0029 84.598 95.2072 99.7796 95.2072 99.7796L96.6478 91.8692C96.6478 91.8692 91.1257 80.2034 92.8863 72.5327C94.647 64.862 98.3284 58.3898 98.3284 58.3898L93.0464 56.2324Z" fill="#6C2E3F"/>
<path d="M94.0868 76.2881C94.0868 76.2881 102.17 76.5278 105.771 82.201C109.132 87.4746 108.172 87.954 108.172 87.954C108.172 87.954 97.2079 95.0654 91.2057 81.1622C88.0845 73.891 94.0868 76.2881 94.0868 76.2881Z" fill="#4C2518"/>
<path d="M93.0467 86.0362C93.0467 86.0362 95.6877 85.6367 96.8081 83.719C98.0086 81.7214 97.6884 77.8861 96.2479 75.8885C95.3676 75.7287 93.0467 75.4091 93.0467 75.4091C93.0467 75.4091 88.1648 73.8909 91.286 81.1621C92.0063 82.92 92.0863 84.9176 93.0467 86.0362Z" fill="#BF9C8C"/>
<path d="M94.0868 76.288C94.0868 76.288 94.4869 73.6512 92.4862 73.4914C90.5654 73.4115 89.1249 72.5326 87.6843 72.2929C86.2438 72.0532 86.6439 73.3316 85.0433 73.3316C83.4427 73.2517 82.8025 73.2517 82.8025 73.2517C82.8025 73.2517 81.8421 74.8498 83.2026 75.6488C84.5631 76.4478 85.0433 76.0483 85.0433 76.0483C85.0433 76.0483 84.6432 76.7675 85.2834 77.0871C85.9237 77.4067 85.9237 77.4067 85.9237 77.4067C85.9237 77.4067 85.2834 77.4866 85.5235 78.6052C85.7636 79.7239 86.4839 80.0435 86.4839 80.0435C86.4839 80.0435 86.1637 80.7626 86.3238 81.3219C86.5639 81.8813 86.9641 82.0411 86.9641 82.0411C86.9641 82.0411 86.804 82.6004 86.884 82.92C87.0441 83.1597 88.3246 84.1185 88.3246 84.1185H93.1264C93.1264 84.1185 93.9267 83.0798 93.6866 82.4406C93.6866 82.4406 95.0471 80.5229 95.0471 80.2832C95.0471 80.1234 94.807 80.1234 94.727 79.644C94.647 79.1646 95.6073 78.5253 95.4473 78.0459C95.2872 77.5665 94.0868 76.288 94.0868 76.288Z" fill="#D78C74"/>
<path d="M94.0868 76.288C94.0868 76.288 94.4869 73.6512 92.4862 73.4914C90.5654 73.4115 89.1249 72.5326 87.6843 72.2929C86.2438 72.0532 86.6439 73.3316 85.0433 73.3316C83.4427 73.2517 82.8025 73.2517 82.8025 73.2517C82.8025 73.2517 81.8421 74.8498 83.2026 75.6488C84.5631 76.4478 85.0433 76.0483 85.0433 76.0483C85.0433 76.0483 84.6432 76.7675 85.2834 77.0871C85.9237 77.4067 85.9237 77.4067 85.9237 77.4067C85.9237 77.4067 85.2834 77.4866 85.5235 78.6052C85.7636 79.7239 86.4839 80.0435 86.4839 80.0435C86.4839 80.0435 86.1637 80.7626 86.3238 81.3219C86.5639 81.8813 86.9641 82.0411 86.9641 82.0411C86.9641 82.0411 86.3238 83.0798 86.4038 83.3994C86.4839 83.719 87.7644 84.2783 87.7644 84.2783L93.7667 83.9587C93.7667 83.9587 94.647 82.92 94.4069 82.2808C94.4069 82.2808 94.9671 80.5229 94.9671 80.2832C94.9671 80.1234 94.727 80.1234 94.647 79.644C94.567 79.1645 95.5273 78.5253 95.3673 78.0459C95.2872 77.4866 94.0868 76.288 94.0868 76.288Z" fill="#E5A185"/>
<path d="M106.332 92.908C106.332 92.908 99.8493 107.37 107.612 107.291C115.375 107.211 117.696 94.6659 115.215 92.908C112.814 91.1501 106.332 92.908 106.332 92.908Z" fill="#6C2E3F"/>
<path d="M46.629 96.0242C46.629 96.0242 43.3477 96.983 42.9476 97.7021C42.5474 98.4213 41.507 101.378 41.587 101.458C41.6671 101.537 45.1884 107.45 45.5085 107.131C45.9087 106.811 44.6282 104.254 44.6282 104.254C44.6282 104.254 47.1892 105.772 47.4293 105.213C47.7494 104.734 46.8691 104.174 46.8691 104.174C46.8691 104.174 48.2296 103.695 48.3096 103.455C48.3896 103.215 47.3492 102.896 47.3492 102.896C47.3492 102.896 49.8302 101.058 49.9102 100.738C49.9902 100.419 50.6305 96.8232 50.6305 96.8232L46.629 96.0242Z" fill="#E5A185"/>
<path d="M48.3893 90.7505L46.1485 95.6246L50.6302 99.9394L55.5921 94.5858L48.3893 90.7505Z" fill="#BF9C8C"/>
<path d="M82.7227 44.0872H74.5596C74.0794 44.0872 73.7593 44.6465 73.9194 45.1259C74.8797 47.4431 76.6404 49.0412 78.7212 49.0412C80.7219 49.0412 82.4826 47.4431 83.363 45.1259C83.523 44.6465 83.2029 44.0872 82.7227 44.0872Z" fill="white"/>
<path d="M72.6388 36.4964C71.8385 36.4164 71.1982 37.3753 71.1182 38.6537C71.0382 39.9322 71.5984 41.0508 72.3987 41.1307C73.199 41.2106 73.8392 40.2518 73.9193 38.9733C73.9993 37.6949 73.4391 36.5763 72.6388 36.4964Z" fill="#4C2518"/>
<path d="M84.5632 36.3364C83.7629 36.2565 83.1226 37.2154 82.9626 38.4938C82.8025 39.7723 83.4428 40.9708 84.2431 41.0507C85.0434 41.1306 85.6836 40.1718 85.8437 38.8933C85.9237 37.6149 85.3635 36.4962 84.5632 36.3364Z" fill="#4C2518"/>
</g>
<path d="M38.3754 224.192C37.5754 224.192 36.9034 224.037 36.3594 223.728C35.826 223.419 35.378 222.944 35.0154 222.304L36.6154 221.12C36.8074 221.472 37.0314 221.733 37.2874 221.904C37.5434 222.075 37.8047 222.16 38.0714 222.16C38.498 222.16 38.818 222.032 39.0314 221.776C39.2554 221.509 39.3674 221.029 39.3674 220.336V213.568H41.7194V220.528C41.7194 221.029 41.65 221.504 41.5114 221.952C41.3834 222.4 41.1807 222.789 40.9034 223.12C40.6367 223.451 40.29 223.712 39.8634 223.904C39.4474 224.096 38.9514 224.192 38.3754 224.192ZM46.644 224.192C45.78 224.192 45.1507 223.909 44.756 223.344C44.372 222.779 44.18 221.995 44.18 220.992V216.064H46.532V220.688C46.532 221.264 46.612 221.659 46.772 221.872C46.932 222.085 47.1827 222.192 47.524 222.192C47.8227 222.192 48.0733 222.123 48.276 221.984C48.4787 221.845 48.6973 221.621 48.932 221.312V216.064H51.284V224H49.364L49.188 222.896H49.14C48.7987 223.301 48.4307 223.621 48.036 223.856C47.652 224.08 47.188 224.192 46.644 224.192ZM56.0098 224.192C55.4871 224.192 54.9484 224.091 54.3938 223.888C53.8498 223.685 53.3751 223.419 52.9698 223.088L54.0258 221.616C54.3884 221.893 54.7351 222.101 55.0658 222.24C55.3964 222.379 55.7324 222.448 56.0738 222.448C56.4258 222.448 56.6818 222.389 56.8418 222.272C57.0018 222.155 57.0818 221.989 57.0818 221.776C57.0818 221.648 57.0338 221.536 56.9378 221.44C56.8524 221.333 56.7298 221.237 56.5698 221.152C56.4204 221.067 56.2498 220.992 56.0578 220.928C55.8658 220.853 55.6684 220.773 55.4658 220.688C55.2204 220.592 54.9751 220.48 54.7298 220.352C54.4844 220.224 54.2604 220.069 54.0578 219.888C53.8551 219.696 53.6898 219.477 53.5618 219.232C53.4338 218.976 53.3698 218.683 53.3698 218.352C53.3698 217.989 53.4391 217.653 53.5778 217.344C53.7271 217.035 53.9351 216.773 54.2018 216.56C54.4684 216.347 54.7884 216.181 55.1618 216.064C55.5351 215.936 55.9511 215.872 56.4098 215.872C57.0178 215.872 57.5511 215.979 58.0098 216.192C58.4684 216.395 58.8684 216.624 59.2098 216.88L58.1538 218.288C57.8658 218.075 57.5831 217.909 57.3058 217.792C57.0284 217.675 56.7511 217.616 56.4738 217.616C55.8764 217.616 55.5778 217.824 55.5778 218.24C55.5778 218.368 55.6204 218.48 55.7058 218.576C55.7911 218.661 55.9031 218.741 56.0418 218.816C56.1911 218.891 56.3564 218.965 56.5378 219.04C56.7298 219.104 56.9271 219.173 57.1298 219.248C57.3858 219.344 57.6364 219.456 57.8818 219.584C58.1378 219.701 58.3671 219.851 58.5698 220.032C58.7831 220.213 58.9538 220.437 59.0818 220.704C59.2098 220.96 59.2738 221.269 59.2738 221.632C59.2738 221.995 59.2044 222.331 59.0658 222.64C58.9271 222.949 58.7191 223.221 58.4418 223.456C58.1644 223.68 57.8231 223.861 57.4178 224C57.0124 224.128 56.5431 224.192 56.0098 224.192ZM63.831 224.192C63.3403 224.192 62.919 224.117 62.567 223.968C62.2257 223.819 61.943 223.611 61.719 223.344C61.5057 223.077 61.3457 222.757 61.239 222.384C61.143 222 61.095 221.579 61.095 221.12V217.904H60.007V216.16L61.223 216.064L61.495 213.952H63.447V216.064H65.351V217.904H63.447V221.088C63.447 221.536 63.5377 221.861 63.719 222.064C63.911 222.256 64.1617 222.352 64.471 222.352C64.599 222.352 64.727 222.336 64.855 222.304C64.9937 222.272 65.1163 222.235 65.223 222.192L65.591 223.904C65.3777 223.968 65.127 224.032 64.839 224.096C64.551 224.16 64.215 224.192 63.831 224.192ZM70.9351 224V213.568H73.5111L75.1911 218.208C75.2978 218.517 75.3991 218.837 75.4951 219.168C75.5911 219.488 75.6925 219.808 75.7991 220.128H75.8631C75.9698 219.808 76.0658 219.488 76.1511 219.168C76.2471 218.837 76.3485 218.517 76.4551 218.208L78.1031 213.568H80.6631V224H78.5191V220.176C78.5191 219.92 78.5298 219.637 78.5511 219.328C78.5725 219.019 78.5991 218.709 78.6311 218.4C78.6631 218.08 78.6951 217.771 78.7271 217.472C78.7591 217.163 78.7911 216.88 78.8231 216.624H78.7591L77.9111 219.104L76.4231 223.088H75.1271L73.6391 219.104L72.8071 216.624H72.7431C72.7751 216.88 72.8071 217.163 72.8391 217.472C72.8711 217.771 72.9031 218.08 72.9351 218.4C72.9671 218.709 72.9938 219.019 73.0151 219.328C73.0365 219.637 73.0471 219.92 73.0471 220.176V224H70.9351ZM84.1306 227.104C83.8853 227.104 83.6773 227.088 83.5066 227.056C83.336 227.035 83.1706 226.997 83.0106 226.944L83.4266 225.152C83.5013 225.173 83.5866 225.195 83.6826 225.216C83.7786 225.237 83.8693 225.248 83.9546 225.248C84.3493 225.248 84.6533 225.152 84.8666 224.96C85.08 224.768 85.24 224.517 85.3466 224.208L85.4586 223.792L82.4026 216.064H84.7706L85.9066 219.472C86.024 219.835 86.1306 220.203 86.2266 220.576C86.3226 220.949 86.424 221.333 86.5306 221.728H86.5946C86.68 221.355 86.7653 220.981 86.8506 220.608C86.9466 220.224 87.0426 219.845 87.1386 219.472L88.0986 216.064H90.3546L87.6026 224.08C87.4106 224.581 87.208 225.019 86.9946 225.392C86.792 225.776 86.552 226.091 86.2746 226.336C86.008 226.592 85.6986 226.784 85.3466 226.912C85.0053 227.04 84.6 227.104 84.1306 227.104ZM94.2504 224.192C93.7277 224.192 93.189 224.091 92.6344 223.888C92.0904 223.685 91.6157 223.419 91.2104 223.088L92.2664 221.616C92.629 221.893 92.9757 222.101 93.3064 222.24C93.637 222.379 93.973 222.448 94.3144 222.448C94.6664 222.448 94.9224 222.389 95.0824 222.272C95.2424 222.155 95.3224 221.989 95.3224 221.776C95.3224 221.648 95.2744 221.536 95.1784 221.44C95.093 221.333 94.9704 221.237 94.8104 221.152C94.661 221.067 94.4904 220.992 94.2984 220.928C94.1064 220.853 93.909 220.773 93.7064 220.688C93.461 220.592 93.2157 220.48 92.9704 220.352C92.725 220.224 92.501 220.069 92.2984 219.888C92.0957 219.696 91.9304 219.477 91.8024 219.232C91.6744 218.976 91.6104 218.683 91.6104 218.352C91.6104 217.989 91.6797 217.653 91.8184 217.344C91.9677 217.035 92.1757 216.773 92.4424 216.56C92.709 216.347 93.029 216.181 93.4024 216.064C93.7757 215.936 94.1917 215.872 94.6504 215.872C95.2584 215.872 95.7917 215.979 96.2504 216.192C96.709 216.395 97.109 216.624 97.4504 216.88L96.3944 218.288C96.1064 218.075 95.8237 217.909 95.5464 217.792C95.269 217.675 94.9917 217.616 94.7144 217.616C94.117 217.616 93.8184 217.824 93.8184 218.24C93.8184 218.368 93.861 218.48 93.9464 218.576C94.0317 218.661 94.1437 218.741 94.2824 218.816C94.4317 218.891 94.597 218.965 94.7784 219.04C94.9704 219.104 95.1677 219.173 95.3704 219.248C95.6264 219.344 95.877 219.456 96.1224 219.584C96.3784 219.701 96.6077 219.851 96.8104 220.032C97.0237 220.213 97.1944 220.437 97.3224 220.704C97.4504 220.96 97.5144 221.269 97.5144 221.632C97.5144 221.995 97.445 222.331 97.3064 222.64C97.1677 222.949 96.9597 223.221 96.6824 223.456C96.405 223.68 96.0637 223.861 95.6584 224C95.253 224.128 94.7837 224.192 94.2504 224.192ZM102.88 224.192C102.315 224.192 101.787 224.101 101.296 223.92C100.805 223.728 100.379 223.456 100.016 223.104C99.6535 222.741 99.3708 222.304 99.1681 221.792C98.9655 221.28 98.8641 220.693 98.8641 220.032C98.8641 219.392 98.9708 218.816 99.1841 218.304C99.3975 217.781 99.6748 217.344 100.016 216.992C100.368 216.629 100.768 216.352 101.216 216.16C101.664 215.968 102.128 215.872 102.608 215.872C103.173 215.872 103.664 215.968 104.08 216.16C104.507 216.352 104.859 216.619 105.136 216.96C105.424 217.301 105.637 217.707 105.776 218.176C105.915 218.635 105.984 219.136 105.984 219.68C105.984 219.893 105.973 220.096 105.952 220.288C105.931 220.48 105.909 220.624 105.888 220.72H101.136C101.243 221.296 101.477 221.723 101.84 222C102.213 222.267 102.667 222.4 103.2 222.4C103.765 222.4 104.336 222.224 104.912 221.872L105.696 223.296C105.291 223.573 104.837 223.792 104.336 223.952C103.845 224.112 103.36 224.192 102.88 224.192ZM101.12 219.168H103.984C103.984 218.72 103.883 218.357 103.68 218.08C103.477 217.803 103.136 217.664 102.656 217.664C102.283 217.664 101.952 217.787 101.664 218.032C101.387 218.277 101.205 218.656 101.12 219.168ZM110.089 224.192C109.684 224.192 109.343 224.128 109.065 224C108.788 223.872 108.564 223.696 108.393 223.472C108.233 223.237 108.116 222.96 108.041 222.64C107.967 222.309 107.929 221.941 107.929 221.536V212.784H110.281V221.632C110.281 221.877 110.324 222.048 110.409 222.144C110.505 222.24 110.601 222.288 110.697 222.288C110.751 222.288 110.793 222.288 110.825 222.288C110.868 222.288 110.921 222.277 110.985 222.256L111.273 224C111.145 224.053 110.98 224.096 110.777 224.128C110.585 224.171 110.356 224.192 110.089 224.192ZM113.227 224V217.904H112.171V216.16L113.227 216.08V215.648C113.227 215.232 113.275 214.837 113.371 214.464C113.478 214.091 113.649 213.765 113.883 213.488C114.118 213.211 114.422 212.992 114.795 212.832C115.169 212.672 115.622 212.592 116.155 212.592C116.486 212.592 116.785 212.624 117.051 212.688C117.329 212.752 117.558 212.816 117.739 212.88L117.307 214.608C117.009 214.501 116.737 214.448 116.491 214.448C116.203 214.448 115.979 214.539 115.819 214.72C115.659 214.891 115.579 215.179 115.579 215.584V216.064H117.003V217.904H115.579V224H113.227Z" fill="#0C345A"/>
<defs>
<filter id="filter0_ii" x="-2.5" y="-3" width="156" height="266" filterUnits="userSpaceOnUse" color-interpolation-filters="sRGB">
<feFlood flood-opacity="0" result="BackgroundImageFix"/>
<feBlend mode="normal" in="SourceGraphic" in2="BackgroundImageFix" result="shape"/>
<feColorMatrix in="SourceAlpha" type="matrix" values="0 0 0 0 0 0 0 0 0 0 0 0 0 0 0 0 0 0 127 0" result="hardAlpha"/>
<feMorphology radius="2" operator="erode" in="SourceAlpha" result="effect1_innerShadow"/>
<feOffset dx="-3" dy="-3"/>
<feGaussianBlur stdDeviation="1.5"/>
<feComposite in2="hardAlpha" operator="arithmetic" k2="-1" k3="1"/>
<feColorMatrix type="matrix" values="0 0 0 0 0 0 0 0 0 0 0 0 0 0 0 0 0 0 0.2 0"/>
<feBlend mode="normal" in2="shape" result="effect1_innerShadow"/>
<feColorMatrix in="SourceAlpha" type="matrix" values="0 0 0 0 0 0 0 0 0 0 0 0 0 0 0 0 0 0 127 0" result="hardAlpha"/>
<feMorphology radius="2" operator="erode" in="SourceAlpha" result="effect2_innerShadow"/>
<feOffset dx="3" dy="3"/>
<feGaussianBlur stdDeviation="2"/>
<feComposite in2="hardAlpha" operator="arithmetic" k2="-1" k3="1"/>
<feColorMatrix type="matrix" values="0 0 0 0 1 0 0 0 0 1 0 0 0 0 1 0 0 0 0.34 0"/>
<feBlend mode="normal" in2="effect1_innerShadow" result="effect2_innerShadow"/>
</filter>
<clipPath id="clip0">
<rect width="105" height="165" fill="white" transform="translate(23.5 17)"/>
</clipPath>
</defs>
</svg>
