<svg width="146" height="116" viewBox="0 0 146 116" fill="none" xmlns="http://www.w3.org/2000/svg">
<g filter="url(#filter0_ii)">
<path fill-rule="evenodd" clip-rule="evenodd" d="M39.3795 2.86926L4.33995 -3.05176e-05L0.5 62.8852L5.53993 64.7981L7.6999 63.6025L9.85987 64.3198L14.4198 67.4282L14.6598 69.5802L16.3398 73.4059L18.3797 71.8517L22.8197 73.2864L25.2197 74.3624L24.2597 78.4272L25.9396 80.34L27.1396 82.492L30.9796 84.644L33.8595 87.7524L36.4995 92.0563L38.1795 93.0127L38.8995 92.7736L38.6595 91.339L38.8995 89.9043L42.4994 89.187L46.5794 90.8608L53.0593 93.0127L58.5792 93.2518L63.1391 94.2083L68.1791 93.4909L72.499 95.4038V99.4686L73.459 101.86L73.219 105.446L89.0588 115.728L90.2587 114.293L91.6987 105.685L93.6187 99.9468L96.0187 93.9692L100.339 89.4261L103.459 86.3177L105.619 79.1445L108.258 74.3624L110.418 69.102L117.138 61.2114L125.778 55.712L126.978 52.3645L128.898 49.4952L131.298 46.6259L133.938 40.8873L136.098 35.8661V31.5621L139.218 24.628L141.858 17.2157L144.978 11.4771L145.218 5.26033L139.458 6.45587L137.058 5.26033L134.418 4.54301L128.658 7.17319L128.898 9.32516L127.938 11.7162H125.298L123.138 10.5207L121.938 12.6727L120.018 13.6291L118.338 13.1509L118.098 10.7598L116.418 8.84694L115.218 7.89051L113.538 6.69497L110.898 6.21676L109.458 5.73854L107.778 4.54301L102.739 4.78212L100.339 4.06479L97.4586 4.78212L93.8587 8.36873L65.0591 5.26033L39.3795 2.86926ZM82.8188 86.3177L80.6589 89.6652L80.4189 91.5781L81.1389 93.9692L83.2988 96.3602L84.4988 91.5781L86.6588 88.9479L85.6988 86.3177H82.8188Z" fill="#77B5EE"/>
</g>
<path d="M43.3268 44V32.264H46.0448L49.1048 38.096L50.2568 40.688H50.3288C50.2688 40.064 50.1968 39.368 50.1128 38.6C50.0408 37.832 50.0048 37.1 50.0048 36.404V32.264H52.5248V44H49.8068L46.7468 38.15L45.5948 35.594H45.5228C45.5828 36.242 45.6488 36.938 45.7208 37.682C45.8048 38.426 45.8468 39.146 45.8468 39.842V44H43.3268ZM59.2395 44.216C58.4715 44.216 57.7035 44.078 56.9355 43.802C56.1795 43.514 55.5015 43.088 54.9015 42.524L56.4135 40.706C56.8335 41.066 57.2955 41.36 57.7995 41.588C58.3155 41.816 58.8195 41.93 59.3115 41.93C59.8635 41.93 60.2715 41.828 60.5355 41.624C60.8115 41.42 60.9495 41.144 60.9495 40.796C60.9495 40.616 60.9075 40.46 60.8235 40.328C60.7515 40.196 60.6375 40.082 60.4815 39.986C60.3375 39.878 60.1575 39.782 59.9415 39.698C59.7375 39.602 59.5095 39.5 59.2575 39.392L57.7275 38.744C57.4275 38.624 57.1335 38.468 56.8455 38.276C56.5695 38.084 56.3175 37.862 56.0895 37.61C55.8735 37.346 55.6995 37.046 55.5675 36.71C55.4355 36.362 55.3695 35.972 55.3695 35.54C55.3695 35.06 55.4715 34.61 55.6755 34.19C55.8795 33.758 56.1675 33.386 56.5395 33.074C56.9115 32.75 57.3495 32.498 57.8535 32.318C58.3695 32.138 58.9335 32.048 59.5455 32.048C60.2295 32.048 60.9015 32.18 61.5615 32.444C62.2335 32.708 62.8215 33.092 63.3255 33.596L61.9755 35.27C61.5915 34.97 61.2075 34.742 60.8235 34.586C60.4395 34.418 60.0135 34.334 59.5455 34.334C59.0895 34.334 58.7235 34.43 58.4475 34.622C58.1835 34.802 58.0515 35.06 58.0515 35.396C58.0515 35.576 58.0935 35.732 58.1775 35.864C58.2735 35.984 58.3995 36.098 58.5555 36.206C58.7235 36.302 58.9155 36.398 59.1315 36.494C59.3475 36.578 59.5815 36.674 59.8335 36.782L61.3455 37.394C62.0655 37.682 62.6295 38.078 63.0375 38.582C63.4575 39.086 63.6675 39.752 63.6675 40.58C63.6675 41.072 63.5655 41.54 63.3615 41.984C63.1695 42.416 62.8815 42.8 62.4975 43.136C62.1255 43.46 61.6635 43.724 61.1115 43.928C60.5595 44.12 59.9355 44.216 59.2395 44.216ZM67.0635 44L64.8855 32.264H67.6035L68.4135 37.754C68.4855 38.366 68.5635 38.984 68.6475 39.608C68.7315 40.22 68.8095 40.838 68.8815 41.462H68.9535C69.0735 40.838 69.1875 40.22 69.2955 39.608C69.4155 38.984 69.5355 38.366 69.6555 37.754L70.9155 32.264H73.1655L74.4255 37.754C74.5455 38.354 74.6595 38.966 74.7675 39.59C74.8875 40.202 75.0075 40.826 75.1275 41.462H75.1995C75.2835 40.826 75.3615 40.202 75.4335 39.59C75.5175 38.978 75.6015 38.366 75.6855 37.754L76.4955 32.264H79.0335L76.9455 44H73.6155L72.4635 38.672C72.3675 38.216 72.2775 37.76 72.1935 37.304C72.1215 36.836 72.0555 36.386 71.9955 35.954H71.9235C71.8515 36.386 71.7735 36.836 71.6895 37.304C71.6175 37.76 71.5335 38.216 71.4375 38.672L70.3395 44H67.0635ZM83.8336 46.88L87.4516 31.22H89.1796L85.5616 46.88H83.8336ZM54.5749 56.06L54.2869 57.14H56.7889L56.5189 56.06C56.3509 55.472 56.1889 54.848 56.0329 54.188C55.8769 53.528 55.7209 52.892 55.5649 52.28H55.4929C55.3489 52.904 55.1989 53.546 55.0429 54.206C54.8989 54.854 54.7429 55.472 54.5749 56.06ZM50.3269 62L53.9989 50.264H57.1849L60.8569 62H58.0489L57.3289 59.21H53.7469L53.0269 62H50.3269ZM67.2195 62.216C66.4755 62.216 65.7735 62.09 65.1135 61.838C64.4535 61.574 63.8715 61.19 63.3675 60.686C62.8755 60.182 62.4855 59.558 62.1975 58.814C61.9095 58.058 61.7655 57.188 61.7655 56.204C61.7655 55.232 61.9155 54.368 62.2155 53.612C62.5155 52.844 62.9175 52.196 63.4215 51.668C63.9255 51.14 64.5135 50.738 65.1855 50.462C65.8575 50.186 66.5655 50.048 67.3095 50.048C68.0655 50.048 68.7435 50.204 69.3435 50.516C69.9435 50.816 70.4415 51.17 70.8375 51.578L69.4335 53.27C69.1335 52.994 68.8155 52.772 68.4795 52.604C68.1555 52.424 67.7835 52.334 67.3635 52.334C66.9675 52.334 66.5895 52.424 66.2295 52.604C65.8815 52.772 65.5755 53.018 65.3115 53.342C65.0595 53.666 64.8555 54.062 64.6995 54.53C64.5555 54.998 64.4835 55.526 64.4835 56.114C64.4835 57.326 64.7415 58.268 65.2575 58.94C65.7735 59.6 66.4635 59.93 67.3275 59.93C67.8075 59.93 68.2335 59.828 68.6055 59.624C68.9895 59.408 69.3255 59.144 69.6135 58.832L71.0175 60.488C70.0335 61.64 68.7675 62.216 67.2195 62.216ZM75.2351 62V52.496H72.0131V50.264H81.1211V52.496H77.8991V62H75.2351Z" fill="white"/>
<defs>
<filter id="filter0_ii" x="-2.5" y="-3.00003" width="150.718" height="121.728" filterUnits="userSpaceOnUse" color-interpolation-filters="sRGB">
<feFlood flood-opacity="0" result="BackgroundImageFix"/>
<feBlend mode="normal" in="SourceGraphic" in2="BackgroundImageFix" result="shape"/>
<feColorMatrix in="SourceAlpha" type="matrix" values="0 0 0 0 0 0 0 0 0 0 0 0 0 0 0 0 0 0 127 0" result="hardAlpha"/>
<feMorphology radius="2" operator="erode" in="SourceAlpha" result="effect1_innerShadow"/>
<feOffset dx="-3" dy="-3"/>
<feGaussianBlur stdDeviation="1.5"/>
<feComposite in2="hardAlpha" operator="arithmetic" k2="-1" k3="1"/>
<feColorMatrix type="matrix" values="0 0 0 0 0 0 0 0 0 0 0 0 0 0 0 0 0 0 0.2 0"/>
<feBlend mode="normal" in2="shape" result="effect1_innerShadow"/>
<feColorMatrix in="SourceAlpha" type="matrix" values="0 0 0 0 0 0 0 0 0 0 0 0 0 0 0 0 0 0 127 0" result="hardAlpha"/>
<feMorphology radius="2" operator="erode" in="SourceAlpha" result="effect2_innerShadow"/>
<feOffset dx="3" dy="3"/>
<feGaussianBlur stdDeviation="2"/>
<feComposite in2="hardAlpha" operator="arithmetic" k2="-1" k3="1"/>
<feColorMatrix type="matrix" values="0 0 0 0 1 0 0 0 0 1 0 0 0 0 1 0 0 0 0.34 0"/>
<feBlend mode="normal" in2="effect1_innerShadow" result="effect2_innerShadow"/>
</filter>
</defs>
</svg>

