<svg width="151" height="260" viewBox="0 0 151 260" fill="none" xmlns="http://www.w3.org/2000/svg">
<g filter="url(#filter0_ii)">
<rect x="0.5" width="150" height="260" rx="4" fill="white"/>
</g>
<path opacity="0.14" d="M75.6928 168.614C37.692 168.614 9.5 174.513 9.5 174.513C9.5 174.513 29.3921 180 75.6928 180C120.622 180 141.886 174.513 141.886 174.513C141.886 174.513 113.694 168.614 75.6928 168.614Z" fill="#260F00"/>
<path d="M19.7207 108.663C19.7207 108.663 22.6016 110.309 22.6016 111.338C22.6016 111.818 19.9951 109.692 19.9951 109.692L19.7207 108.663Z" fill="#D78C74"/>
<path d="M19.9257 109.211C19.9257 109.211 22.1207 108.457 22.6008 109.143C22.8066 109.486 20.1315 109.829 20.1315 109.829L19.9257 109.211Z" fill="#D78C74"/>
<path d="M50.3136 42.4012C50.1078 42.4698 43.5914 35.7477 37.4866 42.6756C29.8041 51.387 30.6958 63.8025 31.0388 71.0048C31.4504 70.5246 48.6674 73.6799 54.4292 65.3115C60.2597 56.7373 55.8697 40.6178 50.3136 42.4012Z" fill="#827C7C"/>
<path d="M46.8155 70.1816L47.0898 64.8999C47.1584 63.5966 46.2667 62.4991 45.1006 62.4991C43.9345 62.4305 42.9742 63.4594 42.9056 64.6941L42.6313 70.113V70.1816H46.8155Z" fill="#E5A185"/>
<path d="M44.5511 66.0661C43.2478 66.1346 41.8073 65.8603 40.4355 65.2429C34.4678 62.4992 33.096 54.0622 35.5653 48.5747C35.5653 48.5747 35.5653 48.5061 35.6339 48.5061C35.9083 47.8887 36.2513 47.2714 36.6628 46.7227C38.0347 44.7334 39.8867 43.1558 42.1503 42.4013C43.1792 42.0583 44.2767 41.8525 45.3742 41.9211C51.8906 41.9211 55.4575 48.9177 55.1831 54.7481C54.8401 60.2356 50.1072 65.8603 44.5511 66.0661Z" fill="#E5A185"/>
<path d="M50.3136 42.4012C50.1078 42.4698 43.5914 35.7477 37.4866 42.6756C29.8041 51.387 30.6958 63.8025 31.0388 71.0048C31.0388 71.0048 33.028 55.777 41.0535 49.535C43.3856 47.7515 47.707 45.5565 47.707 45.5565C47.707 45.5565 48.1186 47.4772 49.6277 49.4664C51.8913 53.239 55.6639 55.5026 56.4184 60.0298C56.4184 60.3728 56.487 60.6471 56.487 60.9901C58.8878 52.2101 54.978 40.8922 50.3136 42.4012Z" fill="#AFA7A7"/>
<path d="M56.4861 57.2858C56.0059 58.7263 54.8398 59.618 53.8109 59.2751C52.782 58.9321 52.3705 57.4916 52.8506 56.1197C53.3308 54.6793 54.4969 53.7876 55.5258 54.1305C56.5547 54.4735 56.9662 55.914 56.4861 57.2858Z" fill="#E5A185"/>
<path d="M38.995 69.0842C38.995 69.0842 33.0959 81.774 29.6662 86.2326C25.482 91.7201 20.8863 102.627 20.8863 102.627L22.1895 103.381C22.1895 103.381 30.8323 93.092 32.2728 90.2797C33.7133 87.4673 39.2694 72.2395 39.2694 72.2395L38.995 69.0842Z" fill="#D78C74"/>
<path d="M21.7777 100.98L17.8679 108.731L19.2398 113.739C19.8571 113.601 19.034 109.486 19.034 109.486C19.034 109.486 20.2687 113.396 20.543 113.396C21.2976 113.19 20.2001 109.554 20.2001 109.554L22.4637 106.125C22.4637 106.125 22.9438 107.908 23.8355 109.006C24.3843 109.623 25.2074 109.143 25.2074 109.143C25.2074 109.143 23.9727 107.154 23.7669 105.713C23.5612 104.616 22.738 101.872 22.738 101.872L21.7777 100.98Z" fill="#D78C74"/>
<path d="M36.2515 82.1856C39.7498 82.5285 43.3166 82.9401 46.7463 83.4888C47.2265 82.0484 47.7752 80.6765 48.2554 79.3046C48.8727 77.384 49.4215 75.3948 49.9702 73.4742C50.3818 72.1023 50.9991 70.5932 51.2735 69.1528C46.1976 68.604 41.2588 68.947 39.6126 69.1528C39.1324 72.3081 37.8291 75.4634 36.3887 78.4815C36.3887 79.6476 36.3887 80.9509 36.2515 82.1856Z" fill="#E5A185"/>
<path d="M37.8292 77.6584C39.8184 72.9254 41.5332 68.7412 41.5332 68.7412H39.6812C39.0638 68.7412 38.4465 69.0156 38.1721 69.5643C37.349 70.9362 35.6342 73.6799 34.1937 76.6981C35.0854 76.9724 36.8688 77.384 37.8292 77.6584Z" fill="#F2CF7B"/>
<path d="M31.0381 102.146C31.0381 102.146 28.0885 122.724 30.9009 136.1C30.9009 136.1 30.0777 159.765 30.2149 167.036C30.2149 167.859 32.6157 167.036 32.6157 167.036C32.6157 167.036 41.8073 143.234 38.1718 131.504L44.0023 106.262L31.0381 102.146Z" fill="#D78C74"/>
<path d="M41.8073 102.764C41.8073 102.764 42.2189 127.526 43.9337 132.945C43.9337 132.945 48.0493 150.573 52.0964 167.447L54.8401 164.841C54.8401 164.841 56.8293 143.097 51.6162 131.299C51.6162 131.299 58.3384 107.291 56.2806 100.843C54.2228 94.3952 41.8073 102.764 41.8073 102.764Z" fill="#E5A185"/>
<path d="M30.4902 163.194L25.7572 173.072L23.0821 173.14L24.111 174.375H30.5588L33.6455 169.231L32.0678 174.375H33.5769L36.8008 166.281L34.4686 160.176L30.4902 163.194Z" fill="#D78C74"/>
<path d="M35.1535 162.097C30.9007 173.14 25.7562 173.072 25.7562 173.072L23.0124 173.141L24.1099 174.375H30.5577L33.6444 169.231L32.0668 174.375H33.5758L36.7997 166.281L35.1535 162.097Z" fill="#F2CF7B"/>
<path d="M50.9306 162.028L48.2554 175.061H56.1437L54.909 161.343L50.9306 162.028Z" fill="#E5A185"/>
<path d="M50.9306 162.028L48.2554 175.061H56.1437L55.0462 161.891L54.6346 172.523L50.7934 172.66L50.9306 162.028Z" fill="#F2CF7B"/>
<path d="M69.9312 123.136C66.5702 113.67 49.6275 90.0052 49.216 87.3987C48.873 84.7235 52.92 69.29 52.92 69.29C51.8225 69.1528 50.6564 69.0156 49.5589 68.947C48.4614 70.4561 45.4433 71.3478 43.5227 71.3478C41.8079 71.3478 41.945 69.7015 42.1508 68.8098C41.6707 68.7412 41.1905 68.7412 41.1905 68.7412C41.1905 68.7412 33.851 76.3551 34.1254 78.4129C34.3998 80.4021 36.1146 81.6368 36.1146 81.6368C36.1146 81.6368 23.219 122.381 26.923 138.501C28.2949 144.4 72.4006 130.064 69.9312 123.136Z" fill="#F2CF7B"/>
<path d="M67.1186 105.233C67.736 104.684 68.3533 105.301 68.9707 104.753C66.5699 102.146 59.8477 88.2903 59.8477 88.2903C59.8477 88.2903 55.7321 77.1095 53.6057 72.7881L50.6562 71.3477C51.0677 72.3766 55.8693 90.0737 55.8693 90.0737C55.9379 90.3481 64.7178 103.998 67.1186 105.233Z" fill="#E5A185"/>
<path d="M57.1731 78.7557C56.1442 75.8748 54.5666 69.2898 52.9203 69.2898L48.8047 71.3476C49.0791 72.0335 50.7939 75.6004 52.6459 80.4706C53.7434 79.9904 56.0756 79.1673 57.1731 78.7557Z" fill="#F2CF7B"/>
<path d="M72.9493 105.85C72.9493 105.85 70.5486 104.136 69.8626 104.204C69.1767 104.273 66.5701 105.164 66.5701 105.233C66.5701 105.302 64.3751 110.789 64.7867 110.858C65.1983 110.926 66.2272 108.731 66.2272 108.731C66.2272 108.731 66.5015 111.201 67.0503 111.132C67.599 111.064 67.4618 110.24 67.4618 110.24C67.4618 110.24 68.4908 110.926 68.6965 110.858C68.9023 110.789 68.5593 109.897 68.5593 109.897C68.5593 109.897 71.0973 110.652 71.3717 110.515C71.6461 110.378 74.3898 108.937 74.3898 108.937L72.9493 105.85Z" fill="#E5A185"/>
<path d="M71.7825 107.222C71.9883 107.497 72.2626 109.143 72.194 109.623C72.1254 110.103 71.5767 109.623 71.5767 109.623C71.5767 109.623 71.3709 110.24 71.1651 110.309C70.9594 110.377 70.5478 109.966 70.5478 109.966C70.5478 109.966 69.6561 111.063 69.5189 110.72C69.3817 110.446 69.1073 110.103 69.1073 110.103C69.1073 110.103 68.5586 110.72 68.4214 110.72C68.2156 110.72 67.5983 108.937 67.5983 108.937L71.7825 107.222Z" fill="#E5A185"/>
<path d="M47.0888 58.2463L40.3666 58.3149C39.9551 58.3149 39.6807 58.7265 39.8865 59.1381C40.641 60.9215 42.0815 62.0876 43.7963 62.0876C45.4426 62.0876 46.883 60.8529 47.6376 59.0695C47.7061 58.6579 47.4318 58.2463 47.0888 58.2463Z" fill="white"/>
<path d="M38.5841 52.896C37.8296 52.896 37.2122 53.6505 37.1436 54.6108C37.075 55.5711 37.6924 56.3943 38.4469 56.4629C39.2014 56.4629 39.8188 55.7083 39.8874 54.748C39.8874 53.7877 39.3386 52.9646 38.5841 52.896Z" fill="#381911"/>
<path d="M49.0792 53.0332C48.3246 53.0332 47.7073 53.7877 47.6387 54.748C47.5701 55.7084 48.1874 56.5315 48.942 56.6001C49.6965 56.6001 50.3139 55.8455 50.3824 54.8852C50.451 53.9249 49.8337 53.1018 49.0792 53.0332Z" fill="#381911"/>
<path d="M104.159 48.2317H104.776C106.08 48.2317 107.177 49.2606 107.177 50.5639L107.726 57.4232C107.726 58.7265 106.217 59.824 104.913 59.824H104.296C102.993 59.824 101.484 58.3835 101.484 57.0803L101.827 50.7011C101.758 49.3292 102.856 48.3003 104.159 48.2317Z" fill="#E79D84"/>
<path d="M114.585 38.7658C115.683 38.8344 116.506 40.0691 116.437 41.5782C116.369 43.0872 115.34 44.1847 114.242 44.1161C113.145 44.0475 112.322 42.8128 112.39 41.3038C112.528 39.8633 113.488 38.6972 114.585 38.7658Z" fill="#E09178"/>
<path d="M100.867 27.8593L104.503 27.5164C109.304 27.0362 113.763 32.0436 114.243 36.8451L114.86 43.4987C115.34 48.3002 111.773 52.6216 106.903 53.1018L103.268 53.4448C98.4663 53.9249 94.1449 50.3581 93.6648 45.4879L93.0474 38.8343C92.5673 34.0328 96.0655 28.2709 100.867 27.8593Z" fill="#E7A387"/>
<path d="M89.8235 27.7222C90.3037 27.5164 90.7152 27.6536 90.9896 27.7908C90.5781 27.0362 90.1665 26.2131 90.2351 25.2528C90.921 25.1842 91.607 25.733 91.7442 26.4189C91.5384 25.8701 91.607 25.1842 91.9499 24.7041C92.0185 24.6355 92.0185 24.5669 92.0871 24.5669C92.2243 24.4983 92.3615 24.6355 92.4301 24.7041C92.6359 24.9784 92.8416 25.8701 92.9102 26.0073C92.8416 26.0759 92.8416 26.0759 92.9102 26.0759C92.9102 26.0759 92.9102 26.0759 92.9102 26.0073C93.2532 25.733 94.8995 24.4297 96.4771 23.6066C99.358 22.0289 102.788 21.8231 102.788 21.9603C102.719 22.7148 102.445 23.4008 102.17 24.0867C103.885 22.2347 106.355 21.0686 108.893 21C108.893 21.6173 108.893 22.2347 108.755 22.852C108.618 23.4694 108.344 23.9495 107.795 24.2925C109.647 23.0578 111.568 21.9603 113.831 21.9603C113.968 21.9603 114.037 21.9603 114.106 22.0289C114.174 22.0975 114.174 22.1661 114.174 22.3033C114.38 23.6752 114.174 25.047 113.557 26.2817C113.763 26.0073 114.037 25.8016 114.311 25.733C114.86 26.6933 115.066 27.7908 115.066 28.8883C115.066 31.632 114.723 33.484 114.449 34.6501C114.792 36.9823 114.586 38.8343 114.586 38.9029C114.586 38.9029 114.586 38.7657 114.517 38.4914L114.586 38.9029C114.517 38.9029 112.871 32.9353 110.47 31.632C107.452 30.0544 108.001 32.6609 104.16 32.4551C101.622 32.3179 97.849 30.7403 96.1341 34.9931C95.654 36.2964 96.2027 38.6286 95.7912 39.8632C95.5168 40.8921 94.5565 41.4409 93.459 41.7839L93.3218 40.3434C93.3218 40.3434 93.0474 39.3831 92.8416 38.0112C91.1268 35.6104 90.1665 30.8089 90.5095 28.6139C90.5095 28.4767 90.5095 28.4767 90.5095 28.4767C90.5095 28.4767 89.6863 27.9965 89.8235 27.7222Z" fill="#AFA7A7"/>
<path d="M91.9498 40.5492C92.9787 40.1376 94.2134 40.9607 94.7622 42.3326C95.3109 43.7045 94.8993 45.145 93.8704 45.5565C92.8415 45.9681 91.6068 45.145 91.0581 43.7731C90.5094 42.3326 90.9209 40.8921 91.9498 40.5492Z" fill="#E7A387"/>
<path d="M101.485 45.5565L108.756 44.8706C109.167 44.802 109.51 45.2821 109.373 45.7623C108.756 47.8887 107.246 49.4664 105.463 49.6721C103.68 49.8093 101.965 48.5746 101.004 46.5854C100.799 46.1053 101.073 45.5565 101.485 45.5565Z" fill="white"/>
<path d="M109.852 38.0112C110.538 37.874 111.224 38.6285 111.361 39.7946C111.498 40.8921 111.087 41.9896 110.401 42.1268C109.715 42.264 109.029 41.5094 108.892 40.3434C108.755 39.1773 109.166 38.1484 109.852 38.0112Z" fill="#4C2518"/>
<path d="M99.22 38.8344C99.906 38.6972 100.592 39.4518 100.798 40.6178C101.003 41.7839 100.592 42.8128 99.906 43.0186C99.22 43.1558 98.5341 42.4013 98.3283 41.2352C98.1225 40.0691 98.5341 38.9716 99.22 38.8344Z" fill="#4C2518"/>
<path d="M85.5023 167.516L90.441 167.31L91.3327 161.274L86.3254 160.519L85.5023 167.516Z" fill="#474950"/>
<path d="M90.646 166.213C90.646 166.213 92.841 168.888 93.1153 174.375H81.9346C81.9346 174.375 82.4833 168.888 85.7072 166.007C85.7072 166.007 86.1188 166.899 88.0394 166.899C89.96 166.899 90.646 166.213 90.646 166.213Z" fill="#261F1F"/>
<path opacity="0.05" d="M86.1877 170.466C88.1083 170.466 90.0975 170.466 92.0181 170.74C92.2239 170.74 92.3611 170.809 92.5669 170.809C92.8412 171.837 92.9784 172.935 93.047 174.238H81.8663C81.8663 174.238 82.0721 172.523 82.758 170.466C83.9241 170.466 85.0902 170.397 86.1877 170.466Z" fill="white"/>
<path d="M93.5963 173.484C93.5277 173.689 93.3905 175.13 93.3905 175.13H81.5238L81.3867 173.346L93.5963 173.484Z" fill="#261F1F"/>
<path d="M93.8699 160.519C99.769 128.829 101.69 109.76 101.69 109.623L93.527 108.045C93.527 108.251 89.6857 128.692 83.7181 160.245C83.5809 161.068 84.1982 161.891 85.09 161.891L91.9493 162.097C92.9096 162.097 93.7328 161.411 93.8699 160.519Z" fill="#2E2B2B"/>
<path d="M73.1549 101.803L76.5845 104.41C76.5845 104.135 75.9672 106.811 74.5267 109.006L71.5772 108.114L73.1549 101.803Z" fill="#E5A185"/>
<path d="M70.4117 103.998L75.8306 107.497L78.0256 104.341L73.0868 101.117" fill="#EDEDED"/>
<path d="M71.9885 100.637C77.476 91.0343 85.8444 68.2612 90.0972 61.196L93.3897 62.8423C92.9782 64.1456 85.0213 93.0921 78.7793 104.479C78.3677 105.233 77.4074 105.439 76.6529 104.959L72.2629 102.009" fill="#8E6651"/>
<path d="M106.835 167.242L111.842 167.036L112.734 161L107.658 160.245L106.835 167.242Z" fill="#474950"/>
<path d="M121.787 170.534C119.181 171.357 113.282 165.733 112.184 164.635C112.184 164.635 110.744 166.075 107.177 164.635C104.707 165.87 104.845 171.494 104.982 173.552C104.982 173.964 105.325 174.307 105.805 174.375L110.401 174.718C110.744 174.718 111.018 174.512 111.018 174.17L111.087 173.689C111.087 173.689 111.087 173.689 115.682 175.267C120.278 176.845 125.628 174.718 125.628 174.718C125.628 174.718 125.628 174.718 125.697 172.866C125.697 170.946 124.394 169.711 121.787 170.534Z" fill="#261F1F"/>
<path opacity="0.05" d="M121.788 170.534C119.661 171.22 115.203 167.447 113.145 165.527C108.755 168.545 112.871 172.729 117.055 173.278C119.799 173.621 122.954 173.552 125.698 172.592C125.56 170.877 124.326 169.711 121.788 170.534Z" fill="white"/>
<path d="M93.1842 100.706L93.3214 109.897C93.3214 109.897 116.986 112.435 118.221 109.554C119.181 107.359 118.701 101.666 118.701 101.666L93.1842 100.706Z" fill="#2E2B2B"/>
<path d="M109.784 109.966C109.784 110.103 110.538 125.811 105.462 160.039C105.394 160.588 105.668 161.137 106.217 161.205L113.488 161.891C114.105 161.96 114.791 161.548 114.928 160.931C120.279 126.84 118.77 109.28 118.701 107.016L109.784 109.966Z" fill="#2E2B2B"/>
<path d="M99.7687 57.3547C100.043 57.3547 100.249 57.2861 100.455 57.2861C102.855 57.149 111.292 56.3258 115.477 57.4919C115.271 60.7844 115.339 64.1455 115.202 67.2322C115.134 68.1925 115.065 69.1528 115.065 70.1131C110.538 70.3875 106.011 70.7305 101.483 70.8677C99.7001 70.9363 97.9166 71.0049 96.1332 71.0735C95.3787 66.9578 94.3498 62.7736 93.6638 58.658C95.653 57.9035 97.9166 57.4919 99.7687 57.3547Z" fill="#E5A185"/>
<path d="M99.4259 57.423C99.5631 57.6974 110.538 57.1487 110.607 56.9429C114.174 57.0801 117.26 57.5602 117.74 59.1379C117.74 59.1379 119.249 66.7518 120.073 82.8027C120.416 89.5934 119.935 103.724 118.426 103.792C109.715 104.272 101.621 104.821 93.1839 103.106C91.4691 102.763 88.9311 64.8997 88.9311 64.8311C88.6567 59.4122 95.0359 57.766 99.4259 57.423Z" fill="#EDEDED"/>
<path d="M120.142 82.8029C119.319 66.752 117.81 59.1381 117.81 59.1381C117.467 57.9034 115.34 57.2861 112.734 57.0117C112.185 60.2356 110.882 63.2537 109.235 66.0661C108.892 66.6834 108.207 67.0264 107.589 67.0264C107.932 67.4379 108.275 67.8495 108.687 68.2611C110.402 70.3189 107.452 73.2684 105.737 71.2106C105.669 71.142 105.6 71.0734 105.6 71.0048C104.777 71.6908 103.405 71.6908 102.719 70.9362C101.553 69.7701 100.73 68.1239 100.113 66.3404C99.7009 66.1347 99.358 65.8603 99.2208 65.5173C98.8778 64.6942 98.672 63.8711 98.5349 62.9108C97.3002 61.4017 96.2713 59.8241 95.3795 58.1092C92.0185 59.0695 88.8632 60.9901 89.1375 64.8314C89.1375 64.8314 91.6069 102.695 93.3903 103.107C101.827 104.821 109.921 104.204 118.633 103.793C119.936 103.724 120.485 89.5251 120.142 82.8029Z" fill="#8E6651"/>
<path d="M91.1269 68.3296C91.4013 66.6148 91.5385 64.7628 91.6071 63.0479C91.6071 62.0876 91.3327 60.9215 91.3327 59.8926C93.5277 58.2464 96.8202 57.629 99.4267 57.3547C99.4267 57.4233 99.9755 57.4232 100.73 57.4232C102.033 59.4811 104.571 63.9396 104.571 63.9396C104.571 63.9396 107.727 59.0009 109.922 56.9431C110.333 56.8745 110.607 56.8745 110.607 56.8059C112.048 56.8745 113.42 56.9431 114.586 57.2175C113.214 61.8818 115.066 67.7123 119.182 70.1131C119.525 73.4742 119.868 77.6584 120.073 82.7343C120.416 89.5251 119.936 103.655 118.427 103.724C109.716 104.204 101.622 104.753 93.1847 103.038C92.0186 102.832 90.5096 85.7524 89.6179 74.5031C90.3038 72.5138 90.8525 70.5246 91.1269 68.3296Z" fill="#8E6651"/>
<path d="M114.38 93.7778C114.38 93.7778 117.878 95.6985 118.221 94.7382C118.564 93.7778 115.066 92.2002 115.066 92.2002L114.38 93.7778Z" fill="#CD8D7A"/>
<path d="M114.037 97.0018C114.037 97.0018 116.575 98.7166 117.398 97.7563C118.221 96.8646 114.86 95.6299 114.86 95.6299L114.037 97.0018Z" fill="#CD8D7A"/>
<path d="M114.791 99.6082C114.791 99.6082 116.917 100.226 117.809 99.7454C118.701 99.1966 117.878 97.4818 116.437 97.8247C114.997 98.2363 114.791 99.6082 114.791 99.6082Z" fill="#CD8D7A"/>
<path d="M125.148 90.6911C125.011 90.4168 124.805 90.211 124.531 90.0052C124.051 89.6622 123.434 89.3879 122.885 89.1135C121.17 88.2904 119.249 87.9474 119.181 88.0846L118.563 89.0449L117.26 99.0596C117.672 99.0596 118.358 98.991 118.701 98.9224C118.701 98.9224 121.101 98.648 122.748 97.6877C123.914 96.9331 124.943 95.9042 125.354 94.5324C125.766 93.3663 125.903 91.7886 125.148 90.6911Z" fill="#E5A185"/>
<path d="M117.397 99.4711C117.397 99.4711 120.69 98.7166 120.758 99.7455C120.827 100.774 117.054 101.666 116.574 101.255C116.3 100.912 117.397 99.4711 117.397 99.4711Z" fill="#CD8D7A"/>
<path d="M119.661 88.7019C119.661 88.7019 113.282 91.7886 113.899 93.2977C114.517 94.8067 116.643 92.8175 116.643 92.8175C116.643 92.8175 113.008 95.9728 113.968 97.0017C114.997 97.962 117.946 94.1894 117.946 94.1894C117.946 94.1894 113.008 98.7166 114.791 99.6083C116.574 100.5 118.289 96.7274 118.289 96.7274C118.289 96.7274 115.271 100.569 116.643 101.255C118.015 101.94 120.073 97.6877 120.073 97.6877L119.661 88.7019Z" fill="#E5A185"/>
<path d="M124.395 93.5035L121.033 89.7309C120.622 89.5937 129.196 82.4599 132.283 76.5609C132.694 75.8064 131.254 73.4056 124.943 68.5354C120.348 64.9686 115.82 63.5281 115.752 63.5281L117.878 58.5894C118.084 58.7265 123.503 60.6472 128.373 64.4198C131.117 66.5462 139.485 73.0626 136.467 78.7559C132.969 85.478 124.738 93.1605 124.395 93.5035Z" fill="#E7A387"/>
<path d="M128.647 89.868L127.001 91.6514C126.726 91.9258 126.246 91.9944 125.903 91.6514L122.474 88.0845C122.199 87.8102 122.268 87.3986 122.542 87.1928L125.08 85.135L128.647 89.868Z" fill="#EDEDED"/>
<path d="M128.235 90.8282C126.932 89.5936 124.874 87.6729 123.639 86.4383C123.228 86.0267 123.228 85.4094 123.639 84.9978C126.177 82.5284 128.99 79.6475 130.705 76.4236C131.116 75.6691 130.499 74.2286 124.188 69.3584C119.592 65.7916 115.614 64.0081 115.545 64.0081L116.506 57.8347C116.712 57.9719 124.051 60.3041 128.921 64.0767C131.665 66.2031 141.131 72.7881 137.701 79.1673C135.712 82.94 132.488 87.6729 129.813 90.6911C129.333 91.1712 128.647 91.1712 128.235 90.8282Z" fill="#8E6651"/>
<path d="M119.25 102.146L118.702 104.067C109.03 106.262 92.979 103.518 92.979 103.518L92.3616 100.706C92.3616 100.706 107.178 103.587 119.25 102.146Z" fill="#7A5544"/>
<path d="M110.607 57.6977L104.845 66.9578L99.083 57.6977L101.895 57.2861L104.845 62.9794L108.892 57.0803L110.607 57.6977Z" fill="#7A5544"/>
<path d="M107.451 54.4736C107.451 54.4736 111.224 55.9827 111.43 58.1777C111.635 60.3727 104.57 58.5892 104.57 58.5892C104.57 58.5892 98.6712 61.2644 97.7108 59.5496C96.7505 57.8347 101.552 54.5422 101.552 54.5422C101.552 54.5422 102.787 56.6686 104.57 56.6686C106.354 56.6686 107.451 54.4736 107.451 54.4736Z" fill="#F2F2F2"/>
<path d="M112.116 79.7162L104.845 68.6726L99.083 80.1277L105.942 90.554L112.116 79.7162Z" fill="#7A5544"/>
<path d="M110.126 79.5789L114.379 71.0732L119.043 80.059L114.791 88.5646L110.126 79.5789Z" fill="#7A5544"/>
<path d="M100.524 79.0987L95.3792 71.0732L91.4694 79.8532L96.9568 88.5646L100.524 79.0987Z" fill="#7A5544"/>
<path d="M21.2732 214V203.568H23.8492L25.5292 208.208C25.6359 208.517 25.7372 208.837 25.8332 209.168C25.9292 209.488 26.0306 209.808 26.1372 210.128H26.2012C26.3079 209.808 26.4039 209.488 26.4892 209.168C26.5852 208.837 26.6866 208.517 26.7932 208.208L28.4412 203.568H31.0012V214H28.8572V210.176C28.8572 209.92 28.8679 209.637 28.8892 209.328C28.9106 209.019 28.9372 208.709 28.9692 208.4C29.0012 208.08 29.0332 207.771 29.0652 207.472C29.0972 207.163 29.1292 206.88 29.1612 206.624H29.0972L28.2492 209.104L26.7612 213.088H25.4652L23.9772 209.104L23.1452 206.624H23.0812C23.1132 206.88 23.1452 207.163 23.1772 207.472C23.2092 207.771 23.2412 208.08 23.2732 208.4C23.3052 208.709 23.3319 209.019 23.3532 209.328C23.3746 209.637 23.3852 209.92 23.3852 210.176V214H21.2732ZM34.4687 217.104C34.2234 217.104 34.0154 217.088 33.8447 217.056C33.6741 217.035 33.5087 216.997 33.3487 216.944L33.7647 215.152C33.8394 215.173 33.9247 215.195 34.0207 215.216C34.1167 215.237 34.2074 215.248 34.2927 215.248C34.6874 215.248 34.9914 215.152 35.2047 214.96C35.4181 214.768 35.5781 214.517 35.6847 214.208L35.7967 213.792L32.7407 206.064H35.1087L36.2447 209.472C36.3621 209.835 36.4687 210.203 36.5647 210.576C36.6607 210.949 36.7621 211.333 36.8687 211.728H36.9327C37.0181 211.355 37.1034 210.981 37.1887 210.608C37.2847 210.224 37.3807 209.845 37.4767 209.472L38.4367 206.064H40.6927L37.9407 214.08C37.7487 214.581 37.5461 215.019 37.3327 215.392C37.1301 215.776 36.8901 216.091 36.6127 216.336C36.3461 216.592 36.0367 216.784 35.6847 216.912C35.3434 217.04 34.9381 217.104 34.4687 217.104ZM45.9676 214V203.568H49.5516C50.1276 203.568 50.6663 203.627 51.1676 203.744C51.669 203.851 52.1063 204.037 52.4796 204.304C52.853 204.56 53.1463 204.907 53.3596 205.344C53.5836 205.771 53.6956 206.299 53.6956 206.928C53.6956 207.536 53.5836 208.064 53.3596 208.512C53.1463 208.96 52.853 209.328 52.4796 209.616C52.1063 209.904 51.6743 210.117 51.1836 210.256C50.693 210.395 50.1703 210.464 49.6156 210.464H48.3196V214H45.9676ZM48.3196 208.592H49.4716C50.7516 208.592 51.3916 208.037 51.3916 206.928C51.3916 206.384 51.221 206 50.8796 205.776C50.5383 205.552 50.0476 205.44 49.4076 205.44H48.3196V208.592ZM57.08 214.192C56.7173 214.192 56.3867 214.128 56.088 214C55.8 213.883 55.5547 213.717 55.352 213.504C55.1493 213.28 54.9893 213.024 54.872 212.736C54.7653 212.448 54.712 212.133 54.712 211.792C54.712 210.96 55.064 210.309 55.768 209.84C56.472 209.371 57.608 209.056 59.176 208.896C59.1547 208.544 59.048 208.267 58.856 208.064C58.6747 207.851 58.3653 207.744 57.928 207.744C57.5867 207.744 57.2453 207.808 56.904 207.936C56.5733 208.064 56.216 208.24 55.832 208.464L54.984 206.912C55.496 206.603 56.0293 206.352 56.584 206.16C57.1493 205.968 57.7467 205.872 58.376 205.872C59.4 205.872 60.1787 206.165 60.712 206.752C61.256 207.328 61.528 208.229 61.528 209.456V214H59.608L59.448 213.184H59.384C59.0427 213.483 58.6853 213.728 58.312 213.92C57.9387 214.101 57.528 214.192 57.08 214.192ZM57.88 212.368C58.1467 212.368 58.376 212.309 58.568 212.192C58.76 212.075 58.9627 211.909 59.176 211.696V210.304C58.344 210.421 57.768 210.592 57.448 210.816C57.128 211.04 56.968 211.307 56.968 211.616C56.968 211.872 57.048 212.064 57.208 212.192C57.3787 212.309 57.6027 212.368 57.88 212.368ZM63.8375 214V206.064H65.7575L65.9175 207.456H65.9815C66.2695 206.912 66.6162 206.512 67.0215 206.256C67.4268 206 67.8322 205.872 68.2375 205.872C68.4615 205.872 68.6428 205.888 68.7815 205.92C68.9308 205.941 69.0642 205.979 69.1815 206.032L68.7975 208.064C68.6482 208.021 68.5095 207.989 68.3815 207.968C68.2535 207.947 68.1042 207.936 67.9335 207.936C67.6348 207.936 67.3202 208.043 66.9895 208.256C66.6695 208.469 66.4028 208.848 66.1895 209.392V214H63.8375ZM73.5885 214.192C73.0978 214.192 72.6765 214.117 72.3245 213.968C71.9832 213.819 71.7005 213.611 71.4765 213.344C71.2632 213.077 71.1032 212.757 70.9965 212.384C70.9005 212 70.8525 211.579 70.8525 211.12V207.904H69.7645V206.16L70.9805 206.064L71.2525 203.952H73.2045V206.064H75.1085V207.904H73.2045V211.088C73.2045 211.536 73.2952 211.861 73.4765 212.064C73.6685 212.256 73.9192 212.352 74.2285 212.352C74.3565 212.352 74.4845 212.336 74.6125 212.304C74.7512 212.272 74.8738 212.235 74.9805 212.192L75.3485 213.904C75.1352 213.968 74.8845 214.032 74.5965 214.096C74.3085 214.16 73.9725 214.192 73.5885 214.192ZM76.9775 214V206.064H78.8975L79.0575 207.072H79.1215C79.4628 206.752 79.8362 206.475 80.2415 206.24C80.6468 205.995 81.1215 205.872 81.6655 205.872C82.5295 205.872 83.1535 206.155 83.5375 206.72C83.9322 207.285 84.1295 208.069 84.1295 209.072V214H81.7775V209.376C81.7775 208.8 81.6975 208.405 81.5375 208.192C81.3882 207.979 81.1428 207.872 80.8015 207.872C80.5028 207.872 80.2468 207.941 80.0335 208.08C79.8202 208.208 79.5855 208.395 79.3295 208.64V214H76.9775ZM90.0057 214.192C89.4404 214.192 88.9124 214.101 88.4217 213.92C87.9311 213.728 87.5044 213.456 87.1417 213.104C86.7791 212.741 86.4964 212.304 86.2937 211.792C86.0911 211.28 85.9897 210.693 85.9897 210.032C85.9897 209.392 86.0964 208.816 86.3097 208.304C86.5231 207.781 86.8004 207.344 87.1417 206.992C87.4937 206.629 87.8937 206.352 88.3417 206.16C88.7897 205.968 89.2537 205.872 89.7337 205.872C90.2991 205.872 90.7897 205.968 91.2057 206.16C91.6324 206.352 91.9844 206.619 92.2617 206.96C92.5497 207.301 92.7631 207.707 92.9017 208.176C93.0404 208.635 93.1097 209.136 93.1097 209.68C93.1097 209.893 93.0991 210.096 93.0777 210.288C93.0564 210.48 93.0351 210.624 93.0137 210.72H88.2617C88.3684 211.296 88.6031 211.723 88.9657 212C89.3391 212.267 89.7924 212.4 90.3257 212.4C90.8911 212.4 91.4617 212.224 92.0377 211.872L92.8217 213.296C92.4164 213.573 91.9631 213.792 91.4617 213.952C90.9711 214.112 90.4857 214.192 90.0057 214.192ZM88.2457 209.168H91.1097C91.1097 208.72 91.0084 208.357 90.8057 208.08C90.6031 207.803 90.2617 207.664 89.7817 207.664C89.4084 207.664 89.0777 207.787 88.7897 208.032C88.5124 208.277 88.3311 208.656 88.2457 209.168ZM95.055 214V206.064H96.975L97.135 207.456H97.199C97.487 206.912 97.8337 206.512 98.239 206.256C98.6443 206 99.0497 205.872 99.455 205.872C99.679 205.872 99.8603 205.888 99.999 205.92C100.148 205.941 100.282 205.979 100.399 206.032L100.015 208.064C99.8657 208.021 99.727 207.989 99.599 207.968C99.471 207.947 99.3217 207.936 99.151 207.936C98.8523 207.936 98.5377 208.043 98.207 208.256C97.887 208.469 97.6203 208.848 97.407 209.392V214H95.055ZM107.273 214.192C106.91 214.192 106.58 214.128 106.281 214C105.993 213.883 105.748 213.717 105.545 213.504C105.342 213.28 105.182 213.024 105.065 212.736C104.958 212.448 104.905 212.133 104.905 211.792C104.905 210.96 105.257 210.309 105.961 209.84C106.665 209.371 107.801 209.056 109.369 208.896C109.348 208.544 109.241 208.267 109.049 208.064C108.868 207.851 108.558 207.744 108.121 207.744C107.78 207.744 107.438 207.808 107.097 207.936C106.766 208.064 106.409 208.24 106.025 208.464L105.177 206.912C105.689 206.603 106.222 206.352 106.777 206.16C107.342 205.968 107.94 205.872 108.569 205.872C109.593 205.872 110.372 206.165 110.905 206.752C111.449 207.328 111.721 208.229 111.721 209.456V214H109.801L109.641 213.184H109.577C109.236 213.483 108.878 213.728 108.505 213.92C108.132 214.101 107.721 214.192 107.273 214.192ZM108.073 212.368C108.34 212.368 108.569 212.309 108.761 212.192C108.953 212.075 109.156 211.909 109.369 211.696V210.304C108.537 210.421 107.961 210.592 107.641 210.816C107.321 211.04 107.161 211.307 107.161 211.616C107.161 211.872 107.241 212.064 107.401 212.192C107.572 212.309 107.796 212.368 108.073 212.368ZM114.031 214V206.064H115.951L116.111 207.072H116.175C116.516 206.752 116.889 206.475 117.295 206.24C117.7 205.995 118.175 205.872 118.719 205.872C119.583 205.872 120.207 206.155 120.591 206.72C120.985 207.285 121.183 208.069 121.183 209.072V214H118.831V209.376C118.831 208.8 118.751 208.405 118.591 208.192C118.441 207.979 118.196 207.872 117.855 207.872C117.556 207.872 117.3 207.941 117.087 208.08C116.873 208.208 116.639 208.395 116.383 208.64V214H114.031ZM126.339 214.192C125.848 214.192 125.4 214.096 124.995 213.904C124.6 213.712 124.259 213.44 123.971 213.088C123.694 212.725 123.475 212.288 123.315 211.776C123.166 211.264 123.091 210.683 123.091 210.032C123.091 209.381 123.182 208.8 123.363 208.288C123.555 207.776 123.8 207.344 124.099 206.992C124.408 206.629 124.76 206.352 125.155 206.16C125.56 205.968 125.971 205.872 126.387 205.872C126.835 205.872 127.203 205.947 127.491 206.096C127.779 206.245 128.062 206.448 128.339 206.704L128.243 205.488V202.784H130.595V214H128.675L128.515 213.216H128.451C128.174 213.493 127.848 213.728 127.475 213.92C127.102 214.101 126.723 214.192 126.339 214.192ZM126.947 212.272C127.203 212.272 127.432 212.219 127.635 212.112C127.848 212.005 128.051 211.819 128.243 211.552V208.304C128.03 208.112 127.811 207.979 127.587 207.904C127.363 207.829 127.144 207.792 126.931 207.792C126.558 207.792 126.227 207.973 125.939 208.336C125.651 208.688 125.507 209.243 125.507 210C125.507 210.789 125.63 211.365 125.875 211.728C126.131 212.091 126.488 212.272 126.947 212.272ZM53.4633 235V224.568H56.0393L57.7193 229.208C57.8259 229.517 57.9273 229.837 58.0233 230.168C58.1193 230.488 58.2206 230.808 58.3273 231.128H58.3913C58.4979 230.808 58.5939 230.488 58.6793 230.168C58.7753 229.837 58.8766 229.517 58.9833 229.208L60.6313 224.568H63.1913V235H61.0473V231.176C61.0473 230.92 61.0579 230.637 61.0793 230.328C61.1006 230.019 61.1273 229.709 61.1593 229.4C61.1913 229.08 61.2233 228.771 61.2553 228.472C61.2873 228.163 61.3193 227.88 61.3513 227.624H61.2873L60.4393 230.104L58.9513 234.088H57.6553L56.1673 230.104L55.3353 227.624H55.2713C55.3033 227.88 55.3353 228.163 55.3673 228.472C55.3993 228.771 55.4313 229.08 55.4633 229.4C55.4953 229.709 55.5219 230.019 55.5433 230.328C55.5646 230.637 55.5753 230.92 55.5753 231.176V235H53.4633ZM66.6588 238.104C66.4134 238.104 66.2054 238.088 66.0348 238.056C65.8641 238.035 65.6988 237.997 65.5388 237.944L65.9548 236.152C66.0294 236.173 66.1148 236.195 66.2108 236.216C66.3068 236.237 66.3974 236.248 66.4828 236.248C66.8774 236.248 67.1814 236.152 67.3948 235.96C67.6081 235.768 67.7681 235.517 67.8748 235.208L67.9868 234.792L64.9308 227.064H67.2988L68.4348 230.472C68.5521 230.835 68.6588 231.203 68.7548 231.576C68.8508 231.949 68.9521 232.333 69.0588 232.728H69.1228C69.2081 232.355 69.2934 231.981 69.3788 231.608C69.4748 231.224 69.5708 230.845 69.6668 230.472L70.6268 227.064H72.8828L70.1308 235.08C69.9388 235.581 69.7361 236.019 69.5228 236.392C69.3201 236.776 69.0801 237.091 68.8028 237.336C68.5361 237.592 68.2268 237.784 67.8748 237.912C67.5334 238.04 67.1281 238.104 66.6588 238.104ZM76.7785 235.192C76.2558 235.192 75.7172 235.091 75.1625 234.888C74.6185 234.685 74.1438 234.419 73.7385 234.088L74.7945 232.616C75.1572 232.893 75.5038 233.101 75.8345 233.24C76.1652 233.379 76.5012 233.448 76.8425 233.448C77.1945 233.448 77.4505 233.389 77.6105 233.272C77.7705 233.155 77.8505 232.989 77.8505 232.776C77.8505 232.648 77.8025 232.536 77.7065 232.44C77.6212 232.333 77.4985 232.237 77.3385 232.152C77.1892 232.067 77.0185 231.992 76.8265 231.928C76.6345 231.853 76.4372 231.773 76.2345 231.688C75.9892 231.592 75.7438 231.48 75.4985 231.352C75.2532 231.224 75.0292 231.069 74.8265 230.888C74.6238 230.696 74.4585 230.477 74.3305 230.232C74.2025 229.976 74.1385 229.683 74.1385 229.352C74.1385 228.989 74.2078 228.653 74.3465 228.344C74.4958 228.035 74.7038 227.773 74.9705 227.56C75.2372 227.347 75.5572 227.181 75.9305 227.064C76.3038 226.936 76.7198 226.872 77.1785 226.872C77.7865 226.872 78.3198 226.979 78.7785 227.192C79.2372 227.395 79.6372 227.624 79.9785 227.88L78.9225 229.288C78.6345 229.075 78.3518 228.909 78.0745 228.792C77.7972 228.675 77.5198 228.616 77.2425 228.616C76.6452 228.616 76.3465 228.824 76.3465 229.24C76.3465 229.368 76.3892 229.48 76.4745 229.576C76.5598 229.661 76.6718 229.741 76.8105 229.816C76.9598 229.891 77.1252 229.965 77.3065 230.04C77.4985 230.104 77.6958 230.173 77.8985 230.248C78.1545 230.344 78.4052 230.456 78.6505 230.584C78.9065 230.701 79.1358 230.851 79.3385 231.032C79.5518 231.213 79.7225 231.437 79.8505 231.704C79.9785 231.96 80.0425 232.269 80.0425 232.632C80.0425 232.995 79.9732 233.331 79.8345 233.64C79.6958 233.949 79.4878 234.221 79.2105 234.456C78.9332 234.68 78.5918 234.861 78.1865 235C77.7812 235.128 77.3118 235.192 76.7785 235.192ZM85.4083 235.192C84.8429 235.192 84.3149 235.101 83.8243 234.92C83.3336 234.728 82.9069 234.456 82.5443 234.104C82.1816 233.741 81.8989 233.304 81.6963 232.792C81.4936 232.28 81.3923 231.693 81.3923 231.032C81.3923 230.392 81.4989 229.816 81.7123 229.304C81.9256 228.781 82.2029 228.344 82.5443 227.992C82.8963 227.629 83.2963 227.352 83.7443 227.16C84.1923 226.968 84.6563 226.872 85.1363 226.872C85.7016 226.872 86.1923 226.968 86.6083 227.16C87.0349 227.352 87.3869 227.619 87.6643 227.96C87.9523 228.301 88.1656 228.707 88.3043 229.176C88.4429 229.635 88.5123 230.136 88.5123 230.68C88.5123 230.893 88.5016 231.096 88.4803 231.288C88.4589 231.48 88.4376 231.624 88.4163 231.72H83.6643C83.7709 232.296 84.0056 232.723 84.3683 233C84.7416 233.267 85.1949 233.4 85.7283 233.4C86.2936 233.4 86.8643 233.224 87.4403 232.872L88.2243 234.296C87.8189 234.573 87.3656 234.792 86.8643 234.952C86.3736 235.112 85.8883 235.192 85.4083 235.192ZM83.6483 230.168H86.5123C86.5123 229.72 86.4109 229.357 86.2083 229.08C86.0056 228.803 85.6643 228.664 85.1843 228.664C84.8109 228.664 84.4803 228.787 84.1923 229.032C83.9149 229.277 83.7336 229.656 83.6483 230.168ZM92.6175 235.192C92.2122 235.192 91.8708 235.128 91.5935 235C91.3162 234.872 91.0922 234.696 90.9215 234.472C90.7615 234.237 90.6442 233.96 90.5695 233.64C90.4948 233.309 90.4575 232.941 90.4575 232.536V223.784H92.8095V232.632C92.8095 232.877 92.8522 233.048 92.9375 233.144C93.0335 233.24 93.1295 233.288 93.2255 233.288C93.2788 233.288 93.3215 233.288 93.3535 233.288C93.3962 233.288 93.4495 233.277 93.5135 233.256L93.8015 235C93.6735 235.053 93.5082 235.096 93.3055 235.128C93.1135 235.171 92.8842 235.192 92.6175 235.192ZM95.7556 235V228.904H94.6996V227.16L95.7556 227.08V226.648C95.7556 226.232 95.8036 225.837 95.8996 225.464C96.0063 225.091 96.177 224.765 96.4116 224.488C96.6463 224.211 96.9503 223.992 97.3236 223.832C97.697 223.672 98.1503 223.592 98.6836 223.592C99.0143 223.592 99.313 223.624 99.5796 223.688C99.857 223.752 100.086 223.816 100.268 223.88L99.8356 225.608C99.537 225.501 99.265 225.448 99.0196 225.448C98.7316 225.448 98.5076 225.539 98.3476 225.72C98.1876 225.891 98.1076 226.179 98.1076 226.584V227.064H99.5316V228.904H98.1076V235H95.7556Z" fill="#0C345A"/>
<defs>
<filter id="filter0_ii" x="-2.5" y="-3" width="156" height="266" filterUnits="userSpaceOnUse" color-interpolation-filters="sRGB">
<feFlood flood-opacity="0" result="BackgroundImageFix"/>
<feBlend mode="normal" in="SourceGraphic" in2="BackgroundImageFix" result="shape"/>
<feColorMatrix in="SourceAlpha" type="matrix" values="0 0 0 0 0 0 0 0 0 0 0 0 0 0 0 0 0 0 127 0" result="hardAlpha"/>
<feMorphology radius="2" operator="erode" in="SourceAlpha" result="effect1_innerShadow"/>
<feOffset dx="-3" dy="-3"/>
<feGaussianBlur stdDeviation="1.5"/>
<feComposite in2="hardAlpha" operator="arithmetic" k2="-1" k3="1"/>
<feColorMatrix type="matrix" values="0 0 0 0 0 0 0 0 0 0 0 0 0 0 0 0 0 0 0.2 0"/>
<feBlend mode="normal" in2="shape" result="effect1_innerShadow"/>
<feColorMatrix in="SourceAlpha" type="matrix" values="0 0 0 0 0 0 0 0 0 0 0 0 0 0 0 0 0 0 127 0" result="hardAlpha"/>
<feMorphology radius="2" operator="erode" in="SourceAlpha" result="effect2_innerShadow"/>
<feOffset dx="3" dy="3"/>
<feGaussianBlur stdDeviation="2"/>
<feComposite in2="hardAlpha" operator="arithmetic" k2="-1" k3="1"/>
<feColorMatrix type="matrix" values="0 0 0 0 1 0 0 0 0 1 0 0 0 0 1 0 0 0 0.34 0"/>
<feBlend mode="normal" in2="effect1_innerShadow" result="effect2_innerShadow"/>
</filter>
</defs>
</svg>
