<svg width="175" height="249" viewBox="0 0 175 249" fill="none" xmlns="http://www.w3.org/2000/svg">
<g filter="url(#filter0_ii)">
<path d="M5.21587 74.8406L8.81582 76.0361L14.0957 77.949L16.9757 80.101L19.3757 85.1222L23.6956 86.796L28.2556 90.3826L32.3355 89.4261L36.4154 88.9479L39.0554 85.3613L41.9354 80.3401L45.0553 76.2752L47.2153 69.102L47.6953 64.559L50.8152 56.4293L49.3753 52.6036L50.5752 46.1477L49.8552 43.2784L48.6553 40.4091L50.5752 36.8225L52.4952 33.9532L52.0152 28.6929L54.4152 27.4973L56.0952 25.3454L52.9752 22.4761L58.2551 14.3464L60.1751 6.21679L60.8951 4.06482L63.5351 2.63018L65.935 0.239105L67.135 0.71732L66.895 2.39107L69.775 4.78214L70.015 15.0638L71.4549 16.7375L73.3749 17.933L71.4549 21.2806L75.5349 26.0627V27.9756L76.7349 31.5622L76.0149 40.17L77.6949 46.1477L78.6548 50.4516L81.5348 51.8863L84.6548 49.017L88.4947 48.2997L89.4547 52.3645L94.4946 56.6684L96.8946 58.5813L96.6546 65.5154L97.8546 71.254L97.6146 74.8406L97.1346 78.1881L102.655 89.6652L104.334 92.7736L104.094 98.034L102.415 101.86L105.534 103.055L104.814 108.794L104.574 111.185L107.934 115.25L112.974 118.597L118.014 119.075L118.974 121.945L119.934 125.292L125.454 126.249L127.854 131.27L130.014 129.596L133.854 133.183L132.654 136.052L135.294 141.791L137.934 147.768L138.894 156.854V161.637L142.254 162.354L143.214 163.31L143.694 158.05L145.854 159.485L151.134 165.223L153.294 169.049L152.094 176.7L157.854 184.591L161.214 185.308L163.374 188.656L164.094 192.721L168.414 195.829L169.374 198.937L170.574 202.046L172.494 203.719L172.254 207.784L174.174 211.132L173.694 212.806L172.254 214.957L172.494 224.283L172.254 226.674L170.334 226.435L171.534 229.543L173.694 234.325L173.214 240.303L167.454 240.781L162.654 238.868L155.454 242.694L154.974 246.281L152.094 246.041L150.894 245.802L148.734 248.432L147.534 248.672L148.014 246.281L146.334 244.368L145.134 242.694L142.014 241.498H138.894L137.454 239.107L131.694 240.064L128.094 238.151L124.734 239.346L121.374 242.694L83.6948 239.107L63.0551 236.716L34.9755 234.803L32.3355 234.564L34.9755 196.307L0.895935 194.633L5.21587 74.8406Z" fill="#E0960B"/>
</g>
<path d="M61.8445 175.899C62.6485 175.899 63.2845 175.551 63.7525 174.855C64.2205 174.159 64.4545 173.181 64.4545 171.921C64.4545 170.745 64.2205 169.827 63.7525 169.167C63.2845 168.507 62.6485 168.177 61.8445 168.177C61.0405 168.177 60.4045 168.507 59.9365 169.167C59.4685 169.827 59.2345 170.745 59.2345 171.921C59.2345 173.181 59.4685 174.159 59.9365 174.855C60.4045 175.551 61.0405 175.899 61.8445 175.899ZM65.7145 181.119C65.0905 181.119 64.5145 181.035 63.9865 180.867C63.4585 180.711 62.9785 180.489 62.5465 180.201C62.1265 179.925 61.7545 179.589 61.4305 179.193C61.1065 178.809 60.8425 178.389 60.6385 177.933C60.0145 177.801 59.4445 177.573 58.9285 177.249C58.4245 176.913 57.9925 176.487 57.6325 175.971C57.2725 175.455 56.9965 174.861 56.8045 174.189C56.6125 173.505 56.5165 172.749 56.5165 171.921C56.5165 170.961 56.6425 170.109 56.8945 169.365C57.1585 168.609 57.5245 167.979 57.9925 167.475C58.4605 166.959 59.0185 166.569 59.6665 166.305C60.3265 166.029 61.0525 165.891 61.8445 165.891C62.6365 165.891 63.3565 166.029 64.0045 166.305C64.6645 166.569 65.2285 166.959 65.6965 167.475C66.1645 167.991 66.5245 168.627 66.7765 169.383C67.0405 170.127 67.1725 170.973 67.1725 171.921C67.1725 173.505 66.8365 174.807 66.1645 175.827C65.4925 176.847 64.5865 177.519 63.4465 177.843C63.7225 178.263 64.0945 178.557 64.5625 178.725C65.0305 178.905 65.5165 178.995 66.0205 178.995C66.2725 178.995 66.5065 178.977 66.7225 178.941C66.9505 178.905 67.1485 178.857 67.3165 178.797L67.7845 180.723C67.5685 180.831 67.2805 180.921 66.9205 180.993C66.5725 181.077 66.1705 181.119 65.7145 181.119ZM69.7392 177.843V166.107H72.3852V175.611H77.0292V177.843H69.7392ZM79.4156 177.843V166.107H82.7276C83.6276 166.107 84.4376 166.221 85.1576 166.449C85.8776 166.677 86.4956 167.031 87.0116 167.511C87.5276 167.979 87.9236 168.579 88.1996 169.311C88.4756 170.043 88.6136 170.913 88.6136 171.921C88.6136 172.929 88.4756 173.805 88.1996 174.549C87.9236 175.293 87.5336 175.911 87.0296 176.403C86.5256 176.883 85.9196 177.243 85.2116 177.483C84.5156 177.723 83.7356 177.843 82.8716 177.843H79.4156ZM82.0616 175.701H82.5656C83.0696 175.701 83.5256 175.635 83.9336 175.503C84.3416 175.371 84.6896 175.161 84.9776 174.873C85.2656 174.573 85.4876 174.183 85.6436 173.703C85.8116 173.223 85.8956 172.629 85.8956 171.921C85.8956 171.225 85.8116 170.643 85.6436 170.175C85.4876 169.695 85.2656 169.317 84.9776 169.041C84.6896 168.753 84.3416 168.549 83.9336 168.429C83.5256 168.309 83.0696 168.249 82.5656 168.249H82.0616V175.701Z" fill="white"/>
<defs>
<filter id="filter0_ii" x="-2.10406" y="-2.76089" width="179.278" height="254.433" filterUnits="userSpaceOnUse" color-interpolation-filters="sRGB">
<feFlood flood-opacity="0" result="BackgroundImageFix"/>
<feBlend mode="normal" in="SourceGraphic" in2="BackgroundImageFix" result="shape"/>
<feColorMatrix in="SourceAlpha" type="matrix" values="0 0 0 0 0 0 0 0 0 0 0 0 0 0 0 0 0 0 127 0" result="hardAlpha"/>
<feMorphology radius="2" operator="erode" in="SourceAlpha" result="effect1_innerShadow"/>
<feOffset dx="-3" dy="-3"/>
<feGaussianBlur stdDeviation="1.5"/>
<feComposite in2="hardAlpha" operator="arithmetic" k2="-1" k3="1"/>
<feColorMatrix type="matrix" values="0 0 0 0 0 0 0 0 0 0 0 0 0 0 0 0 0 0 0.2 0"/>
<feBlend mode="normal" in2="shape" result="effect1_innerShadow"/>
<feColorMatrix in="SourceAlpha" type="matrix" values="0 0 0 0 0 0 0 0 0 0 0 0 0 0 0 0 0 0 127 0" result="hardAlpha"/>
<feMorphology radius="2" operator="erode" in="SourceAlpha" result="effect2_innerShadow"/>
<feOffset dx="3" dy="3"/>
<feGaussianBlur stdDeviation="2"/>
<feComposite in2="hardAlpha" operator="arithmetic" k2="-1" k3="1"/>
<feColorMatrix type="matrix" values="0 0 0 0 1 0 0 0 0 1 0 0 0 0 1 0 0 0 0.34 0"/>
<feBlend mode="normal" in2="effect1_innerShadow" result="effect2_innerShadow"/>
</filter>
</defs>
</svg>

