<svg width="138" height="157" viewBox="0 0 138 157" fill="none" xmlns="http://www.w3.org/2000/svg">
<g filter="url(#filter0_ii)">
<path d="M127.336 156.607L123.976 156.129L121.456 153.26L116.896 145.011L115.936 141.902L116.896 139.511L115.696 134.251L114.856 129.11L111.616 126.241L108.136 123.371L105.496 123.73L103.936 124.208L100.816 123.85L101.056 122.295L104.056 117.274L104.656 114.644L104.536 112.014L100.576 105.797L99.7361 108.188L97.0961 117.155L95.0561 118.111H89.4162L88.2162 115.361L89.5362 114.405L92.5362 114.285L93.0161 112.372L93.7361 106.156L95.0561 101.374L98.4161 98.5042L99.2561 97.0696L99.1361 93.2439L100.696 92.407L101.176 91.8092L98.4161 84.1578L97.3361 84.3969L97.0961 88.7008L95.4161 90.4941L92.4162 95.6349L90.9762 98.5042L88.0962 98.9825L83.7763 101.971L80.5363 106.634L77.7764 111.057L75.0164 113.09L72.3764 112.014L69.6165 102.808L69.4965 100.417L66.1365 97.1891L63.8566 92.0483L60.8566 90.9724L58.6966 88.8204L57.7366 87.0271L59.1766 84.3969L56.7767 83.0818L55.5767 81.2885L54.0167 78.7779L51.7367 77.7019L48.0168 78.8974L46.0968 77.4628L43.5768 76.1477L41.0569 75.6695L39.8569 76.6259H37.9369L35.057 74.5935L30.737 71.9633L27.0171 70.17L25.6971 69.9309L24.6171 70.17L22.8171 71.1264L17.1772 71.246L3.2574 72.2024L0.257446 1.18755L43.6968 0.350677L77.8964 0.470231L113.056 1.90488L137.056 2.8613L128.056 156.846L127.336 156.607Z" fill="#07AF43"/>
</g>
<path d="M63.8635 53.0159C63.0955 53.0159 62.3275 52.8779 61.5595 52.6019C60.8035 52.3139 60.1255 51.8879 59.5255 51.3239L61.0375 49.5059C61.4575 49.8659 61.9195 50.1599 62.4235 50.3879C62.9395 50.6159 63.4435 50.7299 63.9355 50.7299C64.4875 50.7299 64.8955 50.6279 65.1595 50.4239C65.4355 50.2199 65.5735 49.9439 65.5735 49.5959C65.5735 49.4159 65.5315 49.2599 65.4475 49.1279C65.3755 48.9959 65.2615 48.8819 65.1055 48.7859C64.9615 48.6779 64.7815 48.5819 64.5655 48.4979C64.3615 48.4019 64.1335 48.2999 63.8815 48.1919L62.3515 47.5439C62.0515 47.4239 61.7575 47.2679 61.4695 47.0759C61.1935 46.8839 60.9415 46.6619 60.7135 46.4099C60.4975 46.1459 60.3235 45.8459 60.1915 45.5099C60.0595 45.1619 59.9935 44.7719 59.9935 44.3399C59.9935 43.8599 60.0955 43.4099 60.2995 42.9899C60.5035 42.5579 60.7915 42.1859 61.1635 41.8739C61.5355 41.5499 61.9735 41.2979 62.4775 41.1179C62.9935 40.9379 63.5575 40.8479 64.1695 40.8479C64.8535 40.8479 65.5255 40.9799 66.1855 41.2439C66.8575 41.5079 67.4455 41.8919 67.9495 42.3959L66.5995 44.0699C66.2155 43.7699 65.8315 43.5419 65.4475 43.3859C65.0635 43.2179 64.6375 43.1339 64.1695 43.1339C63.7135 43.1339 63.3475 43.2299 63.0715 43.4219C62.8075 43.6019 62.6755 43.8599 62.6755 44.1959C62.6755 44.3759 62.7175 44.5319 62.8015 44.6639C62.8975 44.7839 63.0235 44.8979 63.1795 45.0059C63.3475 45.1019 63.5395 45.1979 63.7555 45.2939C63.9715 45.3779 64.2055 45.4739 64.4575 45.5819L65.9695 46.1939C66.6895 46.4819 67.2535 46.8779 67.6615 47.3819C68.0815 47.8859 68.2915 48.5519 68.2915 49.3799C68.2915 49.8719 68.1895 50.3399 67.9855 50.7839C67.7935 51.2159 67.5055 51.5999 67.1215 51.9359C66.7495 52.2599 66.2875 52.5239 65.7355 52.7279C65.1835 52.9199 64.5595 53.0159 63.8635 53.0159ZM73.3975 46.8599L73.1095 47.9399H75.6115L75.3415 46.8599C75.1735 46.2719 75.0115 45.6479 74.8555 44.9879C74.6995 44.3279 74.5435 43.6919 74.3875 43.0799H74.3155C74.1715 43.7039 74.0215 44.3459 73.8655 45.0059C73.7215 45.6539 73.5655 46.2719 73.3975 46.8599ZM69.1495 52.7999L72.8215 41.0639H76.0075L79.6795 52.7999H76.8715L76.1515 50.0099H72.5695L71.8495 52.7999H69.1495Z" fill="white"/>
<defs>
<filter id="filter0_ii" x="-2.74255" y="-2.64932" width="142.798" height="162.496" filterUnits="userSpaceOnUse" color-interpolation-filters="sRGB">
<feFlood flood-opacity="0" result="BackgroundImageFix"/>
<feBlend mode="normal" in="SourceGraphic" in2="BackgroundImageFix" result="shape"/>
<feColorMatrix in="SourceAlpha" type="matrix" values="0 0 0 0 0 0 0 0 0 0 0 0 0 0 0 0 0 0 127 0" result="hardAlpha"/>
<feMorphology radius="2" operator="erode" in="SourceAlpha" result="effect1_innerShadow"/>
<feOffset dx="-3" dy="-3"/>
<feGaussianBlur stdDeviation="1.5"/>
<feComposite in2="hardAlpha" operator="arithmetic" k2="-1" k3="1"/>
<feColorMatrix type="matrix" values="0 0 0 0 0 0 0 0 0 0 0 0 0 0 0 0 0 0 0.2 0"/>
<feBlend mode="normal" in2="shape" result="effect1_innerShadow"/>
<feColorMatrix in="SourceAlpha" type="matrix" values="0 0 0 0 0 0 0 0 0 0 0 0 0 0 0 0 0 0 127 0" result="hardAlpha"/>
<feMorphology radius="2" operator="erode" in="SourceAlpha" result="effect2_innerShadow"/>
<feOffset dx="3" dy="3"/>
<feGaussianBlur stdDeviation="2"/>
<feComposite in2="hardAlpha" operator="arithmetic" k2="-1" k3="1"/>
<feColorMatrix type="matrix" values="0 0 0 0 1 0 0 0 0 1 0 0 0 0 1 0 0 0 0.34 0"/>
<feBlend mode="normal" in2="effect1_innerShadow" result="effect2_innerShadow"/>
</filter>
</defs>
</svg>

