<svg width="20" height="20" viewBox="0 0 20 20" fill="none" xmlns="http://www.w3.org/2000/svg">
<path fill-rule="evenodd" clip-rule="evenodd" d="M9.98714 0C4.47143 0 0 4.47071 0 9.985C0 15.5021 4.47143 19.9736 9.98714 19.9736C15.5029 19.9736 19.9729 15.5014 19.9729 9.985C19.9729 4.47071 15.5029 0 9.98714 0ZM9.98714 18.9507C5.035 18.9507 1.02286 14.9364 1.02286 9.98429C1.02286 5.03429 5.035 1.02143 9.98714 1.02143C14.9379 1.02143 18.9507 5.03429 18.9507 9.98429C18.95 14.9364 14.9371 18.9507 9.98714 18.9507ZM10.1741 5.3C9.7076 5.3 9.39929 5.68945 9.39929 6.07485V10.732C9.39929 11.1986 9.7076 11.5069 10.1741 11.5069C10.6407 11.5069 10.949 11.1174 10.949 10.732V6.07485C10.949 5.60832 10.6407 5.3 10.1741 5.3ZM10.1741 14.6103C10.6021 14.6103 10.949 14.2634 10.949 13.8355C10.949 13.4076 10.6021 13.0606 10.1741 13.0606C9.7462 13.0606 9.39929 13.4076 9.39929 13.8355C9.39929 14.2634 9.7462 14.6103 10.1741 14.6103Z" fill="#333333"/>
</svg>
