<svg width="50" height="53" viewBox="0 0 50 53" fill="none" xmlns="http://www.w3.org/2000/svg">
<g filter="url(#filter0_ii)">
<path d="M24.8101 52.9443L27.8475 47.9039L30.4053 46.9589L33.7625 40.5009H35.2012L39.038 41.1309L40.9564 38.7682L43.674 29.6325L46.8713 26.6398L47.6707 19.5517L47.9904 13.5662L49.4292 9.47092C49.4292 9.47092 46.2319 5.06058 45.5924 5.06058C44.953 5.06058 40.9564 7.73828 40.9564 7.73828L32.6434 7.8958L29.1264 8.84087L23.3713 10.2585L13.4597 5.53311L3.22841 0.335205L1.78963 0.492717L0.830449 3.80048L0.0311279 7.10824L2.42909 14.5113L4.82705 20.0242L7.54474 25.0646L8.66379 29.475L7.70461 32.4677L7.54474 34.8304L12.1808 44.9112L14.5788 50.2666L16.4971 51.2117L20.0141 50.8967L23.3713 52.9443H24.8101Z" fill="#07AF43"/>
</g>
<path d="M16.7827 32.0309V25.1669H14.4557V23.5549H21.0337V25.1669H18.7067V32.0309H16.7827ZM24.0838 27.7409L23.8758 28.5209H25.6828L25.4878 27.7409C25.3665 27.3162 25.2495 26.8656 25.1368 26.3889C25.0242 25.9122 24.9115 25.4529 24.7988 25.0109H24.7468C24.6428 25.4616 24.5345 25.9252 24.4218 26.4019C24.3178 26.8699 24.2052 27.3162 24.0838 27.7409ZM21.0158 32.0309L23.6678 23.5549H25.9688L28.6208 32.0309H26.5928L26.0728 30.0159H23.4858L22.9658 32.0309H21.0158ZM32.394 32.1869C31.8393 32.1869 31.2847 32.0872 30.73 31.8879C30.184 31.6799 29.6943 31.3722 29.261 30.9649L30.353 29.6519C30.6563 29.9119 30.99 30.1242 31.354 30.2889C31.7267 30.4536 32.0907 30.5359 32.446 30.5359C32.8447 30.5359 33.1393 30.4622 33.33 30.3149C33.5293 30.1676 33.629 29.9682 33.629 29.7169C33.629 29.5869 33.5987 29.4742 33.538 29.3789C33.486 29.2836 33.4037 29.2012 33.291 29.1319C33.187 29.0539 33.057 28.9846 32.901 28.9239C32.7537 28.8546 32.589 28.7809 32.407 28.7029L31.302 28.2349C31.0853 28.1482 30.873 28.0356 30.665 27.8969C30.4657 27.7582 30.2837 27.5979 30.119 27.4159C29.963 27.2252 29.8373 27.0086 29.742 26.7659C29.6467 26.5146 29.599 26.2329 29.599 25.9209C29.599 25.5742 29.6727 25.2492 29.82 24.9459C29.9673 24.6339 30.1753 24.3652 30.444 24.1399C30.7127 23.9059 31.029 23.7239 31.393 23.5939C31.7657 23.4639 32.173 23.3989 32.615 23.3989C33.109 23.3989 33.5943 23.4942 34.071 23.6849C34.5563 23.8756 34.981 24.1529 35.345 24.5169L34.37 25.7259C34.0927 25.5092 33.8153 25.3446 33.538 25.2319C33.2607 25.1106 32.953 25.0499 32.615 25.0499C32.2857 25.0499 32.0213 25.1192 31.822 25.2579C31.6313 25.3879 31.536 25.5742 31.536 25.8169C31.536 25.9469 31.5663 26.0596 31.627 26.1549C31.6963 26.2416 31.7873 26.3239 31.9 26.4019C32.0213 26.4712 32.16 26.5406 32.316 26.6099C32.472 26.6706 32.641 26.7399 32.823 26.8179L33.915 27.2599C34.435 27.4679 34.8423 27.7539 35.137 28.1179C35.4403 28.4819 35.592 28.9629 35.592 29.5609C35.592 29.9162 35.5183 30.2542 35.371 30.5749C35.2323 30.8869 35.0243 31.1642 34.747 31.4069C34.4783 31.6409 34.1447 31.8316 33.746 31.9789C33.3473 32.1176 32.8967 32.1869 32.394 32.1869Z" fill="white"/>
<defs>
<filter id="filter0_ii" x="-2.96887" y="-2.66479" width="55.398" height="58.6091" filterUnits="userSpaceOnUse" color-interpolation-filters="sRGB">
<feFlood flood-opacity="0" result="BackgroundImageFix"/>
<feBlend mode="normal" in="SourceGraphic" in2="BackgroundImageFix" result="shape"/>
<feColorMatrix in="SourceAlpha" type="matrix" values="0 0 0 0 0 0 0 0 0 0 0 0 0 0 0 0 0 0 127 0" result="hardAlpha"/>
<feMorphology radius="2" operator="erode" in="SourceAlpha" result="effect1_innerShadow"/>
<feOffset dx="-3" dy="-3"/>
<feGaussianBlur stdDeviation="1.5"/>
<feComposite in2="hardAlpha" operator="arithmetic" k2="-1" k3="1"/>
<feColorMatrix type="matrix" values="0 0 0 0 0 0 0 0 0 0 0 0 0 0 0 0 0 0 0.2 0"/>
<feBlend mode="normal" in2="shape" result="effect1_innerShadow"/>
<feColorMatrix in="SourceAlpha" type="matrix" values="0 0 0 0 0 0 0 0 0 0 0 0 0 0 0 0 0 0 127 0" result="hardAlpha"/>
<feMorphology radius="2" operator="erode" in="SourceAlpha" result="effect2_innerShadow"/>
<feOffset dx="3" dy="3"/>
<feGaussianBlur stdDeviation="2"/>
<feComposite in2="hardAlpha" operator="arithmetic" k2="-1" k3="1"/>
<feColorMatrix type="matrix" values="0 0 0 0 1 0 0 0 0 1 0 0 0 0 1 0 0 0 0.34 0"/>
<feBlend mode="normal" in2="effect1_innerShadow" result="effect2_innerShadow"/>
</filter>
</defs>
</svg>

