<svg width="92" height="66" viewBox="0 0 92 66" fill="none" xmlns="http://www.w3.org/2000/svg">
<g filter="url(#filter0_ii)">
<path d="M3.37996 0L0.5 51.4081L6.25992 55.4729L9.13988 53.56L13.2198 55.2338L19.4597 58.5813L24.7397 62.407L35.0595 57.6249L37.2195 55.712L40.3394 51.169L41.7794 53.7991L40.3394 57.1466L39.8594 58.5813L45.6194 61.9288L48.9793 64.0808L49.9393 65.7545L59.0592 63.8417L66.4991 57.1466L72.979 54.9947L81.1389 54.7556L88.5788 55.2338L91.4587 52.3645L75.139 41.6047L74.419 39.6918L75.139 36.8225L74.179 35.8661L73.699 32.0404L71.539 31.3231L68.659 30.8448L66.4991 31.8013L63.3791 30.8448L61.2192 29.8884L58.3392 31.084L56.1792 30.1275L49.2193 27.7364L46.8194 26.78H43.9394L43.4594 29.4102L42.0194 30.1275L39.7394 29.8884L37.4595 26.3018L35.5395 22.9543L31.9396 20.085L28.5796 18.8895L26.7796 15.6615L26.5396 12.1945L25.8196 9.8034L23.4197 9.08608L21.3797 8.60786L19.4597 10.2816L17.5398 7.41233L16.3398 5.73858V3.58661L12.2598 1.19554L10.0999 1.91286L7.4599 1.43464L3.37996 0Z" fill="#23ABD1"/>
</g>
<path d="M12.1246 39L9.56361 30.524H11.5916L12.6056 34.476C12.7356 34.944 12.8483 35.399 12.9436 35.841C13.0476 36.2743 13.1646 36.725 13.2946 37.193H13.3466C13.4679 36.725 13.5806 36.2743 13.6846 35.841C13.7886 35.399 13.9013 34.944 14.0226 34.476L15.0236 30.524H16.9736L14.4256 39H12.1246ZM18.1392 39V30.524H20.0502V39H18.1392ZM25.8454 39.156C25.3081 39.156 24.8011 39.065 24.3244 38.883C23.8477 38.6923 23.4274 38.415 23.0634 38.051C22.7081 37.687 22.4264 37.2363 22.2184 36.699C22.0104 36.153 21.9064 35.5247 21.9064 34.814C21.9064 34.112 22.0147 33.488 22.2314 32.942C22.4481 32.3873 22.7384 31.9193 23.1024 31.538C23.4664 31.1567 23.8911 30.8663 24.3764 30.667C24.8617 30.4677 25.3731 30.368 25.9104 30.368C26.4564 30.368 26.9461 30.4807 27.3794 30.706C27.8127 30.9227 28.1724 31.1783 28.4584 31.473L27.4444 32.695C27.2277 32.4957 26.9981 32.3353 26.7554 32.214C26.5214 32.084 26.2527 32.019 25.9494 32.019C25.6634 32.019 25.3904 32.084 25.1304 32.214C24.8791 32.3353 24.6581 32.513 24.4674 32.747C24.2854 32.981 24.1381 33.267 24.0254 33.605C23.9214 33.943 23.8694 34.3243 23.8694 34.749C23.8694 35.6243 24.0557 36.3047 24.4284 36.79C24.8011 37.2667 25.2994 37.505 25.9234 37.505C26.2701 37.505 26.5777 37.4313 26.8464 37.284C27.1237 37.128 27.3664 36.9373 27.5744 36.712L28.5884 37.908C27.8777 38.74 26.9634 39.156 25.8454 39.156Z" fill="white"/>
<defs>
<filter id="filter0_ii" x="-2.5" y="-3" width="96.9587" height="71.7545" filterUnits="userSpaceOnUse" color-interpolation-filters="sRGB">
<feFlood flood-opacity="0" result="BackgroundImageFix"/>
<feBlend mode="normal" in="SourceGraphic" in2="BackgroundImageFix" result="shape"/>
<feColorMatrix in="SourceAlpha" type="matrix" values="0 0 0 0 0 0 0 0 0 0 0 0 0 0 0 0 0 0 127 0" result="hardAlpha"/>
<feMorphology radius="2" operator="erode" in="SourceAlpha" result="effect1_innerShadow"/>
<feOffset dx="-3" dy="-3"/>
<feGaussianBlur stdDeviation="1.5"/>
<feComposite in2="hardAlpha" operator="arithmetic" k2="-1" k3="1"/>
<feColorMatrix type="matrix" values="0 0 0 0 0 0 0 0 0 0 0 0 0 0 0 0 0 0 0.2 0"/>
<feBlend mode="normal" in2="shape" result="effect1_innerShadow"/>
<feColorMatrix in="SourceAlpha" type="matrix" values="0 0 0 0 0 0 0 0 0 0 0 0 0 0 0 0 0 0 127 0" result="hardAlpha"/>
<feMorphology radius="2" operator="erode" in="SourceAlpha" result="effect2_innerShadow"/>
<feOffset dx="3" dy="3"/>
<feGaussianBlur stdDeviation="2"/>
<feComposite in2="hardAlpha" operator="arithmetic" k2="-1" k3="1"/>
<feColorMatrix type="matrix" values="0 0 0 0 1 0 0 0 0 1 0 0 0 0 1 0 0 0 0.34 0"/>
<feBlend mode="normal" in2="effect1_innerShadow" result="effect2_innerShadow"/>
</filter>
</defs>
</svg>

