<svg width="188" height="286" viewBox="0 0 188 286" fill="none" xmlns="http://www.w3.org/2000/svg">
<g filter="url(#filter0_ii)">
<path d="M179.057 13.2125L171.378 11.7779L168.258 10.8215L160.818 4.12646L156.738 2.45271L153.618 0.778961H150.978L149.058 2.21361L149.778 4.60468L148.098 5.56111L147.138 4.60468L141.858 6.51754L139.698 12.017L137.058 10.3433L131.538 12.9734L129.378 16.0818L132.018 18.9511H131.298L129.138 19.6684L129.618 23.9724L126.498 23.255L122.658 26.3634L121.938 28.2763L122.418 30.6674L123.618 32.5802L121.458 35.2104L122.178 37.1233L117.618 36.6451L114.738 35.9277L112.578 36.6451L113.298 38.5579L112.338 41.6663L115.938 45.492L115.218 47.8831L113.778 46.4485L112.818 53.1435C112.818 53.1435 110.418 51.9479 109.698 50.9915C108.978 50.0351 105.139 41.4272 105.139 41.4272V40.2317L103.459 41.1881L98.6586 46.9267L95.7787 50.5133L95.2987 54.339L96.7386 58.4038L98.1786 61.7513L96.4987 64.3815L91.6987 68.6854L89.0588 77.5324L85.9388 81.5972L78.4989 85.9012L76.0989 87.814L69.619 89.2487L67.6991 90.9224L60.9792 89.4878L58.8192 93.5526L57.6192 94.509L50.4193 96.4219L48.7393 97.8565L47.0593 100.726L42.2594 102.4L37.2195 101.682L33.1395 102.16L29.7796 104.312L24.7397 109.812L20.1797 115.55L13.4598 118.898L10.8199 121.289L9.61987 128.94L7.4599 130.136H5.77993L4.81994 122.724L2.89997 123.202L0.5 132.527L3.37996 136.592L3.61996 139.222L2.89997 145.678L1.21999 149.743V156.199L4.57994 159.785L6.73991 164.567L11.7798 170.067L14.8998 173.893L15.1398 179.631L11.5398 177.718L4.81994 170.784L4.09995 173.893L8.17989 177.957L10.5799 181.305L5.05994 180.588L6.01992 182.74L13.6998 191.108L16.5798 196.13L17.2998 200.194L24.9797 209.281L29.0596 215.258L30.2596 221.714L30.4996 225.54L33.3795 231.757L40.5794 242.038L42.2594 246.103L43.4594 256.624L44.1794 262.123L43.9394 265.232L42.7394 269.296L41.0594 269.775L37.4595 268.34V270.97L38.1795 276.709L39.6194 279.1L42.2594 278.143L47.2993 279.817L51.3793 283.643L54.9792 285.078L61.6991 285.317L68.419 284.599L75.379 281.969L77.5389 280.056L80.8989 275.513L84.4988 274.318L87.1388 273.122L87.8588 269.296L92.4187 266.666L102.739 264.993L109.218 263.797L114.738 264.993L123.858 263.319H125.538L127.698 263.797L132.018 261.645L134.898 257.58L136.098 251.363L137.778 250.168L142.578 249.211L156.258 240.365L160.578 239.647L169.698 240.125L174.738 237.256L182.897 232.952L187.217 231.039L179.057 14.4081V13.2125Z" fill="#E94A73"/>
</g>
<path d="M92.856 169.853L90.678 158.117H93.396L94.206 163.607C94.278 164.219 94.356 164.837 94.44 165.461C94.524 166.073 94.602 166.691 94.674 167.315H94.746C94.866 166.691 94.98 166.073 95.088 165.461C95.208 164.837 95.328 164.219 95.448 163.607L96.708 158.117H98.958L100.218 163.607C100.338 164.207 100.452 164.819 100.56 165.443C100.68 166.055 100.8 166.679 100.92 167.315H100.992C101.076 166.679 101.154 166.055 101.226 165.443C101.31 164.831 101.394 164.219 101.478 163.607L102.288 158.117H104.826L102.738 169.853H99.408L98.256 164.525C98.16 164.069 98.07 163.613 97.986 163.157C97.914 162.689 97.848 162.239 97.788 161.807H97.716C97.644 162.239 97.566 162.689 97.482 163.157C97.41 163.613 97.326 164.069 97.23 164.525L96.132 169.853H92.856ZM109.569 163.913L109.281 164.993H111.783L111.513 163.913C111.345 163.325 111.183 162.701 111.027 162.041C110.871 161.381 110.715 160.745 110.559 160.133H110.487C110.343 160.757 110.193 161.399 110.037 162.059C109.893 162.707 109.737 163.325 109.569 163.913ZM105.321 169.853L108.993 158.117H112.179L115.851 169.853H113.043L112.323 167.063H108.741L108.021 169.853H105.321Z" fill="white"/>
<defs>
<filter id="filter0_ii" x="-2.5" y="-2.22104" width="192.717" height="290.538" filterUnits="userSpaceOnUse" color-interpolation-filters="sRGB">
<feFlood flood-opacity="0" result="BackgroundImageFix"/>
<feBlend mode="normal" in="SourceGraphic" in2="BackgroundImageFix" result="shape"/>
<feColorMatrix in="SourceAlpha" type="matrix" values="0 0 0 0 0 0 0 0 0 0 0 0 0 0 0 0 0 0 127 0" result="hardAlpha"/>
<feMorphology radius="2" operator="erode" in="SourceAlpha" result="effect1_innerShadow"/>
<feOffset dx="-3" dy="-3"/>
<feGaussianBlur stdDeviation="1.5"/>
<feComposite in2="hardAlpha" operator="arithmetic" k2="-1" k3="1"/>
<feColorMatrix type="matrix" values="0 0 0 0 0 0 0 0 0 0 0 0 0 0 0 0 0 0 0.2 0"/>
<feBlend mode="normal" in2="shape" result="effect1_innerShadow"/>
<feColorMatrix in="SourceAlpha" type="matrix" values="0 0 0 0 0 0 0 0 0 0 0 0 0 0 0 0 0 0 127 0" result="hardAlpha"/>
<feMorphology radius="2" operator="erode" in="SourceAlpha" result="effect2_innerShadow"/>
<feOffset dx="3" dy="3"/>
<feGaussianBlur stdDeviation="2"/>
<feComposite in2="hardAlpha" operator="arithmetic" k2="-1" k3="1"/>
<feColorMatrix type="matrix" values="0 0 0 0 1 0 0 0 0 1 0 0 0 0 1 0 0 0 0.34 0"/>
<feBlend mode="normal" in2="effect1_innerShadow" result="effect2_innerShadow"/>
</filter>
</defs>
</svg>

